<svg width="137" height="46" fill="none" xmlns="http://www.w3.org/2000/svg"><path d="M64.337 33.736l.589.084v4.326l-.589.126v.462h1.976v-.462l-.63-.126V33.82l.63-.084v-.504h-1.976v.504zm6.392 2.436c0-.546-.126-.924-.379-1.176-.252-.252-.588-.378-1.009-.378-.252 0-.505.042-.715.168-.21.126-.378.294-.505.504l-.041-.588h-1.262v.462l.63.126v2.94l-.63.126v.462h1.976v-.462l-.63-.126v-2.394c.084-.168.21-.336.378-.42.168-.084.337-.168.589-.168.294 0 .504.084.673.21.126.168.21.42.21.756v1.974l-.63.126v.462h1.975v-.462l-.63-.126v-2.016zm3.406-1.05l.462.084-.799 2.352-.084.294-.084-.294-.84-2.352.504-.084v-.462h-1.598v.462l.336.084 1.388 3.528h.589l1.345-3.528.337-.084v-.462h-1.556v.462zm3.785-.546c-.463 0-.884.21-1.22.588-.337.378-.505.882-.505 1.47v.168c0 .588.168 1.092.505 1.47a1.75 1.75 0 0 0 1.345.588c.337 0 .631-.042.883-.126.253-.084.421-.21.59-.378l-.295-.504c-.126.126-.294.21-.505.294-.21.084-.42.126-.673.126-.336 0-.63-.126-.799-.378-.21-.252-.294-.588-.294-.966h2.65v-.462c0-.546-.127-1.008-.421-1.344-.295-.378-.715-.546-1.262-.546zm-.968 1.722a1.54 1.54 0 0 1 .337-.798c.168-.21.378-.336.63-.336.295 0 .547.084.715.294.168.21.252.42.252.714v.126h-1.934zm6.224.546c-.253-.21-.631-.336-1.136-.462-.336-.084-.589-.168-.673-.252-.126-.084-.168-.21-.168-.378s.084-.294.21-.42c.127-.126.337-.168.59-.168.167 0 .336.042.462.084a.915.915 0 0 1 .336.21l.126.504h.547l-.042-.882a2.23 2.23 0 0 0-.63-.336 2.714 2.714 0 0 0-.842-.126c-.462 0-.84.126-1.093.336-.294.252-.42.504-.42.84 0 .336.125.588.378.756.252.168.63.336 1.135.462.337.084.589.168.715.294a.54.54 0 0 1 .168.42c0 .168-.084.294-.21.42-.168.126-.379.168-.63.168-.169 0-.295 0-.463-.042-.169-.042-.253-.084-.337-.168l-.126-.546h-.547v.924c.21.126.42.252.673.294.252.084.547.126.841.126.463 0 .841-.126 1.136-.336.294-.21.42-.504.42-.882-.042-.378-.168-.63-.42-.84zm3.027 1.344h-.21a.478.478 0 0 1-.337-.126c-.084-.084-.126-.21-.126-.42v-2.478h.757v-.546h-.757v-.966h-.757v.966h-.63v.546h.63v2.478c0 .378.085.672.253.84.168.168.42.294.715.294.126 0 .252 0 .42-.042.126-.042.252-.084.294-.126l-.084-.504c0 .084-.084.084-.168.084zm7.065-1.89c0-.588-.127-1.008-.379-1.302-.252-.294-.588-.42-1.009-.42-.294 0-.547.084-.757.21-.21.126-.378.336-.505.546a1.127 1.127 0 0 0-.42-.546c-.21-.126-.42-.168-.715-.168-.252 0-.505.042-.715.168-.21.126-.378.252-.504.462l-.042-.546h-1.304v.462l.63.126v2.94l-.63.126v.462h1.976v-.462l-.63-.126v-2.436a.992.992 0 0 1 .336-.378c.126-.084.337-.126.547-.126.252 0 .462.084.63.252.127.168.21.462.21.84v1.89l-.63.126v.462h1.976v-.462l-.63-.126v-2.016c.042-.294.126-.504.294-.672.168-.168.378-.294.63-.294.253 0 .463.084.631.252.127.168.21.462.21.84v1.89l-.63.126v.462h1.976v-.462l-.63-.126v-1.974h.084zm2.859-1.722c-.462 0-.883.21-1.22.588-.336.378-.504.882-.504 1.47v.168c0 .588.168 1.092.505 1.47a1.75 1.75 0 0 0 1.345.588c.337 0 .631-.042.883-.126.253-.084.42-.21.589-.378l-.294-.504c-.126.126-.295.21-.505.294-.21.084-.42.126-.673.126-.336 0-.63-.126-.799-.378-.21-.252-.294-.588-.294-.966h2.65v-.462c0-.546-.127-1.008-.421-1.344-.295-.378-.715-.546-1.262-.546zm-.967 1.722a1.54 1.54 0 0 1 .336-.798c.169-.21.379-.336.631-.336.294 0 .547.084.715.294.168.21.252.42.252.714v.126H95.16zm7.233-.126c0-.546-.127-.924-.379-1.176-.252-.252-.589-.378-1.009-.378-.252 0-.505.042-.715.168a1.45 1.45 0 0 0-.505.504l-.042-.588h-1.261v.462l.63.126v2.94l-.63.126v.462h1.976v-.462l-.63-.126v-2.394c.084-.168.21-.336.378-.42.168-.084.336-.168.589-.168.294 0 .504.084.672.21.127.168.211.42.211.756v1.974l-.631.126v.462h1.976v-.462l-.63-.126v-2.016zm3.111 2.016h-.21a.477.477 0 0 1-.336-.126c-.084-.084-.127-.21-.127-.42v-2.478h.757v-.546h-.757v-.966h-.756v.966h-.631v.546h.631v2.478c0 .378.084.672.252.84.168.168.42.294.715.294.126 0 .252 0 .42-.042.126-.042.253-.084.295-.126l-.084-.504c-.043.084-.085.084-.169.084zm3.743-1.344c-.253-.21-.631-.336-1.136-.462-.336-.084-.588-.168-.672-.252-.127-.084-.169-.21-.169-.378s.085-.294.211-.42.336-.168.588-.168c.169 0 .337.042.463.084a.914.914 0 0 1 .336.21l.126.504h.547l-.084-.924a2.219 2.219 0 0 0-.631-.336 2.71 2.71 0 0 0-.841-.126c-.462 0-.841.126-1.093.336-.252.21-.421.504-.421.84 0 .336.127.588.379.756.252.168.631.336 1.135.462.337.084.589.168.715.294a.54.54 0 0 1 .168.42c0 .168-.084.294-.21.42-.168.126-.378.168-.631.168-.168 0-.294 0-.462-.042-.168-.042-.253-.084-.337-.168l-.126-.546h-.588v.924c.21.126.42.252.672.294.253.042.547.126.841.126.463 0 .841-.126 1.136-.336.294-.21.42-.504.42-.882.042-.336-.084-.588-.336-.798zm2.901-3.108l.631.084v4.326l-.631.126v.462h2.019v-.462l-.631-.126V33.82l.631-.084v-.504h-2.019v.504zm6.434 2.436c0-.546-.126-.924-.379-1.176-.252-.252-.588-.378-1.009-.378-.252 0-.504.042-.715.168-.21.126-.378.294-.504.504l-.042-.588h-1.262v.462l.631.126v2.94l-.631.126v.462h1.977v-.462l-.631-.126v-2.394c.084-.168.21-.336.378-.42.169-.084.337-.168.589-.168.294 0 .505.084.673.21.126.168.21.42.21.756v1.974l-.631.126v.462h1.977v-.462l-.631-.126v-2.016zm3.869 1.302c0 .21-.085.42-.295.546-.168.168-.42.21-.673.21-.378 0-.672-.126-.841-.42-.168-.294-.252-.63-.252-1.05v-.168c0-.42.084-.756.252-1.05.169-.294.463-.42.841-.42.169 0 .337.042.463.084a.914.914 0 0 1 .336.21l.169.63h.588l-.042-.924a2.436 2.436 0 0 0-.631-.462c-.252-.126-.546-.168-.883-.168-.588 0-1.051.21-1.345.588-.337.378-.463.882-.463 1.47v.168c0 .588.168 1.092.463 1.47.294.378.757.588 1.345.588a1.66 1.66 0 0 0 1.136-.42c.336-.294.504-.588.462-.924v-.042h-.63v.084zm2.396.504h-.756v.756h.756v-.756zM61.73 26.554c1.093 0 2.102-.21 2.943-.63.841-.42 1.472-.924 1.893-1.47V21.85h-1.388l-.378 2.058c-.295.294-.715.546-1.262.756-.547.21-1.135.294-1.808.294-1.43 0-2.523-.546-3.322-1.68-.799-1.092-1.22-2.52-1.22-4.2v-.252c0-1.68.421-3.108 1.22-4.2.799-1.092 1.976-1.638 3.532-1.638.63 0 1.22.084 1.682.294.463.21.883.462 1.178.756l.378 2.058h1.388v-2.478c-.42-.546-1.052-1.008-1.893-1.47-.84-.42-1.808-.63-2.943-.63-1.934 0-3.532.714-4.71 2.1-1.22 1.386-1.808 3.192-1.808 5.334v.21c0 2.142.63 3.906 1.85 5.292 1.22 1.386 2.776 2.1 4.668 2.1zm11.942-1.47l-1.64-.294v-6.468a3.25 3.25 0 0 1 1.094-1.05 2.954 2.954 0 0 1 1.471-.378c.757 0 1.346.21 1.724.63.379.42.59 1.092.59 1.974v5.292l-1.64.294v1.26h5.255v-1.26l-1.64-.294v-5.25c0-1.428-.336-2.52-.967-3.234-.63-.714-1.556-1.05-2.733-1.05-.673 0-1.262.126-1.808.42a4.278 4.278 0 0 0-1.388 1.218v-6.216h-3.616v1.26l1.64.294V24.79l-1.64.294v1.26h5.256v-1.26h.042zm11.943-14.406h-1.977v2.016h1.977v-2.016zm1.639 14.406l-1.64-.294v-9.324h-3.616v1.26l1.64.294v7.77l-1.64.294v1.26h5.256v-1.26zm6.771 0l-1.64-.294v-6.216c.21-.462.462-.798.84-1.05.337-.252.8-.378 1.304-.378l1.136.042.252-1.848c-.084-.042-.21-.042-.379-.084-.168-.042-.336-.042-.462-.042-.589 0-1.093.168-1.556.462a3.804 3.804 0 0 0-1.135 1.302l-.21-1.596h-3.407v1.26l1.64.294v7.77l-1.64.294v1.26h5.257v-1.176zm8.073 0l-1.64-.294v-3.444h1.304l2.859 3.612-1.009.126v1.26h4.499v-1.26l-1.219-.252-3.49-4.41 2.859-3.402 1.346-.294v-1.26h-4.584v1.26l1.01.168-2.313 2.856h-1.262v-9.072h-3.616v1.26l1.64.294V24.79l-1.64.294v1.26h5.256v-1.26zm12.405 1.47c1.514 0 2.691-.504 3.532-1.554.883-1.05 1.304-2.352 1.304-3.99v-.21c0-1.596-.421-2.94-1.304-3.99-.883-1.05-2.06-1.554-3.574-1.554-1.514 0-2.691.504-3.532 1.554-.883 1.05-1.304 2.352-1.304 3.99v.21c0 1.596.421 2.94 1.304 3.99.883 1.05 2.06 1.554 3.574 1.554zm-2.901-5.754c0-1.134.252-2.1.714-2.856.463-.756 1.22-1.134 2.145-1.134s1.682.378 2.145 1.134c.504.756.714 1.722.714 2.856v.21c0 1.134-.252 2.1-.714 2.856-.505.756-1.22 1.134-2.145 1.134-.967 0-1.682-.378-2.187-1.134-.504-.756-.714-1.722-.714-2.856v-.21h.042zm11.101 3.99l-1.64.294v1.26h5.256v-1.26l-1.64-.294v-7.854h2.271v-1.47h-2.271V14.08c0-.672.126-1.176.421-1.512.294-.336.715-.504 1.303-.504.169 0 .337 0 .547.042.168 0 .336.042.42.084l.253-1.512c-.295-.084-.547-.126-.757-.168-.252-.042-.463-.042-.673-.042-1.093 0-1.934.336-2.523.966-.589.63-.925 1.512-.925 2.688v1.386h-1.682v1.47h1.682v7.812h-.042zm7.317 0l-1.64.294v1.26h5.256v-1.26l-1.64-.294v-7.854h2.271v-1.47h-2.271V14.08c0-.672.126-1.176.421-1.512.294-.336.714-.504 1.303-.504.168 0 .336 0 .547.042.168 0 .336.042.42.084l.253-1.512c-.295-.084-.547-.126-.757-.168-.253-.042-.463-.042-.673-.042-1.093 0-1.934.336-2.523.966-.589.63-.925 1.512-.925 2.688v1.386h-1.682v1.47h1.682v7.812h-.042zm6.98 4.662H52.479v.336H137v-.336zM30.192 13.912c.168.042.463.042.589 0 .715-.294 1.388-.63 2.102-.966.337-.168.42-.42.337-.672a3.433 3.433 0 0 0-.379-.798c-.336-.504-.672-1.05-1.009-1.554-.21-.336-.252-.63.294-.882.21-.084.295-.252.127-.42-.21-.168-.42-.378-.673-.504-.252-.126-.547-.126-.715.084a.668.668 0 0 0-.126.546c.126.672.294 1.345.462 1.974h-.084c.126.924-.084 1.806-.84 2.562a.738.738 0 0 0-.169.21c-.084.168-.126.336.084.42zm-15.727-1.05c.715.378 1.472.756 2.271 1.092.126.042.378.042.463 0 .084-.042.126-.21.126-.294 0-.084-.084-.168-.168-.252-.253-.42-.631-.798-.757-1.218-.295-1.092-.169-2.183.21-3.276.042-.168.084-.336.042-.462s-.252-.294-.42-.336c-.127-.042-.379.042-.547.126-.21.084-.337.252-.505.378-.21.168-.21.336.084.462.505.252.547.504.253.925-.379.545-.715 1.091-1.094 1.637-.168.252-.252.504-.378.756.168.084.21.336.42.462zm14.76 1.302c-.042-.126-.042-.252-.126-.378-.168-.252-.715-.336-.925-.126-.295.294-.673.462-1.136.63-.168.042-.294.168-.378.252a1.78 1.78 0 0 0-.378 1.428c.084.336.462.504.925.294 1.177-.462 2.018-1.092 2.018-2.1zm-9.041.084c-.336-.168-.673-.252-.925-.504-.084-.084-.378-.168-.505-.126-.21.042-.42.168-.462.294-.084.168-.042.378-.042.546.084.798.715 1.386 1.724 1.764.252.084.589.21.799.126.252-.084.336-.336.462-.462-.126-.42-.126-.714-.294-1.008a1.854 1.854 0 0 0-.757-.63zm-5.677 16.59c0-.462-.084-.546-.588-.588-.379-.042-.715-.126-1.094-.126-.336-.042-.672-.084-1.05-.042-.505.042-.716.42-.421.798.126.21.294.378.504.546.673.504 1.472.798 2.355.756.463-.042.589-.252.463-.672a3.146 3.146 0 0 0-.169-.672zM6.98 24.496c-.126-.042-.336.084-.42.21-.126.126-.21.336-.252.504-.127.588-.085 1.218.042 1.806a.368.368 0 0 0 .378.294c.547 0 .967-.504.841-1.008-.084-.504-.42-1.764-.589-1.806zm3.533 4.746c0-.126-.043-.21-.043-.252a.825.825 0 0 0-.378-.714c-.252-.168-.505-.378-.757-.546-.084-.084-.252-.126-.336-.084-.084.042-.126.21-.168.294-.042.084 0 .168 0 .252.168.672.546 1.176 1.135 1.638.084.084.252.126.378.126.21.042.295-.042.253-.252-.042-.168-.042-.336-.084-.462zm-3.827-5.376c.378-.126.757-.756.673-1.134-.084-.336-.379-.546-.63-.336-.38.294-.632.63-.632 1.092-.042.378.21.546.589.378zm28.846 6.174c-.336-.042-.672 0-1.05.042-.38.042-.716.084-1.094.126-.463.042-.547.126-.589.588-.084.21-.126.42-.21.63-.126.378 0 .63.463.672.883.084 1.682-.21 2.354-.756a2.06 2.06 0 0 0 .505-.546c.336-.336.126-.714-.379-.756zm5.215-5.334c-.084-.126-.295-.21-.42-.21-.127.042-.505 1.302-.631 1.764-.127.504.294 1.008.84 1.008.21 0 .337-.126.379-.294.126-.588.168-1.218.042-1.806a.766.766 0 0 0-.21-.462zm-2.439 2.898c-.084-.042-.252.042-.337.084-.252.168-.504.378-.756.546a.825.825 0 0 0-.379.714c0 .084 0 .168-.042.252-.042.126-.042.294-.084.42-.042.21.042.294.252.252.126 0 .295-.042.379-.126.546-.42.967-.966 1.135-1.638a.268.268 0 0 0 0-.252c0-.042-.042-.21-.168-.252zm2.312-5.166c-.252-.21-.546-.042-.63.336-.084.378.294.966.673 1.134.378.126.588 0 .588-.336 0-.504-.252-.84-.63-1.134z" fill="#16585A"/><path d="M44.615 11.308c.127-.126.253-.294.379-.462 1.093-1.512 1.64-3.192 1.766-4.998.084-1.217-.042-2.435-.463-3.611-.21-.588-.504-1.092-1.05-1.47C44.7.347 44.11.263 43.48.64h-.042c-1.766.63-3.574 1.092-5.425 1.47a6.784 6.784 0 0 1-3.658-.252C32.253 1.145 30.066.64 27.88.305a25.29 25.29 0 0 0-1.766-.21h-.126c-1.261-.126-3.364-.126-4.667 0h-.127a25.29 25.29 0 0 0-1.766.21 37.34 37.34 0 0 0-6.476 1.554 6.784 6.784 0 0 1-3.658.252C7.443 1.733 5.635 1.27 3.87.64h-.042C3.196.263 2.607.347 2.06.767c-.504.378-.84.882-1.05 1.47C.588 3.413.504 4.63.546 5.848c.126 1.806.672 3.486 1.766 4.998.126.168.252.294.378.462a.58.58 0 0 1 .126.168C1.01 14.626 0 18.322 0 22.396 0 35.416 10.555 46 23.632 46c13.036 0 23.633-10.542 23.633-23.604 0-4.032-1.01-7.728-2.818-10.92l.168-.168zm-13.96 28.308c-.084-.084-.169-.042-.21.042-.21 1.008-.673 1.806-1.725 2.31-.126.042-.252-.084-.168-.168 0 0 0-.042.042-.042.042-.126-.084-.252-.168-.168-1.598.756-3.154 1.134-4.71 1.134s-3.153-.378-4.71-1.134c-.125-.042-.252.084-.167.168 0 0 0 .042.042.042.042.126-.084.252-.169.168-1.05-.504-1.513-1.302-1.724-2.31 0-.084-.126-.126-.21-.042-.084.084-.21 0-.21-.084.084-1.134.799-1.764 1.85-2.142a.131.131 0 0 0 0-.252c-.126-.042-.21-.042-.336-.084-.169-.042-.127-.252.042-.252.21 0 .378-.042.588-.084 1.01-.21 2.523-.504 5.046-.504 2.524 0 4.037.294 5.047.504.168.042.378.042.588.084.168 0 .168.21.042.252-.126.042-.21.042-.336.084a.131.131 0 0 0 0 .252c1.093.378 1.808 1.008 1.85 2.142-.084.084-.21.168-.294.084zm13.456-23.31c-.21-.252-.547-.84-.967-.588-.42.294 0 1.134.126 1.428.294.63 1.051 4.368-.463 10.542-.336 1.302-.757 2.52-1.808 3.402-.799.63-1.64 1.302-2.06 1.47-.169.084-.084.336.084.294.42-.042.84-.042 1.261-.084.21 0 .337.21.21.378a3.823 3.823 0 0 1-.883.756.221.221 0 0 0-.084.294 3.782 3.782 0 0 1-.504.42c-1.094.714 1.808.798 1.808 1.386 0 .756-3.364.21-3.364.966 0 .504 1.598.084 1.598.714 0 .504-3.28.504-2.86 1.218.295.504 1.346-.168 1.514.21.168.378-3.869 2.52-4.247 1.428-.336-1.05-.63-1.47-.883-1.596.042-.546.042-1.092-.084-1.68 0-.084-.042-.252 0-.294.21-.252.462-.504.673-.756a.128.128 0 0 1 .168 0c.378.294.715.924.925.714.21-.168-1.01-1.428-1.892-1.596-.168-.042-.379.042-.505.126-.588.462-1.303.504-2.06.504-2.06-.084-3.743-.798-5.172-1.974a.58.58 0 0 1-.127-.714c.505-.882 1.388-2.604 2.944-2.73.042-.042.715-.756.715.042 0 .84 1.471 1.176 1.009-.336-.42-1.428-1.262-1.638-2.145-1.47-1.093.168-2.186 1.47-3.448 1.47-1.261 0-2.355-1.302-3.448-1.47-.883-.126-1.682.084-2.145 1.47-.462 1.512 1.01 1.176 1.01.336 0-.798.63-.126.715-.042 1.555.126 2.438 1.806 2.943 2.73a.58.58 0 0 1-.126.714c-1.43 1.176-3.112 1.932-5.172 1.974-.757.042-1.472-.042-2.06-.504-.127-.084-.38-.168-.505-.126-.883.168-2.103 1.428-1.893 1.596.21.21.547-.42.926-.714a.128.128 0 0 1 .168 0c.252.252.462.504.673.756a.359.359 0 0 1 0 .294c-.127.546-.127 1.134-.085 1.68-.252.126-.546.588-.883 1.596-.378 1.092-4.415-1.05-4.247-1.428.169-.378 1.22.294 1.514-.21.42-.714-2.86-.714-2.86-1.218.043-.63 1.599-.21 1.599-.714 0-.756-3.364-.21-3.364-.966 0-.63 2.901-.714 1.808-1.386-.168-.084-.337-.252-.505-.42.042-.084 0-.21-.084-.294a3.823 3.823 0 0 1-.883-.756c-.126-.168 0-.42.21-.378.42.042.841.042 1.262.084.168 0 .252-.21.084-.294-.379-.168-1.051-.672-1.724-1.218-1.262-1.008-1.682-2.52-2.187-4.032-1.85-5.796-.715-9.576-.462-10.164.168-.336.588-1.134.126-1.428-.379-.294-.715.336-.967.588-.084.084-.253.042-.295-.042 0-.126 0-.21.042-.294 0-.084.042-.168.042-.252.084-.168.631-1.554 1.094-2.646 0 .168.252.21.336.042.042-.168.126-.294.168-.462.589-1.554 1.346-3.024 2.565-4.242a.318.318 0 0 0 .084-.168c-.084-1.386-1.093-2.688-2.438-3.15H4.54c.841.925 1.724 1.848 1.43 3.234-.042 0-.042 0-.084.042l-.042-.378c-.042-.21-.294-.252-.42-.126A16.364 16.364 0 0 0 3.7 10.342c-.084.126-.294.168-.42.042-.547-.714-.925-1.47-1.22-2.268-.63-1.764-.63-3.57-.126-5.375.126-.462.505-.672.967-.546 1.136.294 2.271.588 3.407.924.504.126 1.009.336 1.555.462.295.084.463.252.59.546.041.084.041.168.083.252.084.168.295.21.42.042.169-.21.295-.42.463-.588.042-.084.168-.126.295-.126 1.093.042 2.144-.21 3.195-.504 1.935-.462 3.7-.966 5.509-1.344.967-.21 1.976-.294 2.986-.42 1.261-.126 3.28-.126 4.541 0 1.01.084 2.018.168 2.986.42 1.808.42 3.574.882 5.34 1.344 1.051.252 2.102.546 3.196.504.084 0 .21.084.294.126.168.21.295.378.463.588.126.168.378.126.42-.042.042-.084.042-.168.084-.252a.856.856 0 0 1 .59-.546c.504-.126 1.008-.336 1.555-.462 1.135-.294 2.27-.63 3.406-.924.463-.126.841.084.967.546.505 1.806.505 3.611-.126 5.375-.294.798-.673 1.554-1.22 2.268-.084.126-.336.126-.42-.042a16.364 16.364 0 0 0-1.724-2.478c-.126-.168-.379-.084-.42.126l-.043.378c-.042 0-.042 0-.084-.042-.294-1.386.589-2.31 1.43-3.233h-.084c-1.346.462-2.355 1.763-2.439 3.15 0 .083.042.125.084.167 1.22 1.218 1.976 2.688 2.565 4.242.042.168.126.294.168.462.042.168.337.126.337-.042.462 1.092 1.009 2.478 1.093 2.646 0 .084.042.168.042.252 0 .084 0 .168.042.294-.126.126-.252.168-.336.042z" fill="#16585A"/><path d="M40.957 17.944c.126-.084.084-.294-.084-.294-.925-.084-2.481-.546-3.322-1.008-.084-.042-.126-.21-.042-.252.21-.21.63-.294.63-.462 0-.168-.126-.21-.21-.21-1.43-.546-4.499-.084-6.013.672a8.26 8.26 0 0 0-.883.504c-.21.084-.462-.126-.336-.336v-.042c.126-.21-.168-.462-.379-.294-.294.294-.546.546-.757.84-.084.084-1.682 2.688-1.64 2.814.085 1.512-.126 2.94-.378 4.41v.294c.042.084.042.168.126.252.925 1.344 1.766 2.688 2.397 4.158.042.042.084.084.084.168-.252-.924-.589-1.848-.883-2.772-.042-.126-.084-.252-.084-.378.126-1.008.168-1.974.042-2.982.589-.378 1.177-.336 1.724-.126 1.976.63 4.121.546 5.509-.294 1.43-.924 2.102-2.898 2.397-3.948.252-.126.42.294.546-.042.084-.21.294-.252.589-.336a1.5 1.5 0 0 0 .967-.336zm-7.737-.21a2.08 2.08 0 0 1 .546-.168c.925-.126 1.304.294 1.43.588.084.21.042 1.512-.462 1.512-.337 0-.673-.252-.841-.378-.084-.084-.127-.168-.084-.294.041-.252.084-.714-.505-.714-.252 0-.337-.42-.084-.546zm3.784 3.234c-.252.42-.63.756-1.051.966-.757.378-2.355.798-4.92.21 0 0-.589-.168-1.22.042-.21.084-.42-.168-.252-.336l.253-.252c.084-.042.126-.126.126-.252-.042-.336-.126-1.092 0-1.848.21.924.799 1.512 1.724 2.016.21.126.505.21.757.21 3.238-.042 4.247-1.932 4.541-3.234.084-.378.042-.756-.168-1.05.21.042.463.126.673.168.084.042.168.126.168.21.042.462.126 1.932-.63 3.15zm-17.24 3.36c-.253-1.47-.463-2.94-.379-4.41 0-.126-1.598-2.73-1.64-2.814a4.549 4.549 0 0 0-.757-.84c-.21-.168-.462.042-.378.294v.042c.126.21-.126.42-.337.294a8.251 8.251 0 0 0-.883-.504c-1.513-.714-4.583-1.176-6.013-.672-.084.042-.21.084-.21.21 0 .168.42.294.63.462.085.084.085.21-.041.252-.883.462-2.44.924-3.322 1.008-.126 0-.21.21-.084.294.294.21.588.336.925.42.294.084.504.126.588.336.169.336.295-.084.547.042.294 1.05.967 3.024 2.397 3.948 1.345.882 3.532.924 5.508.294.547-.168 1.136-.252 1.725.126-.169 1.008-.084 2.016.042 2.982a1.2 1.2 0 0 1-.085.378c-.294.924-.63 1.806-.883 2.772.043-.042.085-.084.085-.168.672-1.47 1.513-2.856 2.396-4.158l.127-.252c0-.042.042-.084 0-.126.084-.084.084-.168.042-.21zm-7.653-6.174c.126-.252.504-.672 1.43-.588.21.042.42.084.546.168.294.126.168.546-.126.546-.589 0-.547.462-.505.714.042.084 0 .21-.084.294-.168.168-.505.42-.841.378-.463 0-.505-1.302-.42-1.512zm5.424 4.032c-.63-.252-1.22-.042-1.22-.042-2.565.588-4.12.168-4.92-.21a2.581 2.581 0 0 1-1.05-.966c-.715-1.176-.673-2.646-.631-3.15 0-.084.084-.168.168-.21.252-.084.462-.126.673-.168a1.484 1.484 0 0 0-.169 1.05c.295 1.302 1.304 3.192 4.542 3.234.252 0 .546-.042.757-.21.883-.504 1.472-1.092 1.724-2.016.126.756.042 1.512 0 1.848 0 .084.042.21.126.252a.714.714 0 0 1 .252.252c.126.168-.042.42-.252.336z" fill="#16585A"/></svg>