<?xml version="1.0" standalone="no"?>
<!DOCTYPE svg PUBLIC "-//W3C//DTD SVG 1.1//EN" "http://www.w3.org/Graphics/SVG/1.1/DTD/svg11.dtd" >
<svg>
<metadata>
Created by FontForge 20090914 at Mon Oct 22 12:21:39 2018
 By www-data
Copyright 1990-2001 Bitstream Inc. All rights reserved.
</metadata>
<defs>
<font id="StymieBT-Medium" horiz-adv-x="1024" >
  <font-face 
    font-family="Stymie Md BT"
    font-weight="400"
    font-stretch="normal"
    units-per-em="2048"
    panose-1="2 6 6 3 2 2 5 2 4 3"
    ascent="1556"
    descent="-492"
    x-height="930"
    cap-height="1475"
    bbox="-342 -483 2384 1972"
    underline-thickness="125"
    underline-position="-135"
    unicode-range="U+0020-U+F002"
  />
<missing-glyph horiz-adv-x="1229" 
d="M102 -362v1806h1024v-1806h-1024zM217 -248h795v1577h-795v-1577z" />
    <glyph glyph-name=".notdef" horiz-adv-x="1229" 
d="M102 -362v1806h1024v-1806h-1024zM217 -248h795v1577h-795v-1577z" />
    <glyph glyph-name="space" unicode=" " horiz-adv-x="561" 
 />
    <glyph glyph-name="exclam" unicode="!" horiz-adv-x="592" 
d="M195 0v264h200v-264h-200zM225 383l-39 1092h217l-38 -1092h-140z" />
    <glyph glyph-name="quotedbl" unicode="&#x22;" horiz-adv-x="590" 
d="M496 1434v-553h-119v553h119zM211 1434v-553h-117v553h117z" />
    <glyph glyph-name="numbersign" unicode="#" horiz-adv-x="1575" 
d="M973 862h-264l-95 -272h263zM922 1456l-166 -471h260l168 471h143l-164 -471h307l-43 -123h-311l-94 -272h330l-43 -123h-332l-166 -469h-145l168 469h-265l-168 -469h-143l166 469h-320l43 123h320l96 272h-342l43 123h344l168 471h146z" />
    <glyph glyph-name="dollar" unicode="$" horiz-adv-x="1124" 
d="M498 858l-0.999023 434.001c-74.667 -4.66699 -133.834 -26.667 -177.501 -66s-65.5 -90.333 -65.5 -153c0 -57.333 20.167 -103.833 60.5 -139.5s101.5 -60.834 183.5 -75.501zM609.001 174.001c84 1.33301 152 24.499 204 69.499s78 103.167 78 174.5
c0 64.667 -23.667 116.834 -71 156.501s-118 66.5 -212 80.5zM608.001 20v-160.999h-110v164c-106.667 6.66699 -196.5 37.334 -269.5 92.001s-125.167 129.667 -156.5 225l145 57c28.667 -64 65.834 -113.833 111.501 -149.5s102.167 -58.834 169.5 -69.501v498
c-136 24.667 -237.667 69.5 -305 134.5s-101 151.167 -101 258.5c0 98 37.667 181.333 113 250s173 107 293 115v139h110v-137c93.333 -12 171.666 -41.833 234.999 -89.5s114 -114.834 152 -201.501l-137 -47c-32.667 60 -70 106.333 -112 139s-88 51 -138 55v-454
c149.333 -28 261.5 -74.667 336.5 -140s112.5 -149.333 112.5 -252c0 -123.333 -40.333 -223.333 -121 -300s-190 -118.667 -328 -126z" />
    <glyph glyph-name="percent" unicode="%" horiz-adv-x="1597" 
d="M993 326c0 -58 20 -107.333 60 -148s88.333 -61 145 -61c58 0 107.333 20.333 148 61s61 90 61 148c0 56.667 -20.333 105.167 -61 145.5s-90 60.5 -148 60.5c-57.333 0 -105.833 -20 -145.5 -60s-59.5 -88.667 -59.5 -146zM852 326
c0 45.333 8.66602 88.834 25.999 130.501s42 78.5 74 110.5c33.333 33.333 70.666 58.833 111.999 76.5s84.666 26.5 129.999 26.5c46 0 89.833 -8.66699 131.5 -26s79.834 -43 114.501 -77c32.667 -32.667 57.834 -69.834 75.501 -111.501s26.5 -84.834 26.5 -129.501
c0 -46.667 -8.66699 -90.667 -26 -132s-42.666 -78.666 -75.999 -111.999c-34 -34.667 -72 -61.167 -114 -79.5s-86 -27.5 -132 -27.5c-45.333 0 -88.5 9.16699 -129.5 27.5s-78.5 44.833 -112.5 79.5c-32.667 34 -57.5 71.667 -74.5 113s-25.5 85 -25.5 131zM173.999 1135
c0 -58.667 20 -108.502 60 -149.502s88.333 -61.5 145 -61.5c57.333 0 106.5 20.5 147.5 61.5s61.5 90.833 61.5 149.5c0 56.667 -20.333 104.834 -61 144.501s-90 59.5 -148 59.5c-57.333 0 -105.833 -19.667 -145.5 -59s-59.5 -87.666 -59.5 -144.999zM32.999 1135
c0 45.333 8.66504 88.835 25.998 130.502s42 78.5 74 110.5c32.667 32.667 69.667 57.667 111 75s85 26 131 26c46.667 0 90.667 -8.5 132 -25.5s79.333 -42.167 114 -75.5c32.667 -32.667 57.834 -69.834 75.501 -111.501s26.5 -84.834 26.5 -129.501
c0 -46.667 -8.66699 -91 -26 -133s-42.666 -79.667 -75.999 -113c-34 -34.667 -72 -61.167 -114 -79.5s-86 -27.5 -132 -27.5c-45.333 0 -88.5 9.16699 -129.5 27.5s-78.5 44.833 -112.5 79.5c-32.667 33.333 -57.5 71 -74.5 113s-25.5 86.333 -25.5 133zM372.997 -24.999
h-123l944 1502h125z" />
    <glyph glyph-name="ampersand" unicode="&#x26;" horiz-adv-x="1239" 
d="M528 1073l84.001 111.002c8 10.667 14.5 23.167 19.5 37.5s7.5 27.166 7.5 38.499c0 35.333 -8.83301 62.833 -26.5 82.5s-42.834 29.5 -75.501 29.5c-28.667 0 -53 -9.83301 -73 -29.5s-30 -43.167 -30 -70.5c0 -10.667 1.83301 -21.334 5.5 -32.001
s10.167 -24 19.5 -40zM797.001 264.002l-297 510.001l-129 -164c-26 -31.333 -45.167 -63 -57.5 -95s-18.5 -65 -18.5 -99c0 -76.667 25 -140.167 75 -190.5s113 -75.5 189 -75.5c46.667 0 90 9.66699 130 29s76 47.666 108 84.999zM1151 0.00292969h-200.997l-59 92
c-48 -41.333 -99.5 -72.5 -154.5 -93.5s-114.167 -31.5 -177.5 -31.5c-135.333 0 -246.333 40.833 -333 122.5s-130 184.834 -130 309.501c0 52.667 10.167 103 30.5 151s55.166 103 104.499 165l177 215l-95 166c-14 24 -25 50.667 -33 80s-12 57.333 -12 84
c0 71.333 25.667 130.333 77 177s116.666 70 195.999 70c72.667 0 135.167 -24 187.5 -72s78.5 -105 78.5 -171c0 -41.333 -10.167 -83.5 -30.5 -126.5s-53.833 -92.5 -100.5 -148.5l-55 -67l286 -494c12.667 31.333 23.667 68 33 110s18.333 95.333 27 160h168
c-4.66699 -89.333 -16.834 -171.333 -36.501 -246s-47.167 -143.334 -82.5 -206.001z" />
    <glyph glyph-name="quotesingle" unicode="'" horiz-adv-x="305" 
d="M211 1434v-553h-117v553h117z" />
    <glyph glyph-name="parenleft" unicode="(" horiz-adv-x="668" 
d="M598 -215l-130.999 -0.00390625c-102.667 124.667 -180.5 259.834 -233.5 405.501s-79.5 295.834 -79.5 450.501c0 156.667 25 308.167 75 454.5s124 283.5 222 411.5h143c-96.667 -126 -169.667 -260.667 -219 -404s-74 -292.666 -74 -447.999
c0 -163.333 24.167 -316.166 72.5 -458.499s123.166 -279.5 224.499 -411.5z" />
    <glyph glyph-name="parenright" unicode=")" horiz-adv-x="668" 
d="M70 -215c100 130.667 174.167 267.168 222.5 409.501s72.5 295.833 72.5 460.5c0 155.333 -24.667 304.666 -74 447.999s-122.333 278 -219 404h143c98 -128.667 172.333 -266.167 223 -412.5s76 -297.5 76 -453.5c0 -152.667 -26.167 -301 -78.5 -445
s-129.833 -281 -232.5 -411h-133z" />
    <glyph glyph-name="asterisk" unicode="*" 
d="M512 991l-178 -262l-119 84l201 248l-293 78l43 139l283 -102v299h124v-299l281 98l49 -133l-297 -80l201 -248l-117 -84z" />
    <glyph glyph-name="plus" unicode="+" horiz-adv-x="1706" 
d="M913 1221v-551h539v-117h-539v-553h-118v553h-541v117h541v551h118z" />
    <glyph glyph-name="comma" unicode="," horiz-adv-x="561" 
d="M123 -182l123 438h196l-149 -438h-170z" />
    <glyph glyph-name="hyphen" unicode="-" horiz-adv-x="676" 
d="M86 383v166h502v-166h-502z" />
    <glyph glyph-name="period" unicode="." horiz-adv-x="561" 
d="M180 0v264h201v-264h-201z" />
    <glyph glyph-name="slash" unicode="/" horiz-adv-x="561" 
d="M23 -190h-119l557 1697h117z" />
    <glyph glyph-name="zero" unicode="0" horiz-adv-x="1124" 
d="M59 727c0 224.667 46.667 405.834 140 543.501s214 206.5 362 206.5s268.667 -68.833 362 -206.5s140 -318.834 140 -543.501s-46.667 -405.834 -140 -543.501s-214 -206.5 -362 -206.5s-268.667 68.833 -362 206.5s-140 318.834 -140 543.501zM561 1311
c-97.333 0 -174.5 -52 -231.5 -156s-85.5 -246 -85.5 -426c0 -179.333 28.5 -320.666 85.5 -423.999s134.167 -155 231.5 -155s174.666 51.667 231.999 155s86 244.666 86 423.999c0 180 -28.667 322 -86 426s-134.666 156 -231.999 156z" />
    <glyph glyph-name="one" unicode="1" horiz-adv-x="1124" 
d="M870 147v-147h-587v147h200v1172h-194v137h381v-1309h200z" />
    <glyph glyph-name="two" unicode="2" horiz-adv-x="1124" 
d="M1042 393l0.000976562 -393.001h-990c1.33301 73.333 23.166 145.333 65.499 216s112.5 150.334 210.5 239.001c35.333 32 91 79 167 141s132.333 109.667 169 143c61.333 57.333 106 111.333 134 162s42 102.667 42 156c0 77.333 -25.833 141 -77.5 191
s-117.5 75 -197.5 75c-83.333 0 -153.666 -26.667 -210.999 -80s-100.333 -132.333 -129 -237l-162 45c39.333 140 102.166 246.333 188.499 319s193.5 109 321.5 109c130 0 237.333 -40.167 322 -120.5s127 -180.833 127 -301.5c0 -159.333 -138.333 -352.333 -415 -579
l-21 -17l-1 -1c-170 -138.667 -270.667 -243 -302 -313h591v246h168z" />
    <glyph glyph-name="three" unicode="3" horiz-adv-x="1124" 
d="M61 371l164 26.001c28 -84.667 70 -148.834 126 -192.501s124.667 -65.5 206 -65.5c92 0 167.5 26 226.5 78s88.5 118.333 88.5 199c0 90 -30 157.5 -90 202.5s-150 67.5 -270 67.5c-16 0 -28.333 -0.166992 -37 -0.5s-16.667 -0.833008 -24 -1.5v154
c5.33301 0 13 -0.333008 23 -1s18 -1 24 -1c101.333 0 179.833 21.5 235.5 64.5s83.5 103.833 83.5 182.5c0 71.333 -23.333 129.5 -70 174.5s-107.334 67.5 -182.001 67.5c-73.333 0 -135.666 -21 -186.999 -63s-90.666 -104.333 -117.999 -187l-156 37
c34.667 118 92 208.667 172 272s177 95 291 95c125.333 0 227.333 -35.5 306 -106.5s118 -161.833 118 -272.5c0 -66.667 -17.5 -127.334 -52.5 -182.001s-87.833 -103.334 -158.5 -146.001c91.333 -26.667 160.666 -70.167 207.999 -130.5s71 -135.5 71 -225.5
c0 -125.333 -47.167 -230.166 -141.5 -314.499s-212.5 -126.5 -354.5 -126.5c-130.667 0 -239.5 34.333 -326.5 103s-145.5 166.334 -175.5 293.001z" />
    <glyph glyph-name="four" unicode="4" horiz-adv-x="1124" 
d="M995 147v-147h-528v147h190v238h-618v137l696 957h94v-949h234v-145h-234v-238h166zM657 530l0.000976562 482c0 37.333 1.16699 69.5 3.5 96.5s6.16602 52.833 11.499 77.5c-12 -28 -26 -55.667 -42 -83s-34.333 -55 -55 -83l-358 -490h440z" />
    <glyph glyph-name="five" unicode="5" horiz-adv-x="1124" 
d="M61 348l164 55c28.667 -86.667 71.5 -153 128.5 -199s125.5 -69 205.5 -69c94.667 0 172 31.333 232 94s90 143.334 90 242.001c0 97.333 -29.667 177 -89 239s-135.666 93 -228.999 93c-52 0 -102.333 -11 -151 -33s-99.334 -56.667 -152.001 -104l-133 82l66 708h786
v-354h-172v209h-465l-41 -432c50 28 99.167 49 147.5 63s96.166 21 143.499 21c132.667 0 244.667 -47.333 336 -142s137 -210.667 137 -348c0 -144.667 -48 -263.834 -144 -357.501s-218.667 -140.5 -368 -140.5c-122 0 -225.667 32.5 -311 97.5
s-145.666 156.833 -180.999 275.5z" />
    <glyph glyph-name="six" unicode="6" horiz-adv-x="1124" 
d="M262 475c0 -99.333 29.332 -181.166 87.999 -245.499s133 -96.5 223 -96.5c90.667 0 165.334 31.5 224.001 94.5s88 143.5 88 241.5c0 99.333 -28.833 180.166 -86.5 242.499s-132.167 93.5 -223.5 93.5c-90 0 -164.667 -31 -224 -93s-89 -141 -89 -237zM241.999 793
c52 55.333 108.833 97.166 170.5 125.499s126.834 42.5 195.501 42.5c128.667 0 237 -46.833 325 -140.5s132 -210.167 132 -349.5c0 -143.333 -47 -261.833 -141 -355.5s-213.667 -140.5 -359 -140.5c-157.333 0 -281.333 60.333 -372 181s-136 287 -136 499
c0 251.333 50.5 451.833 151.5 601.5s234.833 224.5 401.5 224.5c97.333 0 180.833 -26.167 250.5 -78.5s124.167 -129.5 163.5 -231.5l-164 -43c-25.333 66.667 -59.333 116.834 -102 150.501s-93.334 50.5 -152.001 50.5c-102 0 -185 -47 -249 -141
s-102.333 -225.667 -115 -395z" />
    <glyph glyph-name="seven" unicode="7" horiz-adv-x="1124" 
d="M776 147v-147h-534v147h168l440 1151h-608v-264h-166v422h973v-129l-451 -1180h178z" />
    <glyph glyph-name="eight" unicode="8" horiz-adv-x="1124" 
d="M889 414c0 78 -31 143.168 -93 195.501s-140.333 78.5 -235 78.5c-96 0 -174.667 -26.333 -236 -79s-92 -119.667 -92 -201c0 -80.667 30.333 -146.334 91 -197.001s139.667 -76 237 -76c99.333 0 178.833 25.5 238.5 76.5s89.5 118.5 89.5 202.5zM305 774.001
c-62.667 35.333 -110.668 80.5 -144.001 135.5s-50 117.167 -50 186.5c0 110.667 42.333 202.167 127 274.5s192.334 108.5 323.001 108.5s238.167 -36.167 322.5 -108.5s126.5 -163.833 126.5 -274.5c0 -70 -16.5 -132.5 -49.5 -187.5s-80.833 -99.833 -143.5 -134.5
c86 -44 149.167 -95.167 189.5 -153.5s60.5 -127.166 60.5 -206.499c0 -128.667 -46.667 -233.667 -140 -315s-215.333 -122 -366 -122s-272.667 40.667 -366 122s-140 186.333 -140 315c0 79.333 20.333 148.166 61 206.499s103.667 109.5 189 153.5zM843.999 1085
c0 75.333 -25.667 135.165 -77 179.498s-120.666 66.5 -207.999 66.5s-156.333 -22 -207 -66s-76 -104 -76 -180c0 -71.333 26.333 -129.666 79 -174.999s120.667 -68 204 -68s151.666 22.833 204.999 68.5s80 103.834 80 174.501z" />
    <glyph glyph-name="nine" unicode="9" horiz-adv-x="1124" 
d="M860 985c0 96.667 -29.666 177.165 -88.999 241.498s-133.333 96.5 -222 96.5c-90 0 -164.333 -31.833 -223 -95.5s-88 -144.5 -88 -242.5c0 -99.333 28.667 -180.166 86 -242.499s131.666 -93.5 222.999 -93.5s166.333 31.333 225 94s88 143.334 88 242.001z
M881.001 661.998c-52.667 -56 -109.831 -98 -171.498 -126s-126.834 -42 -195.501 -42c-128.667 0 -237 47 -325 141s-132 210.667 -132 350c0 143.333 47 261.5 141 354.5s213.667 139.5 359 139.5c158 0 282.167 -60.167 372.5 -180.5s135.5 -286.833 135.5 -499.5
c0 -251.333 -50.333 -451.5 -151 -600.5s-234.667 -223.5 -402 -223.5c-97.333 0 -180.833 26 -250.5 78s-124.167 128.667 -163.5 230l164 45c24.667 -66.667 58.667 -117.167 102 -151.5s94.666 -51.5 153.999 -51.5c102.667 0 185.5 46.5 248.5 139.5
s101.167 225.5 114.5 397.5z" />
    <glyph glyph-name="colon" unicode=":" horiz-adv-x="592" 
d="M197 666v264h200v-264h-200zM197 0v264h200v-264h-200z" />
    <glyph glyph-name="semicolon" unicode=";" horiz-adv-x="592" 
d="M113 -182l123 438h194l-147 -438h-170zM233 666v264h201v-264h-201z" />
    <glyph glyph-name="less" unicode="&#x3c;" horiz-adv-x="1706" 
d="M1442 1018l-1000 -408l1000 -405v-129l-1178 483v103l1178 483v-127z" />
    <glyph glyph-name="equal" unicode="=" horiz-adv-x="1706" 
d="M1452 477v-117h-1198v117h1198zM1452 860v-117h-1198v117h1198z" />
    <glyph glyph-name="greater" unicode="&#x3e;" horiz-adv-x="1706" 
d="M1442 662v-103l-1178 -483v129l1000 405l-1000 408v127z" />
    <glyph glyph-name="question" unicode="?" horiz-adv-x="1014" 
d="M547 391l-170 0.000976562v447h29c95.333 0 170.333 22.333 225 67s82 106.334 82 185.001c0 72 -21.5 130.833 -64.5 176.5s-98.167 68.5 -165.5 68.5c-68.667 0 -124.167 -21.833 -166.5 -65.5s-65.833 -104.5 -70.5 -182.5h-172c4 125.333 44.667 226.666 122 303.999
s176 116 296 116c116 0 213.5 -39.333 292.5 -118s118.5 -174.334 118.5 -287.001c0 -111.333 -31.667 -203.833 -95 -277.5s-150.333 -119.167 -261 -136.5v-297zM362 0.000976562v264h199v-264h-199z" />
    <glyph glyph-name="at" unicode="@" horiz-adv-x="2048" 
d="M1292 844l57.998 121h110l-141 -568c-4 -16 -7 -30.667 -9 -44s-3 -25.333 -3 -36c0 -29.333 9.16699 -51.666 27.5 -66.999s45.833 -23 82.5 -23c30 0 63.333 8 100 24s71 37.333 103 64c59.333 50.667 105.833 116.167 139.5 196.5s50.5 165.166 50.5 254.499
c0 177.333 -65.167 320 -195.5 428s-303.166 162 -518.499 162c-112 0 -216.167 -17.333 -312.5 -52s-182.833 -85.667 -259.5 -153c-93.333 -81.333 -163.666 -175.5 -210.999 -282.5s-71 -225.167 -71 -354.5c0 -115.333 20.167 -216.666 60.5 -303.999
s102.5 -164 186.5 -230c67.333 -54 147.333 -95.5 240 -124.5s191 -43.5 295 -43.5c114.667 0 226.167 16.167 334.5 48.5s207.166 78.833 296.499 139.5l45 -66c-98 -72.667 -202.333 -127.667 -313 -165s-226.334 -56 -347.001 -56c-127.333 0 -243.333 15.5 -348 46.5
s-196.667 77.167 -276 138.5c-102 78 -178 168.667 -228 272s-75 220.666 -75 351.999c0 108.667 16.833 211.667 50.5 309s83.5 187 149.5 269c97.333 117.333 213.833 206.333 349.5 267s286.834 91 453.501 91c110 0 213.667 -14.5 311 -43.5s180 -70.5 248 -124.5
c86 -66 151.167 -142.667 195.5 -230s66.5 -181.333 66.5 -282c0 -112.667 -20.833 -215.5 -62.5 -308.5s-102.5 -171.833 -182.5 -236.5c-46 -36.667 -95.5 -64.5 -148.5 -83.5s-107.5 -28.5 -163.5 -28.5c-66 0 -115.5 13 -148.5 39s-49.5 64.667 -49.5 116
c0 2 0.333008 5.66699 1 11s1 9.33301 1 12c-34 -58 -76.333 -102.167 -127 -132.5s-107.334 -45.5 -170.001 -45.5c-102 0 -179.833 28.333 -233.5 85s-80.5 139 -80.5 247c0 153.333 45.667 283 137 389s202 159 332 159c60.667 0 111.834 -13.167 153.501 -39.5
s73.834 -65.5 96.501 -117.5zM1202 473l59.999 242.001c-11.333 60 -35.333 106.667 -72 140s-81.667 50 -135 50c-97.333 0 -178.666 -43.833 -243.999 -131.5s-98 -196.834 -98 -327.501c0 -73.333 17 -129.833 51 -169.5s82.333 -59.5 145 -59.5
c68 0 129.167 23.5 183.5 70.5s90.833 108.833 109.5 185.5z" />
    <glyph glyph-name="A" unicode="A" horiz-adv-x="1464" 
d="M928 655l-150 453c-11.333 35.333 -21.5 71.5 -30.5 108.5s-17.167 75.167 -24.5 114.5c-6.66699 -38 -14.667 -75.833 -24 -113.5s-20.333 -75.5 -33 -113.5l-144 -449h406zM27 0v152h133l401 1179h-168v144h666v-144h-168l403 -1179h129v-152h-505v152h176l-117 360
h-506l-115 -360h174v-152h-503z" />
    <glyph glyph-name="B" unicode="B" horiz-adv-x="1331" 
d="M416 150h247.999c118.667 0 209.667 24 273 72s95 116.667 95 206c0 98.667 -30.667 172.167 -92 220.5s-155.666 72.5 -282.999 72.5h-241v-571zM415.999 858l234.999 -0.000976562c100.667 0 179.834 22.167 237.501 66.5s86.5 104.833 86.5 181.5
c0 74.667 -26.5 130.834 -79.5 168.501s-131.833 56.5 -236.5 56.5h-243v-473zM48.998 -0.000976562v152.002h172v1179h-172v144h703c127.333 0 229 -32 305 -96s114 -148.333 114 -253c0 -68.667 -21 -131.834 -63 -189.501s-98 -99.5 -168 -125.5v-14
c93.333 -30.667 165.5 -78.834 216.5 -144.501s76.5 -142.5 76.5 -230.5c0 -60.667 -11.5 -117.5 -34.5 -170.5s-56.5 -99.167 -100.5 -138.5c-44 -40.667 -95.667 -69.667 -155 -87s-145 -26 -257 -26h-637z" />
    <glyph glyph-name="C" unicode="C" horiz-adv-x="1575" 
d="M1296 475h183.001c-47.333 -162.667 -127.5 -287.667 -240.5 -375s-251.5 -131 -415.5 -131c-84 0 -161 10.333 -231 31s-134.333 52 -193 94c-104 74.667 -182.5 165.5 -235.5 272.5s-79.5 229.167 -79.5 366.5c0 93.333 11.5 178.833 34.5 256.5
s57.833 148.5 104.5 212.5c74 101.333 160.5 178.166 259.5 230.499s207.833 78.5 326.5 78.5c85.333 0 165.666 -13.5 240.999 -40.5s144.333 -67.167 207 -120.5v125h164v-459h-161v129c-63.333 64.667 -130.833 112.834 -202.5 144.501s-149.167 47.5 -232.5 47.5
c-163.333 0 -294.833 -53.5 -394.5 -160.5s-149.5 -248.5 -149.5 -424.5c0 -181.333 51 -327.5 153 -438.5s235.333 -166.5 400 -166.5c104.667 0 198.167 29 280.5 87s142.833 138.333 181.5 241z" />
    <glyph glyph-name="D" unicode="D" horiz-adv-x="1470" 
d="M416 147h173.999c182 0 327.167 55.333 435.5 166s162.5 259 162.5 445c0 183.333 -54.667 324.333 -164 423s-265.666 148 -468.999 148h-139v-1182zM48.999 0l0.00195312 152.001h172v1177h-172v146h549c111.333 0 198.166 -7.33301 260.499 -22
s122.166 -38.334 179.499 -71.001c110 -62 196 -149.167 258 -261.5s93 -237.5 93 -375.5s-31.5 -263.167 -94.5 -375.5s-152.5 -202.833 -268.5 -271.5c-57.333 -34.667 -121.833 -59.667 -193.5 -75s-162.167 -23 -271.5 -23h-512z" />
    <glyph glyph-name="E" unicode="E" horiz-adv-x="1255" 
d="M49 0v152h172v1179h-172v144h1135v-375h-176v231h-592v-461h252v179h172v-545h-172v209h-252v-561h592v258h176v-410h-1135z" />
    <glyph glyph-name="F" unicode="F" horiz-adv-x="1159" 
d="M49 0v152h172v1179h-172v144h1053v-375h-180v231h-504v-459h203v177h167v-549h-167v215h-203v-563h178v-152h-547z" />
    <glyph glyph-name="G" unicode="G" horiz-adv-x="1690" 
d="M1307 514l-383.003 0.000976562v158h708v-158h-164v-514h-161v180c-62 -72.667 -131.333 -126 -208 -160s-166.667 -51 -270 -51c-88 0 -167.5 10.167 -238.5 30.5s-134.833 51.166 -191.5 92.499c-104 75.333 -182.5 167 -235.5 275s-79.5 230 -79.5 366
c0 94 11.333 179.833 34 257.5s57 148.167 103 211.5c74 101.333 160.833 178.166 260.5 230.499s208.834 78.5 327.501 78.5c92 0 175.5 -13.167 250.5 -39.5s145.167 -66.833 210.5 -121.5v125h166v-455h-166v125c-65.333 64.667 -134.166 112.834 -206.499 144.501
s-150.5 47.5 -234.5 47.5c-164.667 0 -297.167 -53.5 -397.5 -160.5s-150.5 -248.5 -150.5 -424.5c0 -181.333 51 -327.5 153 -438.5s235.333 -166.5 400 -166.5c112.667 0 211.834 33.167 297.501 99.5s144.167 155.5 175.5 267.5z" />
    <glyph glyph-name="H" unicode="H" horiz-adv-x="1462" 
d="M49 0v152h172v1179h-172v144h547v-144h-180v-471h631v471h-181v144h549v-144h-172v-1179h172v-152h-549v152h181v553h-631v-553h180v-152h-547z" />
    <glyph glyph-name="I" unicode="I" horiz-adv-x="645" 
d="M49 0v152h172v1179h-172v144h547v-144h-180v-1179h180v-152h-547z" />
    <glyph glyph-name="J" unicode="J" horiz-adv-x="645" 
d="M422 125c0 -124.667 -29.333 -215.167 -88 -271.5s-152.334 -84.5 -281.001 -84.5c-6 0 -12.5 0.166992 -19.5 0.5s-18.167 1.5 -33.5 3.5v175c8.66699 -1.33301 18 -2.5 28 -3.5s19.667 -1.5 29 -1.5c64.667 0 108.834 12.167 132.501 36.5s35.5 74.833 35.5 151.5v1200
h-172v144h547v-144h-178v-1206z" />
    <glyph glyph-name="K" unicode="K" horiz-adv-x="1350" 
d="M49 0v152h172v1179h-172v144h549v-144h-182v-543h26l490 543h-152v144h523v-144h-138l-526 -573l528 -606h136v-152h-496v152h123l-486 567h-28v-567h182v-152h-549z" />
    <glyph glyph-name="L" unicode="L" horiz-adv-x="1126" 
d="M49 0v152h172v1179h-172v144h547v-144h-180v-1179h473v292h170v-444h-1010z" />
    <glyph glyph-name="M" unicode="M" horiz-adv-x="1800" 
d="M461 1159c-8.66699 22.667 -18.001 49.168 -28.001 79.501s-20 62.5 -30 96.5c2 -20 3.33301 -42 4 -66s1 -60.667 1 -110v-1007h188v-152h-547v152h172v1179h-172v144h475l324 -861c12 -30.667 22.167 -60 30.5 -88s15.166 -55.333 20.499 -82
c7.33301 32.667 14.833 62 22.5 88s15.834 50.667 24.501 74l334 869h471v-144h-176v-1179h176v-152h-551v152h189v1007c0 14 0.5 35.833 1.5 65.5s2.5 66.5 4.5 110.5c-11.333 -42.667 -21.666 -79.334 -30.999 -110.001s-17 -52.667 -23 -66l-395 -1030h-98z" />
    <glyph glyph-name="N" unicode="N" horiz-adv-x="1454" 
d="M49 0v152h172v1179h-172v144h393l545 -971c14.667 -26 28.667 -53.333 42 -82s26 -58.667 38 -90c-5.33301 30 -9.33301 63.5 -12 100.5s-4 80.5 -4 130.5v768h-166v144h530v-144h-174v-1364h-160l-608 1088c-14 25.333 -27.667 52.333 -41 81s-26.333 59 -39 91
c6 -30 10.333 -63.667 13 -101s4 -81 4 -131v-843h186v-152h-547z" />
    <glyph glyph-name="O" unicode="O" horiz-adv-x="1690" 
d="M285 735c0 -78.667 14.335 -153.666 43.002 -224.999s69.667 -133.333 123 -186c53.333 -54.667 114 -96.334 182 -125.001s139.667 -43 215 -43c158 0 290.333 55.833 397 167.5s160 250.834 160 417.501c0 83.333 -11.5 156.666 -34.5 219.999
s-59.833 123.333 -110.5 180c-56.667 62.667 -118.834 109.667 -186.501 141s-140.834 47 -219.501 47c-74 0 -146 -15 -216 -45s-131.667 -72.333 -185 -127c-56 -56 -98 -119.167 -126 -189.5s-42 -147.833 -42 -232.5zM82.002 737.001
c0 110 19.668 213.003 59.001 309.003s96 180 170 252c71.333 69.333 153.166 121.833 245.499 157.5s192.166 53.5 299.499 53.5c105.333 0 204.5 -19.333 297.5 -58s175.5 -95 247.5 -169c70 -72 122.333 -152.833 157 -242.5s52 -189.834 52 -300.501
c0 -104 -18.167 -201.833 -54.5 -293.5s-89.166 -173.834 -158.499 -246.501c-74.667 -78 -158 -136.167 -250 -174.5s-193.667 -57.5 -305 -57.5c-107.333 0 -205.166 17.667 -293.499 53s-168.833 88.666 -241.5 159.999c-72.667 72 -128.334 155.833 -167.001 251.5
s-58 197.5 -58 305.5z" />
    <glyph glyph-name="P" unicode="P" horiz-adv-x="1237" 
d="M416 715l266 -0.000976562c94 0 166.667 26.333 218 79s77 127.334 77 224.001c0 110 -30.833 189.667 -92.5 239s-161.167 74 -298.5 74h-170v-616zM49 -0.000976562l-0.000976562 152.001h172v1179h-172v144h606c165.333 0 293.5 -39.833 384.5 -119.5
s136.5 -190.834 136.5 -333.501c0 -74.667 -14.667 -143.5 -44 -206.5s-71.333 -117.167 -126 -162.5c-40 -32.667 -86.667 -56.167 -140 -70.5s-123.666 -21.5 -210.999 -21.5h-239v-409h184v-152h-551z" />
    <glyph glyph-name="Q" unicode="Q" horiz-adv-x="1690" 
d="M1481 -256c-32.667 -14.667 -64.3311 -25.502 -94.998 -32.502s-62 -10.5 -94 -10.5c-58.667 0 -150.5 16.333 -275.5 49s-220.167 49 -285.5 49c-28.667 0 -60.334 -3.83301 -95.001 -11.5s-72.667 -19.5 -114 -35.5l-49 158c37.333 16.667 74.5 29.334 111.5 38.001
s73.5 13 109.5 13h25v14c-190.667 32 -344.5 118 -461.5 258s-175.5 308 -175.5 504c0 110.667 19.5 213.667 58.5 309s95.833 179.333 170.5 252c71.333 69.333 153.166 121.833 245.499 157.5s192.166 53.5 299.499 53.5c105.333 0 204.5 -19.333 297.5 -58
s175.5 -95 247.5 -169c70 -72 122.333 -152.833 157 -242.5s52 -189.834 52 -300.501c0 -127.333 -27.167 -245.166 -81.5 -353.499s-132.5 -200.5 -234.5 -276.5c-63.333 -47.333 -132.5 -82.833 -207.5 -106.5s-155.833 -35.5 -242.5 -35.5v-12
c37.333 -6 107 -20.5 209 -43.5s181.667 -34.5 239 -34.5c31.333 0 60.833 3.33301 88.5 10s52.834 16.334 75.501 29.001zM285.003 740.998c0 -170.667 54.501 -313 163.501 -427s245.5 -171 409.5 -171c75.333 0 147.5 16.167 216.5 48.5s129.833 78.5 182.5 138.5
c48.667 54.667 85.5 116.834 110.5 186.501s37.5 144.5 37.5 224.5c0 85.333 -11.5 160.166 -34.5 224.499s-59.833 125.5 -110.5 183.5c-56.667 63.333 -118.834 110.833 -186.501 142.5s-140.834 47.5 -219.501 47.5c-74 0 -145.833 -15.167 -215.5 -45.5
s-131.5 -73.833 -185.5 -130.5c-55.333 -57.333 -97.166 -121.5 -125.499 -192.5s-42.5 -147.5 -42.5 -229.5z" />
    <glyph glyph-name="R" unicode="R" horiz-adv-x="1350" 
d="M416 848h223.001c112 0 196.333 22.167 253 66.5s85 110.166 85 197.499c0 68.667 -23.833 122.334 -71.5 161.001s-113.834 58 -198.501 58h-291v-483zM416.001 705l-0.000976562 -553.001h182v-152h-549v152h172v1179h-172v144h549c116 0 202.167 -3.33301 258.5 -10
s99.833 -17.667 130.5 -33c60.667 -30 107.667 -72 141 -126s50 -115.333 50 -184c0 -95.333 -24.5 -172.666 -73.5 -231.999s-118.167 -95.333 -207.5 -108v-10c74.667 -14 129.167 -45 163.5 -93s51.5 -117.333 51.5 -208v-319h172v-152h-366v449
c0 103.333 -21.167 171.833 -63.5 205.5s-146.166 50.5 -311.499 50.5h-127z" />
    <glyph glyph-name="S" unicode="S" horiz-adv-x="1237" 
d="M90 0l0.000976562 512.004h160v-190c65.333 -58.667 131 -102.5 197 -131.5s133.333 -43.5 202 -43.5c94 0 169.5 23.167 226.5 69.5s85.5 107.166 85.5 182.499c0 64 -22.667 117.167 -68 159.5s-115 75.166 -209 98.499l-207 54
c-122.667 31.333 -217.5 82.5 -284.5 153.5s-100.5 155.5 -100.5 253.5c0 116 42.833 210.167 128.5 282.5s197.834 108.5 336.501 108.5c65.333 0 127.5 -11.5 186.5 -34.5s114.167 -57.167 165.5 -102.5v103h154v-428h-154v114c-46.667 59.333 -100 104.166 -160 134.499
s-125.333 45.5 -196 45.5c-80 0 -144.333 -19.333 -193 -58s-73 -89.667 -73 -153c0 -58.667 20.167 -105.334 60.5 -140.001s117.166 -67 230.499 -97l184 -49c126 -34.667 222.667 -89 290 -163s101 -163 101 -267c0 -132.667 -46 -240.667 -138 -324
s-211.333 -125 -358 -125c-75.333 0 -146.333 12.5 -213 37.5s-131.334 63.167 -194.001 114.5v-117h-160z" />
    <glyph glyph-name="T" unicode="T" horiz-adv-x="1239" 
d="M1159 1475v-402h-170v258h-272v-1179h172v-152h-539v152h170v1179h-272v-258h-170v402h1081z" />
    <glyph glyph-name="U" unicode="U" horiz-adv-x="1456" 
d="M596 1475l-0.000976562 -143.999h-178v-835c0 -118.667 26.167 -206.834 78.5 -264.501s131.833 -86.5 238.5 -86.5c102.667 0 179.834 28 231.501 84s77.5 138.667 77.5 248v854h-178v144h547v-144h-172v-827c0 -174 -44.5 -306.667 -133.5 -398
s-218.5 -137 -388.5 -137c-160 0 -282.667 46.833 -368 140.5s-128 228.5 -128 404.5v817h-176v144h549z" />
    <glyph glyph-name="V" unicode="V" horiz-adv-x="1348" 
d="M748 -33l-150 0.000976562l-416 1364h-147v144h493v-144h-157l262 -856c10 -33.333 18.333 -65.333 25 -96s12 -60.667 16 -90c1.33301 20.667 5 44.167 11 70.5s16.667 64.166 32 113.499l264 858h-166v144h496v-144h-144z" />
    <glyph glyph-name="W" unicode="W" horiz-adv-x="2021" 
d="M1044 1475l282.998 -1002c13.333 -48 22.833 -85.333 28.5 -112s9.16699 -50.667 10.5 -72c4 33.333 9.33301 65.333 16 96s14.334 60.667 23.001 90l248 856h-158v144h481v-144h-135l-397 -1364h-139l-261 930c-10 37.333 -18.167 71.333 -24.5 102
s-10.833 59.334 -13.5 86.001c-2.66699 -24.667 -6.83398 -50.834 -12.501 -78.501s-14.5 -62.834 -26.5 -105.501l-262 -934h-140l-397 1364h-133v144h483v-144h-160l246 -856c8.66699 -29.333 16.334 -59.333 23.001 -90s12 -62.667 16 -96
c2 22.667 5.83301 47.5 11.5 74.5s14.834 63.5 27.501 109.5l285 1002h77z" />
    <glyph glyph-name="X" unicode="X" horiz-adv-x="1350" 
d="M29 0v152h164l372 581l-342 598h-184v144h526v-144h-149l260 -424l280 424h-194v144h543v-144h-156l-381 -575l377 -604h160v-152h-543v152h164l-264 426l-273 -426h176v-152h-536z" />
    <glyph glyph-name="Y" unicode="Y" horiz-adv-x="1352" 
d="M403 0v152h170v526l-362 653h-170v144h534v-144h-172l273 -489l270 489h-170v144h531v-144h-174l-365 -653v-526h172v-152h-537z" />
    <glyph glyph-name="Z" unicode="Z" horiz-adv-x="1126" 
d="M1063 0h-1038v135l802 1198h-600v-252h-170v394h1004v-117l-805 -1206h629v309h178v-461z" />
    <glyph glyph-name="bracketleft" unicode="[" horiz-adv-x="668" 
d="M592 -199h-428v1674h428v-115h-270v-1446h270v-113z" />
    <glyph glyph-name="backslash" unicode="\" horiz-adv-x="561" 
d="M578 -190h-117l-557 1697h119z" />
    <glyph glyph-name="bracketright" unicode="]" horiz-adv-x="668" 
d="M76 1475h430v-1674h-430v113h272v1446h-272v115z" />
    <glyph glyph-name="asciicircum" unicode="^" horiz-adv-x="2048" 
d="M1104 1458l520 -557h-158l-442 438l-442 -438h-160l520 557h162z" />
    <glyph glyph-name="underscore" unicode="_" 
d="M1024 -365v-118h-1024v118h1024z" />
    <glyph glyph-name="grave" unicode="`" 
d="M649 1069h-106l-281 348h178z" />
    <glyph glyph-name="a" unicode="a" horiz-adv-x="1118" 
d="M498 510c-74 0 -132.832 -18.001 -176.499 -54.001s-65.5 -84.333 -65.5 -145c0 -59.333 22.333 -107.166 67 -143.499s103.667 -54.5 177 -54.5s132.166 18.333 176.499 55s66.5 85 66.5 145c0 58.667 -22.333 106.167 -67 142.5s-104 54.5 -178 54.5zM201.001 886.999
c48 23.333 99.5029 41 154.503 53s111.833 18 170.5 18c135.333 0 234 -30.333 296 -91s93 -158 93 -292v-434h150v-141h-311v84c-44.667 -37.333 -91.834 -65.5 -141.501 -84.5s-100.834 -28.5 -153.501 -28.5c-114.667 0 -206.834 31.5 -276.501 94.5
s-104.5 145.5 -104.5 247.5c0 101.333 34.667 184 104 248s159 96 269 96c48.667 0 97 -8.33301 145 -25s97 -43 147 -79v92c0 57.333 -18.833 100.333 -56.5 129s-94.5 43 -170.5 43c-44 0 -86.833 -5.16699 -128.5 -15.5s-81.5 -25.5 -119.5 -45.5z" />
    <glyph glyph-name="b" unicode="b" horiz-adv-x="1235" 
d="M375 465c0 -101.333 28.5 -184 85.5 -248s129.5 -96 217.5 -96c88.667 0 161.334 32 218.001 96s85 146.667 85 248s-28.333 184.333 -85 249s-129.334 97 -218.001 97c-88 0 -160.5 -32.333 -217.5 -97s-85.5 -147.667 -85.5 -249zM57 0v137.001h160v1190h-160v137h330
v-657c45.333 50.667 94.333 88.5 147 113.5s109.667 37.5 171 37.5c129.333 0 237 -46.667 323 -140s129 -211 129 -353c0 -143.333 -42.667 -261.5 -128 -354.5s-193.333 -139.5 -324 -139.5c-62.667 0 -122 14.167 -178 42.5s-108 70.166 -156 125.499v-139h-314z" />
    <glyph glyph-name="c" unicode="c" horiz-adv-x="1020" 
d="M866 287l103.001 -94c-64 -74.667 -131.333 -130.667 -202 -168s-144.667 -56 -222 -56c-137.333 0 -250.166 46 -338.499 138s-132.5 209.333 -132.5 352c0 143.333 43.5 262.333 130.5 357s194.167 142 321.5 142c53.333 0 103.166 -7.83301 149.499 -23.5
s90.166 -39.834 131.499 -72.501v68h127v-316h-127v84c-32 38.667 -69.5 68.167 -112.5 88.5s-88.833 30.5 -137.5 30.5c-88.667 0 -161.667 -33.167 -219 -99.5s-86 -151.166 -86 -254.499c0 -100 29.167 -182 87.5 -246s132.833 -96 223.5 -96c50 0 99 13 147 39
s100 68.333 156 127z" />
    <glyph glyph-name="d" unicode="d" horiz-adv-x="1239" 
d="M858 465c0 101.333 -28.167 184.333 -84.5 249s-128.5 97 -216.5 97c-88.667 0 -161.334 -32.333 -218.001 -97s-85 -147.667 -85 -249s28.333 -184 85 -248s129.334 -96 218.001 -96c88 0 160.167 32 216.5 96s84.5 146.667 84.5 248zM688 1464h330.001v-1327h160v-137
h-316v139c-48.667 -56 -100.667 -98 -156 -126s-114 -42 -176 -42c-130.667 0 -238.667 46.5 -324 139.5s-128 211.167 -128 354.5c0 142 43 259.667 129 353s193.667 140 323 140c61.333 0 118.166 -12.5 170.499 -37.5s101.5 -62.833 147.5 -113.5v520h-160v137z" />
    <glyph glyph-name="e" unicode="e" horiz-adv-x="1114" 
d="M254 547h614.002c-15.333 84 -49.833 150 -103.5 198s-119.5 72 -197.5 72c-80.667 0 -148.334 -23.5 -203.001 -70.5s-91.334 -113.5 -110.001 -199.5zM864.002 274l127.001 -67c-52 -78.667 -113.833 -137.667 -185.5 -177s-153.167 -59 -244.5 -59
c-140.667 0 -257.334 46.333 -350.001 139s-139 209 -139 349c0 140.667 46.667 258.667 140 354s208.333 143 345 143c146 0 263.333 -47.5 352 -142.5s133 -221.5 133 -379.5v-20h-790c10 -92 43.667 -164.833 101 -218.5s130 -80.5 218 -80.5c60 0 114 13 162 39
s91.667 66 131 120z" />
    <glyph glyph-name="f" unicode="f" horiz-adv-x="659" 
d="M408 141l167 -0.000976562v-141h-499v141h157v652h-157v137h157v200c0 120.667 23.333 206.834 70 258.501s124 77.5 232 77.5c14 0 24.833 -0.166992 32.5 -0.5s14.5 -0.833008 20.5 -1.5v-137h-25c-58.667 0 -99.167 -12.833 -121.5 -38.5s-33.5 -74.167 -33.5 -145.5
v-213h167v-137h-167v-652z" />
    <glyph glyph-name="g" unicode="g" horiz-adv-x="1237" 
d="M252 465c0 -101.333 28.5 -184.333 85.5 -249s129.5 -97 217.5 -97s160.5 32.333 217.5 97s85.5 147.667 85.5 249c0 100.667 -28.5 183.167 -85.5 247.5s-129.5 96.5 -217.5 96.5s-160.5 -32.167 -217.5 -96.5s-85.5 -146.833 -85.5 -247.5zM346 -217
c35.333 -8 68.499 -13.833 99.499 -17.5s61.5 -5.5 91.5 -5.5c111.333 0 191.333 22.333 240 67s73 118 73 220c0 18.667 -0.166992 33 -0.5 43s-0.833008 20 -1.5 30c-44.667 -49.333 -93.667 -86.5 -147 -111.5s-111 -37.5 -173 -37.5
c-129.333 0 -236.666 46.5 -321.999 139.5s-128 210.5 -128 352.5c0 143.333 42.333 261.333 127 354s192.334 139 323.001 139c62.667 0 122 -13.667 178 -41s108 -68 156 -122v137h316v-139h-160v-730c0 -78.667 -3.66699 -136.5 -11 -173.5s-19.333 -69.833 -36 -98.5
c-34.667 -60 -88.5 -105.333 -161.5 -136s-163.833 -46 -272.5 -46c-34.667 0 -70.334 2.33301 -107.001 7s-75 11.667 -115 21z" />
    <glyph glyph-name="h" unicode="h" horiz-adv-x="1233" 
d="M563 0h-497.001v141h157v1186h-157v137h331v-667c57.333 56 113.333 96.833 168 122.5s112.667 38.5 174 38.5c102 0 176.333 -31.167 223 -93.5s70 -162.833 70 -301.5v-422h148v-141h-475v141h153v473c0 69.333 -13.167 120.5 -39.5 153.5s-67.166 49.5 -122.499 49.5
c-46 0 -94.167 -14 -144.5 -42s-101.833 -70 -154.5 -126v-508h166v-141z" />
    <glyph glyph-name="i" unicode="i" horiz-adv-x="614" 
d="M406 1139h-179v241h179v-241zM571 0h-495v141h155v650h-155v139h330v-789h165v-141z" />
    <glyph glyph-name="j" unicode="j" horiz-adv-x="559" 
d="M399 930l0.000976562 -884.998c0 -150.667 -28.5 -261.334 -85.5 -332.001s-146.5 -106 -268.5 -106h-27v151h15c63.333 0 111.166 19.667 143.499 59s48.5 97.666 48.5 174.999v801h-174v137h348zM221.001 1139v241h178v-241h-178z" />
    <glyph glyph-name="k" unicode="k" horiz-adv-x="1139" 
d="M942 141h152v-141h-476v141h109l-330 346v-346h113v-141h-444v141h159v1186h-159v137h331v-950l338 279h-135v137h463v-137h-113l-356 -291z" />
    <glyph glyph-name="l" unicode="l" horiz-adv-x="614" 
d="M567 0h-495v141h155v1186h-155v137h327v-1323h168v-141z" />
    <glyph glyph-name="m" unicode="m" horiz-adv-x="1864" 
d="M569 0l-493.004 -0.00195312v141h157v652h-157v137h323v-135c55.333 56 111 97.167 167 123.5s115 39.5 177 39.5c63.333 0 118.333 -15.333 165 -46s81.334 -74.667 104.001 -132c70 66 132.333 112.167 187 138.5s112.334 39.5 173.001 39.5
c100.667 0 174 -31.167 220 -93.5s69 -162.833 69 -301.5v-422h147v-141h-471v141h154v473c0 69.333 -13.167 120.5 -39.5 153.5s-67.166 49.5 -122.499 49.5c-45.333 0 -93 -14.167 -143 -42.5s-101.333 -70.166 -154 -125.499v-508h166v-141h-489v141h153v473
c0 69.333 -13.167 120.5 -39.5 153.5s-67.166 49.5 -122.499 49.5c-45.333 0 -93 -14.167 -143 -42.5s-101.333 -70.166 -154 -125.499v-508h166v-141z" />
    <glyph glyph-name="n" unicode="n" horiz-adv-x="1241" 
d="M571 0l-496.998 -0.000976562v141h157v652h-157v137h325v-135c56.667 56 113.167 97.167 169.5 123.5s116.166 39.5 179.499 39.5c102 0 176.167 -31.167 222.5 -93.5s69.5 -162.833 69.5 -301.5v-422h148v-141h-475v141h153v473c0 69.333 -13.167 120.5 -39.5 153.5
s-66.833 49.5 -121.5 49.5c-47.333 0 -96.333 -14.167 -147 -42.5s-102.334 -70.166 -155.001 -125.499v-508h168v-141z" />
    <glyph glyph-name="o" unicode="o" horiz-adv-x="1128" 
d="M248 465c0 -95.333 31 -176.834 93 -244.501s136 -101.5 222 -101.5c86.667 0 161.334 33.833 224.001 101.5s94 149.167 94 244.5c0 96.667 -31 178.834 -93 246.501s-137 101.5 -225 101.5c-86.667 0 -160.834 -34 -222.501 -102s-92.5 -150 -92.5 -246zM72 464.999
c0 64.667 12.6641 127.166 37.9971 187.499s61 113.166 107 158.499c46.667 47.333 99.334 83.333 158.001 108s121.334 37 188.001 37c67.333 0 131 -12.333 191 -37s113 -60.667 159 -108c46.667 -45.333 82.334 -97.666 107.001 -156.999s37 -122.333 37 -189
c0 -66 -12.5 -129 -37.5 -189s-60.5 -113 -106.5 -159c-46 -46.667 -99.5 -82.667 -160.5 -108s-124.167 -38 -189.5 -38c-63.333 0 -124.833 12.667 -184.5 38s-113.5 61.333 -161.5 108c-46 46 -81.667 99.333 -107 160s-38 123.334 -38 188.001z" />
    <glyph glyph-name="p" unicode="p" horiz-adv-x="1239" 
d="M61 -393l-0.00195312 141h160v1043h-160v139h316v-137c48 54 100 94.667 156 122s115.333 41 178 41c130.667 0 238.334 -46.333 323.001 -139s127 -210.667 127 -354c0 -142 -42.667 -259.5 -128 -352.5s-192.666 -139.5 -321.999 -139.5c-62 0 -119.667 12.5 -173 37.5
s-102.333 62.5 -147 112.5v-373h160v-141h-490zM380.998 465c0 -101.333 28.5 -184.333 85.5 -249s129.5 -97 217.5 -97c88.667 0 161.334 32.167 218.001 96.5s85 147.5 85 249.5c0 101.333 -28.333 184 -85 248s-129.334 96 -218.001 96
c-88 0 -160.5 -32.167 -217.5 -96.5s-85.5 -146.833 -85.5 -247.5z" />
    <glyph glyph-name="q" unicode="q" horiz-adv-x="1239" 
d="M858 465c0 100.667 -28.5 183.167 -85.5 247.5s-129.5 96.5 -217.5 96.5c-88.667 0 -161.334 -32 -218.001 -96s-85 -146.667 -85 -248c0 -102 28.333 -185.167 85 -249.5s129.334 -96.5 218.001 -96.5c88 0 160.5 32.333 217.5 97s85.5 147.667 85.5 249zM1178 -393
h-490.002v141h160v373c-44.667 -50 -93.667 -87.5 -147 -112.5s-111 -37.5 -173 -37.5c-129.333 0 -236.666 46.5 -321.999 139.5s-128 210.5 -128 352.5c0 143.333 42.333 261.333 127 354s192.334 139 323.001 139c62.667 0 122 -13.667 178 -41s108 -68 156 -122v137h316
v-139h-160v-1043h160v-141z" />
    <glyph glyph-name="r" unicode="r" horiz-adv-x="758" 
d="M571 0h-498.999v141h159v650h-159v139h327v-119c46 46.667 95.167 82.167 147.5 106.5s109.166 37.833 170.499 40.5l-1 -143c-59.333 -0.666992 -114.5 -13.667 -165.5 -39s-99.167 -64.333 -144.5 -117v-518h165v-141z" />
    <glyph glyph-name="s" unicode="s" horiz-adv-x="1012" 
d="M242 82l-0.000976562 -82.001h-136v317h136v-81c44.667 -40 93.5 -69.833 146.5 -89.5s109.833 -29.5 170.5 -29.5c59.333 0 106.333 12 141 36s52 56.333 52 97c0 69.333 -87.333 116.333 -262 141h-1c-138.667 19.333 -236 50 -292 92s-84 103 -84 183
c0 86.667 31 157 93 211s143.667 81 245 81c50.667 0 97.834 -6.5 141.501 -19.5s85.167 -32.833 124.5 -59.5v51h133v-287h-133v80c-44 33.333 -87.333 58.333 -130 75s-84.667 25 -126 25c-60.667 0 -108 -11.333 -142 -34s-51 -54.334 -51 -95.001
c0 -39.333 16.333 -68.833 49 -88.5s106 -37.167 220 -52.5c135.333 -19.333 231.166 -50.666 287.499 -93.999s84.5 -105.666 84.5 -186.999c0 -90 -32 -162.333 -96 -217s-149.333 -82 -256 -82c-57.333 0 -112.166 9 -164.499 27s-102.5 45.333 -150.5 82z" />
    <glyph glyph-name="t" unicode="t" horiz-adv-x="664" 
d="M571 141v-141h-354v791h-160v139h160v350h174v-350h180v-139h-180v-650h180z" />
    <glyph glyph-name="u" unicode="u" horiz-adv-x="1229" 
d="M668 930h341.999v-789h157v-141h-327v137c-56.667 -57.333 -112.667 -99.333 -168 -126s-114.666 -40 -177.999 -40c-102 0 -176.333 31.333 -223 94s-70 163.334 -70 302.001v426h-148v137h320v-615c0 -68.667 13.5 -119.834 40.5 -153.501s68.167 -50.5 123.5 -50.5
c46 0 94 14 144 42s101.667 70 155 126v514h-168v137z" />
    <glyph glyph-name="v" unicode="v" horiz-adv-x="1063" 
d="M588 -29l-117 -0.000976562l-338 820h-125v139h447v-139h-140l164 -414c6 -15.333 13.167 -36.166 21.5 -62.499l34.5 -113.5c9.33301 35.333 18.5 67.5 27.5 96.5s17.5 53.5 25.5 73.5l168 420h-146v139h445v-139h-125z" />
    <glyph glyph-name="w" unicode="w" horiz-adv-x="1630" 
d="M1083 371c6.66699 -17.333 13.4971 -40.332 20.4971 -68.999s13.833 -61.667 20.5 -99c6.66699 34.667 13.834 66.834 21.501 96.501s15.5 55.5 23.5 77.5l158 416h-129v137h416v-137h-121l-313 -822h-111l-211 562c-7.33301 19.333 -14.666 43.5 -21.999 72.5
s-14.333 60.5 -21 94.5c-9.33301 -46.667 -17 -82.5 -23 -107.5s-12 -45.167 -18 -60.5l-211 -561h-110l-316 822h-121v137h420v-137h-127l158 -416c8 -22 15.833 -47.833 23.5 -77.5s14.834 -61.834 21.501 -96.501c8 40 15.667 74.167 23 102.5s14 50.166 20 65.499
l215 559h96z" />
    <glyph glyph-name="x" unicode="x" horiz-adv-x="1126" 
d="M555 358l-193 -217h103v-141h-406v141h111l293 324l-279 328h-125v137h439v-137h-109l180 -218l189 218h-113v137h418v-137h-113l-288 -318l286 -334h115v-141h-436v141h106z" />
    <glyph glyph-name="y" unicode="y" horiz-adv-x="1100" 
d="M496 -256h174v-137h-504v137h170l115 258l-314 791h-112v137h446v-137h-158l179 -449c7.33301 -17.333 15.5 -40.5 24.5 -69.5s18.5 -62.5 28.5 -100.5c10.667 38.667 21 73.5 31 104.5s18.667 54.833 26 71.5l195 443h-148v137h428v-137h-119z" />
    <glyph glyph-name="z" unicode="z" horiz-adv-x="909" 
d="M852 344v-344h-799v137l563 660h-387v-181h-155v314h757v-133l-563 -660h422v207h162z" />
    <glyph glyph-name="braceleft" unicode="{" 
d="M858 1350c-5.33301 0 -12.999 0.333008 -22.999 1s-17.333 1 -22 1c-80.667 0 -135.334 -15.667 -164.001 -47s-43 -97 -43 -197v-242c0 -110.667 -14.5 -189.167 -43.5 -235.5s-80.5 -79.833 -154.5 -100.5c74 -20 125.5 -53.167 154.5 -99.5s43.5 -124.833 43.5 -235.5
v-242c0 -99.333 14.5 -164.5 43.5 -195.5s85.5 -46.5 169.5 -46.5h39v-125h-35c-66 0 -119.167 4 -159.5 12s-74.5 21.333 -102.5 40c-36.667 24 -62.5 57.333 -77.5 100s-22.5 113.667 -22.5 213v244c0 101.333 -18.333 172.333 -55 213s-99.667 61 -189 61
c-4.66699 0 -12 -0.333008 -22 -1s-17.667 -1 -23 -1v127c5.33301 0 13 -0.333008 23 -1s17.333 -1 22 -1c89.333 0 152.333 20.5 189 61.5s55 112.5 55 214.5v244c0 102 7.5 173.833 22.5 215.5s40.833 74.167 77.5 97.5c28 18.667 62 32 102 40s93.333 12 160 12h35v-127z
" />
    <glyph glyph-name="bar" unicode="|" 
d="M575 1565v-2048h-126v2048h126z" />
    <glyph glyph-name="braceright" unicode="}" 
d="M563 1112l-0.00195312 -244.003c0 -101.333 18.5 -172.666 55.5 -213.999s100.5 -62 190.5 -62c4.66699 0 12 0.333008 22 1s17.667 1 23 1v-127c-5.33301 0 -13 0.333008 -23 1s-17.333 1 -22 1c-90 0 -153.5 -20.667 -190.5 -62s-55.5 -112.666 -55.5 -213.999v-242
c0 -102 -7.33301 -174.167 -22 -216.5s-40 -75.5 -76 -99.5c-26 -17.333 -58.5 -29.833 -97.5 -37.5s-92.5 -11.5 -160.5 -11.5h-41v125c5.33301 0 13 -0.333008 23 -1s17.333 -1 22 -1c80 0 134.5 15.833 163.5 47.5s43.5 97.834 43.5 198.501v240
c0 110.667 14.5 189.167 43.5 235.5s80.5 79.5 154.5 99.5c-74 20.667 -125.5 54.167 -154.5 100.5s-43.5 124.833 -43.5 235.5v242c0 99.333 -14.667 164.833 -44 196.5s-85.666 47.5 -168.999 47.5h-39v125h35c66.667 0 120.334 -4.16699 161.001 -12.5
s75 -21.5 103 -39.5c36 -23.333 61.333 -56 76 -98s22 -113.667 22 -215z" />
    <glyph glyph-name="asciitilde" unicode="~" horiz-adv-x="1706" 
d="M1530 627c-67.333 -48 -133.166 -84 -197.499 -108s-127.5 -36 -189.5 -36c-28.667 0 -58.834 3 -90.501 9s-65.167 14.667 -100.5 26c-20 6.66699 -49 17 -87 31c-134.667 48 -235.334 72 -302.001 72c-55.333 0 -113.166 -12.5 -173.499 -37.5
s-130.833 -65.833 -211.5 -122.5v133c70 48.667 137.333 85 202 109s126.334 36 185.001 36c37.333 0 76.166 -4.16699 116.499 -12.5s98.5 -25.833 174.5 -52.5l44 -16c105.333 -38.667 187 -58 245 -58c56 0 114.167 12.333 174.5 37s130.5 65 210.5 121v-131z" />
    <glyph glyph-name="Euro" horiz-adv-x="1124" 
d="M-16 813l39 111.001h145c27.333 171.333 84.666 306.333 171.999 405s194.666 148 321.999 148c59.333 0 113.833 -13.167 163.5 -39.5s84.5 -57.833 104.5 -94.5v97h151v-410h-151v98c-27.333 60.667 -63.166 106.334 -107.499 137.001s-97.166 46 -158.499 46
c-86 0 -155.667 -33 -209 -99s-88.333 -162 -105 -288h572l-41 -111h-539c-1.33301 -26.667 -2.33301 -48 -3 -64s-1 -30.667 -1 -44v-52h485l-41 -110h-436c14.667 -123.333 50 -219.666 106 -288.999s126 -104 210 -104c70.667 0 128.334 20.167 173.001 60.5
s83 110.166 115 209.499h170c-37.333 -146 -94.833 -256.333 -172.5 -331s-173.834 -112 -288.501 -112c-134.667 0 -245.5 49.833 -332.5 149.5s-141.833 238.5 -164.5 416.5h-189l41 110h141c0 7.33301 -0.166992 15.166 -0.5 23.499s-0.5 21.166 -0.5 38.499
c0 22 1 52.667 3 92l1 6h-174z" />
    <glyph glyph-name="Euro" unicode="&#x20ac;" horiz-adv-x="1124" 
d="M-16 813l39 111.001h145c27.333 171.333 84.666 306.333 171.999 405s194.666 148 321.999 148c59.333 0 113.833 -13.167 163.5 -39.5s84.5 -57.833 104.5 -94.5v97h151v-410h-151v98c-27.333 60.667 -63.166 106.334 -107.499 137.001s-97.166 46 -158.499 46
c-86 0 -155.667 -33 -209 -99s-88.333 -162 -105 -288h572l-41 -111h-539c-1.33301 -26.667 -2.33301 -48 -3 -64s-1 -30.667 -1 -44v-52h485l-41 -110h-436c14.667 -123.333 50 -219.666 106 -288.999s126 -104 210 -104c70.667 0 128.334 20.167 173.001 60.5
s83 110.166 115 209.499h170c-37.333 -146 -94.833 -256.333 -172.5 -331s-173.834 -112 -288.501 -112c-134.667 0 -245.5 49.833 -332.5 149.5s-141.833 238.5 -164.5 416.5h-189l41 110h141c0 7.33301 -0.166992 15.166 -0.5 23.499s-0.5 21.166 -0.5 38.499
c0 22 1 52.667 3 92l1 6h-174z" />
    <glyph glyph-name="nonbreakingspace" unicode="&#xa0;" horiz-adv-x="1124" 
 />
    <glyph glyph-name="exclamdown" unicode="&#xa1;" horiz-adv-x="592" 
d="M365 1092l38 -1092h-217l39 1092h140zM395 1475v-265h-200v265h200z" />
    <glyph glyph-name="cent" unicode="&#xa2;" horiz-adv-x="1124" 
d="M895 543l102.002 -94c-56 -66.667 -114 -118.167 -174 -154.5s-122.667 -58.166 -188 -65.499v-180h-129v182c-120.667 16.667 -218.167 69.5 -292.5 158.5s-111.5 197.5 -111.5 325.5c0 132 36 242.167 108 330.5s170.667 143.166 296 164.499v176h129v-178
c37.333 -6.66699 72.5 -17.667 105.5 -33s64.833 -35 95.5 -59v80h127v-326h-127v84c-32 38.667 -68.833 68.167 -110.5 88.5s-86.834 30.5 -135.501 30.5c-90.667 0 -164.834 -33 -222.501 -99s-86.5 -151 -86.5 -255c0 -100 29.167 -182 87.5 -246s132.833 -96 223.5 -96
c50 0 99 13 147 39s100 68.333 156 127z" />
    <glyph glyph-name="sterling" unicode="&#xa3;" horiz-adv-x="1124" 
d="M324 104c-38 -40.667 -79.0029 -71.5 -123.003 -92.5s-90 -31.5 -138 -31.5c-1.33301 0 -3.5 0.333008 -6.5 1s-5.5 1 -7.5 1c-1.33301 0 -2.5 -0.166992 -3.5 -0.5s-1.83301 -0.833008 -2.5 -1.5v192c80 9.33301 141 37.666 183 84.999s63 112 63 194
c0 29.333 -2.33301 61.333 -7 96s-11.334 70.667 -20.001 108h-219v131h195c-19.333 78 -32.833 139.833 -40.5 185.5s-11.5 85.834 -11.5 120.501c0 116.667 37.333 209.667 112 279s175.334 104 302.001 104c104.667 0 195.334 -28 272.001 -84
s138.334 -139.333 185.001 -250l-158 -60c-33.333 81.333 -75.5 142.333 -126.5 183s-111.167 61 -180.5 61c-70 0 -126.833 -21 -170.5 -63s-65.5 -96 -65.5 -162c0 -26 4.33301 -62 13 -108s24.334 -114.667 47.001 -206h286v-131h-264
c6.66699 -39.333 11.5 -74.333 14.5 -105s4.5 -57 4.5 -79c0 -54 -4.66699 -101.5 -14 -142.5s-23.333 -76.833 -42 -107.5c43.333 -26 88 -45.833 134 -59.5s91.667 -20.5 137 -20.5c64 0 117 16.833 159 50.5s77 87.167 105 160.5l166 -24
c-27.333 -114 -76 -200.5 -146 -259.5s-158.667 -88.5 -266 -88.5c-60 0 -121.5 10.667 -184.5 32s-123.5 52 -181.5 92z" />
    <glyph glyph-name="currency" unicode="&#xa4;" horiz-adv-x="1124" 
d="M-16 813l39 111.001h145c27.333 171.333 84.666 306.333 171.999 405s194.666 148 321.999 148c59.333 0 113.833 -13.167 163.5 -39.5s84.5 -57.833 104.5 -94.5v97h151v-410h-151v98c-27.333 60.667 -63.166 106.334 -107.499 137.001s-97.166 46 -158.499 46
c-86 0 -155.667 -33 -209 -99s-88.333 -162 -105 -288h572l-41 -111h-539c-1.33301 -26.667 -2.33301 -48 -3 -64s-1 -30.667 -1 -44v-52h485l-41 -110h-436c14.667 -123.333 50 -219.666 106 -288.999s126 -104 210 -104c70.667 0 128.334 20.167 173.001 60.5
s83 110.166 115 209.499h170c-37.333 -146 -94.833 -256.333 -172.5 -331s-173.834 -112 -288.501 -112c-134.667 0 -245.5 49.833 -332.5 149.5s-141.833 238.5 -164.5 416.5h-189l41 110h141c0 7.33301 -0.166992 15.166 -0.5 23.499s-0.5 21.166 -0.5 38.499
c0 22 1 52.667 3 92l1 6h-174z" />
    <glyph glyph-name="yen" unicode="&#xa5;" horiz-adv-x="1352" 
d="M1292 1456v-143h-172l-145 -260h317v-111h-381l-90 -160h471v-110h-532v-525h170v-147h-514v147h168v525h-527v110h463l-92 160h-371v111h310l-144 260h-166v143h521v-143h-170l268 -482l268 482h-170v143h518z" />
    <glyph glyph-name="brokenbar" unicode="&#xa6;" 
d="M575 408v-758h-126v758h126zM575 1432v-758h-126v758h126z" />
    <glyph glyph-name="section" unicode="&#xa7;" 
d="M219 807c0 -27.333 11.333 -58.5 34 -93.5s64 -83.833 124 -146.5c75.333 -78.667 135.333 -133.834 180 -165.501s83.667 -47.5 117 -47.5c31.333 0 58.666 13 81.999 39s35 56.667 35 92c0 28.667 -11 59.667 -33 93s-65.667 83 -131 149l-28 29
c-113.333 116 -199 174 -257 174c-35.333 0 -64.666 -11.667 -87.999 -35s-35 -52.666 -35 -87.999zM215 -199l0.000976562 315.997h125v-191h166c43.333 0 75.333 8.5 96 25.5s31 43.5 31 79.5c0 30 -8.5 59.667 -25.5 89s-50.833 68.666 -101.5 117.999l-250 245
c-63.333 62.667 -109.833 119.167 -139.5 169.5s-44.5 97.833 -44.5 142.5c0 68.667 24 126.334 72 173.001s108 70 180 70h22c-25.333 34.667 -44.333 68.667 -57 102s-19 66.333 -19 99c0 84 27.833 144.333 83.5 181s150.167 55 283.5 55h170v-312h-125v193h-102
c-60 0 -102.333 -9 -127 -27s-37 -48 -37 -90c0 -34.667 9.33301 -69.167 28 -103.5s51 -74.166 97 -119.499l233 -236c62 -62.667 105.167 -116.167 129.5 -160.5s36.5 -89.166 36.5 -134.499c0 -64 -23.333 -118.833 -70 -164.5s-108.667 -73.167 -186 -82.5
c33.333 -35.333 57.666 -70.166 72.999 -104.499s23 -70.5 23 -108.5c0 -73.333 -25.667 -129 -77 -167s-127.333 -57 -228 -57h-260z" />
    <glyph glyph-name="dieresis" unicode="&#xa8;" 
d="M592 1133v188h160v-188h-160zM272 1133v188h160v-188h-160z" />
    <glyph glyph-name="copyright" unicode="&#xa9;" horiz-adv-x="1706" 
d="M1065 911c-10 51.333 -33.501 91.5 -70.501 120.5s-83.167 43.5 -138.5 43.5c-78 0 -138.833 -30.833 -182.5 -92.5s-65.5 -148.167 -65.5 -259.5c0 -106.667 22.167 -190.667 66.5 -252s104.833 -92 181.5 -92c58 0 106.5 16.167 145.5 48.5s63.5 76.833 73.5 133.5h129
c-7.33301 -84.667 -43.666 -153.667 -108.999 -207s-147 -80 -245 -80c-117.333 0 -210.833 40.333 -280.5 121s-104.5 189.334 -104.5 326.001c0 138.667 35.833 249.5 107.5 332.5s167.5 124.5 287.5 124.5c91.333 0 168 -24.833 230 -74.5s96.667 -113.834 104 -192.501
h-129zM1501 725c0 86.667 -16.333 169.667 -49 249s-79 149.333 -139 210c-61.333 61.333 -131.333 108 -210 140s-162.334 48 -251.001 48c-88 0 -170.5 -15.833 -247.5 -47.5s-145.5 -77.834 -205.5 -138.501c-62 -63.333 -109.5 -134.666 -142.5 -213.999
s-49.5 -161.666 -49.5 -246.999c0 -84.667 16.333 -166 49 -244s79.667 -148.333 141 -211c62 -61.333 131.833 -108.333 209.5 -141s159.5 -49 245.5 -49s168.833 16.667 248.5 50s151.167 80.666 214.5 141.999c60.667 60 106.834 128.5 138.501 205.5
s47.5 159.5 47.5 247.5zM851.999 1460c100.667 0 195.666 -18.332 284.999 -54.999s169 -90 239 -160c68 -68 120.167 -146.667 156.5 -236s54.5 -184 54.5 -284c0 -100.667 -18 -195 -54 -283s-88.333 -165.667 -157 -233
c-72.667 -70.667 -154.167 -124.834 -244.5 -162.501s-183.5 -56.5 -279.5 -56.5c-97.333 0 -190 18.5 -278 55.5s-167.333 90.833 -238 161.5c-70.667 70 -124.5 149.5 -161.5 238.5s-55.5 182.167 -55.5 279.5c0 96.667 18.833 189.834 56.5 279.501
s91.834 170.5 162.501 242.5c68 69.333 146 122.166 234 158.499s181.333 54.5 280 54.5z" />
    <glyph glyph-name="ordfeminine" unicode="&#xaa;" horiz-adv-x="840" 
d="M373 1182c-55.333 0 -99.167 -12.666 -131.5 -37.999s-48.5 -59.333 -48.5 -102c0 -40.667 16.5 -73.667 49.5 -99s77.167 -38 132.5 -38c54.667 0 98.667 12.833 132 38.5s50 59.167 50 100.5s-16.833 74.666 -50.5 99.999s-78.167 38 -133.5 38zM151.999 1446
c36.667 16.667 75.4971 29.333 116.497 38s83.167 13 126.5 13c101.333 0 175.166 -21.333 221.499 -64s69.5 -110.667 69.5 -204v-305h113v-99h-234v60c-33.333 -26.667 -68.666 -46.667 -105.999 -60s-75.666 -20 -114.999 -20c-85.333 0 -154.166 22.167 -206.499 66.5
s-78.5 101.833 -78.5 172.5c0 71.333 26 129.5 78 174.5s119 67.5 201 67.5c37.333 0 73.833 -6 109.5 -18s72.167 -30.667 109.5 -56v66c0 40 -14 69.833 -42 89.5s-70.667 29.5 -128 29.5c-33.333 0 -65.666 -3.66699 -96.999 -11s-61 -18 -89 -32z" />
    <glyph glyph-name="guillemotleft" unicode="&#xab;" horiz-adv-x="874" 
d="M739 819l-176 -348l176 -348l-123 -51l-190 399l190 399zM449 819l-175 -348l175 -348l-123 -51l-191 399l191 399z" />
    <glyph glyph-name="logicalnot" unicode="&#xac;" horiz-adv-x="1706" 
d="M1452 858v-502h-115v385h-1083v117h1198z" />
    <glyph glyph-name="sfthyphen" unicode="&#xad;" horiz-adv-x="676" 
d="M86 383v166h502v-166h-502z" />
    <glyph glyph-name="registered" unicode="&#xae;" horiz-adv-x="1706" 
d="M846 1065l-144.001 -0.000976562v-291h148c82 0 140.333 11 175 33s52 58 52 108c0 52.667 -18.167 90.834 -54.5 114.501s-95.166 35.5 -176.499 35.5zM871.999 1157c118.667 0 206.833 -18.999 264.5 -56.999s86.5 -96 86.5 -174
c0 -59.333 -17.667 -108.833 -53 -148.5s-83.333 -64.834 -144 -75.501l188 -385h-157l-176 365h-179v-365h-141v840h311zM1501 721c0 88.667 -16.001 172.499 -48.001 251.499s-78 148.833 -138 209.5c-62.667 62 -133.167 109.167 -211.5 141.5
s-162.166 48.5 -251.499 48.5c-88 0 -170.333 -15.667 -247 -47s-144.667 -77 -204 -137c-62.667 -63.333 -110.667 -134.666 -144 -213.999s-50 -162.333 -50 -249c0 -84.667 16.333 -166 49 -244s79.667 -148.333 141 -211c60.667 -61.333 130 -108.333 208 -141
s159.667 -49 245 -49c87.333 0 170.5 16.167 249.5 48.5s150.167 79.5 213.5 141.5c60.667 60 107.167 128.667 139.5 206s48.5 159 48.5 245zM851.997 1460c100 0 194.669 -18.498 284.002 -55.498s169.333 -90.833 240 -161.5c68 -68 120.167 -146.5 156.5 -235.5
s54.5 -183.167 54.5 -282.5c0 -100.667 -18.167 -195 -54.5 -283s-89.166 -165.667 -158.499 -233c-72.667 -70.667 -153.834 -124.834 -243.501 -162.501s-182.5 -56.5 -278.5 -56.5c-96.667 0 -189.5 18.667 -278.5 56s-168.833 91.666 -239.5 162.999
c-70 69.333 -123.333 148.333 -160 237s-55 181.667 -55 279c0 98 19 192 57 282s92.667 170.667 164 242c67.333 68.667 144.666 121 231.999 157s180.666 54 279.999 54z" />
    <glyph glyph-name="macron" unicode="&#xaf;" 
d="M254 1163v125h516v-125h-516z" />
    <glyph glyph-name="degree" unicode="&#xb0;" horiz-adv-x="674" 
d="M539 1171c0 56 -19.5 103.5 -58.5 142.5s-86.5 58.5 -142.5 58.5s-103.833 -19.5 -143.5 -58.5s-59.5 -86.5 -59.5 -142.5s19.833 -103.667 59.5 -143s87.5 -59 143.5 -59s103.5 19.667 142.5 59s58.5 87 58.5 143zM338 1454c78 0 144.668 -27.6689 200.001 -83.002
s83 -122 83 -200c0 -77.333 -27.833 -143.666 -83.5 -198.999s-122.834 -83 -201.501 -83s-145.167 27.333 -199.5 82s-81.5 121.334 -81.5 200.001c0 79.333 27.5 146.333 82.5 201s121.833 82 200.5 82z" />
    <glyph glyph-name="plusminus" unicode="&#xb1;" horiz-adv-x="1706" 
d="M1452 158v-117h-1198v117h1198zM913 1180v-344h539v-117h-539v-344h-118v344h-541v117h541v344h118z" />
    <glyph glyph-name="twosuperior" unicode="&#xb2;" horiz-adv-x="741" 
d="M688 817l-0.000976562 -234.997h-653c0.666992 43.333 15 86.166 43 128.499s74.333 90.166 139 143.499c24.667 20.667 62 49.667 112 87s86.333 65.666 109 84.999c40.667 34 70.334 66.333 89.001 97s28 62 28 94c0 46 -17.167 84 -51.5 114s-77.833 45 -130.5 45
c-54.667 0 -101 -16.167 -139 -48.5s-66 -79.5 -84 -141.5l-109 26c26.667 84.667 68.5 148.5 125.5 191.5s127.833 64.5 212.5 64.5c85.333 0 155.833 -23.833 211.5 -71.5s83.5 -107.5 83.5 -179.5c0 -98 -94.667 -217 -284 -357l-3 -2l-11 -8
c-106.667 -79.333 -170 -139.333 -190 -180h392v147h110z" />
    <glyph glyph-name="threesuperior" unicode="&#xb3;" horiz-adv-x="741" 
d="M41 805l109.001 14.001c17.333 -50 44.5 -88 81.5 -114s82.833 -39 137.5 -39c60 0 109.333 15.5 148 46.5s58 70.5 58 118.5c0 54 -19.667 94.5 -59 121.5s-98.666 40.5 -177.999 40.5c-10.667 0 -19 -0.166992 -25 -0.5s-11.333 -0.5 -16 -0.5v91h31
c67.333 0 119.333 12.833 156 38.5s55 62.167 55 109.5c0 42.667 -15.5 77.5 -46.5 104.5s-70.833 40.5 -119.5 40.5s-89.834 -12.5 -123.501 -37.5s-59.5 -62.167 -77.5 -111.5l-102 22c22 70 59.5 124 112.5 162s117.167 57 192.5 57c82.667 0 149.667 -21.167 201 -63.5
s77 -96.833 77 -163.5c0 -39.333 -11.5 -75.5 -34.5 -108.5s-57.833 -62.5 -104.5 -88.5c60.667 -15.333 106.5 -41 137.5 -77s46.5 -81.333 46.5 -136c0 -74.667 -30.833 -137.334 -92.5 -188.001s-139.167 -76 -232.5 -76c-86.667 0 -158.834 20.667 -216.501 62
s-96.167 100 -115.5 176z" />
    <glyph glyph-name="acute" unicode="&#xb4;" 
d="M375 1069l209 348h178l-281 -348h-106z" />
    <glyph glyph-name="mu" unicode="&#xb5;" horiz-adv-x="1128" 
d="M362 1069l-125.999 -594.997c-5.33301 -22 -9.16602 -44.333 -11.499 -67s-3.5 -46.334 -3.5 -71.001c0 -72.667 19 -128.667 57 -168s91.333 -59 160 -59c83.333 0 152.666 33.667 207.999 101s98 170 128 308l121 551h156l-162 -754
c-8 -34.667 -13.833 -62.667 -17.5 -84s-5.5 -38.333 -5.5 -51c0 -21.333 6.16699 -37.5 18.5 -48.5s30.166 -16.5 53.499 -16.5c6 0 11.833 0.166992 17.5 0.5s11.5 0.833008 17.5 1.5l-27 -125c-14 -3.33301 -28.667 -5.83301 -44 -7.5s-31.333 -2.5 -48 -2.5
c-46.667 0 -81.5 11.667 -104.5 35s-36.5 60.666 -40.5 111.999c-27.333 -46.667 -66.333 -82.834 -117 -108.501s-108 -38.5 -172 -38.5c-58 0 -108.833 11.333 -152.5 34s-80.167 57 -109.5 103l-113 -545h-156l316 1495h157z" />
    <glyph glyph-name="paragraph" unicode="&#xb6;" 
d="M948 1401h-125.002v-1401h-94v1401h-182v-1401h-96v782c-115.333 5.33301 -206.666 39.5 -273.999 102.5s-101 144.833 -101 245.5c0 104.667 35.833 189 107.5 253s166.834 96 285.501 96h479v-78z" />
    <glyph glyph-name="periodcentered" unicode="&#xb7;" horiz-adv-x="561" 
d="M150 729c0 36 12.833 66.5 38.5 91.5s56.5 37.5 92.5 37.5c36.667 0 67.667 -12.5 93 -37.5s38 -55.5 38 -91.5c0 -36.667 -12.833 -68 -38.5 -94s-56.5 -39 -92.5 -39c-35.333 0 -66 13.167 -92 39.5s-39 57.5 -39 93.5z" />
    <glyph glyph-name="cedilla" unicode="&#xb8;" 
d="M274 -422l-0.000976562 85.999c50 -11.333 95.833 -20 137.5 -26s77.834 -9 108.501 -9c40.667 0 71 6.83301 91 20.5s30 34.167 30 61.5c0 34.667 -10.833 59.834 -32.5 75.501s-56.5 23.5 -104.5 23.5c-13.333 0 -23.5 -0.166992 -30.5 -0.5
s-13.833 -0.833008 -20.5 -1.5v192h71v-106h23c74 0 130 -15 168 -45s57 -74 57 -132c0 -59.333 -21 -104.5 -63 -135.5s-104.333 -46.5 -187 -46.5c-28 0 -61.667 3.33301 -101 10s-88.333 17.667 -147 33z" />
    <glyph glyph-name="onesuperior" unicode="&#xb9;" horiz-adv-x="741" 
d="M573 670v-88h-387v88h133v702h-129v84h252v-786h131z" />
    <glyph glyph-name="ordmasculine" unicode="&#xba;" horiz-adv-x="846" 
d="M186 1151c0 -66.667 23.167 -123.667 69.5 -171s101.833 -71 166.5 -71c66 0 122.5 23.5 169.5 70.5s70.5 104.167 70.5 171.5s-23.5 124.833 -70.5 172.5s-103.5 71.5 -169.5 71.5c-64.667 0 -120.167 -23.833 -166.5 -71.5s-69.5 -105.167 -69.5 -172.5zM53 1151
c0 44.667 9.6709 88.1699 29.0039 130.503s46.666 79.5 81.999 111.5c34 33.333 73 58.666 117 75.999s91 26 141 26s97.667 -8.83301 143 -26.5s85.666 -42.834 120.999 -75.501c34.667 -31.333 61.167 -67.833 79.5 -109.5s27.5 -85.834 27.5 -132.501
c0 -46 -9.33301 -90.167 -28 -132.5s-45 -79.5 -79 -111.5c-34.667 -32.667 -75 -57.834 -121 -75.501s-93.667 -26.5 -143 -26.5c-48 0 -94.333 8.83301 -139 26.5s-84.334 42.834 -119.001 75.501c-34.667 32 -61.834 69.333 -81.501 112s-29.5 86.667 -29.5 132z" />
    <glyph glyph-name="guillemotright" unicode="&#xbb;" horiz-adv-x="874" 
d="M135 819l121 51l193 -399l-193 -399l-121 51l174 348zM426 819l121 51l192 -399l-192 -399l-121 51l174 348z" />
    <glyph glyph-name="onequarter" unicode="&#xbc;" horiz-adv-x="1757" 
d="M1677 82v-82h-331v82h118v133h-389v78l438 534h60v-530h147v-82h-147v-133h104zM1464 297l-0.000976562 270c0 18.667 0.833008 35.834 2.5 51.501s4.16699 30.5 7.5 44.5c-9.33301 -17.333 -19.166 -33.833 -29.499 -49.5s-20.833 -29.834 -31.5 -42.501l-225 -274h276z
M484.999 -25h-118l907 1504h119zM548.999 723v-82h-371v82h125v657h-121v76h240v-733h127z" />
    <glyph glyph-name="onehalf" unicode="&#xbd;" horiz-adv-x="1757" 
d="M1708 221l0.00195312 -221.001h-624c0.666992 41.333 14.5 81.833 41.5 121.5s70.833 83.834 131.5 132.501c24 19.333 59.667 46.333 107 81s82 61 104 79c39.333 32 67.666 62.167 84.999 90.5s26 57.5 26 87.5c0 44 -16 79.833 -48 107.5s-73.333 41.5 -124 41.5
c-52.667 0 -97.167 -14.833 -133.5 -44.5s-63.5 -74.167 -81.5 -133.5l-100 25c23.333 78 62.166 137.333 116.499 178s121.833 61 202.5 61c82 0 149.667 -22.333 203 -67s80 -100.667 80 -168c0 -90 -89 -199.333 -267 -328l-8 -6c-66 -47.333 -111.5 -83 -136.5 -107
s-42.833 -47 -53.5 -69h373v139h106zM485.002 -25.001h-118l907 1504h119zM549.002 722.999v-82h-371v82h125v657h-121v76h240v-733h127z" />
    <glyph glyph-name="threequarters" unicode="&#xbe;" horiz-adv-x="1759" 
d="M1677 82v-82h-331v82h118v133h-389v78l438 534h60v-530h147v-82h-147v-133h104zM1464 297l-0.000976562 270c0 18.667 0.833008 35.834 2.5 51.501s4.16699 30.5 7.5 44.5c-9.33301 -17.333 -19.166 -33.833 -29.499 -49.5s-20.833 -29.834 -31.5 -42.501l-225 -274h276z
M484.999 -25h-118l907 1504h119zM38.999 848l102.001 16c17.333 -47.333 43.833 -83.333 79.5 -108s78.834 -37 129.501 -37c58 0 105.667 14.667 143 44s56 66.333 56 111c0 50.667 -18.833 88.667 -56.5 114s-93.834 38 -168.501 38c-10.667 0 -18.667 -0.166992 -24 -0.5
s-10.333 -0.833008 -15 -1.5v86c3.33301 0 8 -0.333008 14 -1s10.667 -1 14 -1c64 0 113.5 12.167 148.5 36.5s52.5 58.5 52.5 102.5c0 40 -14.5 72.5 -43.5 97.5s-67.167 37.5 -114.5 37.5c-46 0 -85.167 -11.667 -117.5 -35s-57.166 -58 -74.499 -104l-98 21
c22 66 58.167 116.5 108.5 151.5s111.5 52.5 183.5 52.5c79.333 0 143.666 -19.667 192.999 -59s74 -90 74 -152c0 -37.333 -11.167 -71.333 -33.5 -102s-55.5 -58 -99.5 -82c56.667 -14 100.167 -38 130.5 -72s45.5 -76.333 45.5 -127c0 -70 -29.833 -128.667 -89.5 -176
s-134.5 -71 -224.5 -71c-82 0 -150.333 19.167 -205 57.5s-91.334 92.833 -110.001 163.5z" />
    <glyph glyph-name="questiondown" unicode="&#xbf;" horiz-adv-x="1014" 
d="M438 1083h169.999v-448h-30c-96 0 -171 -22.167 -225 -66.5s-81 -105.5 -81 -183.5c0 -72 21.5 -131 64.5 -177s98.167 -69 165.5 -69c68.667 0 124.167 22 166.5 66s65.833 104.667 70.5 182h172c-4 -124.667 -44.667 -225.834 -122 -303.501
s-175.666 -116.5 -294.999 -116.5c-116.667 0 -214.5 39.333 -293.5 118s-118.5 174.667 -118.5 288c0 111.333 31.667 203.833 95 277.5s150.333 118.834 261 135.501v297zM622.999 1475v-265h-199v265h199z" />
    <glyph glyph-name="Agrave" unicode="&#xc0;" horiz-adv-x="1464" 
d="M928 655l-150 453c-11.333 35.333 -21.5 71.5 -30.5 108.5s-17.167 75.167 -24.5 114.5c-6.66699 -38 -14.667 -75.833 -24 -113.5s-20.333 -75.5 -33 -113.5l-144 -449h406zM27 0v152h133l401 1179h-168v144h666v-144h-168l403 -1179h129v-152h-505v152h176l-117 360
h-506l-115 -360h174v-152h-503zM862 1620h-106l-281 348h178z" />
    <glyph glyph-name="Aacute" unicode="&#xc1;" horiz-adv-x="1464" 
d="M928 655l-150 453c-11.333 35.333 -21.5 71.5 -30.5 108.5s-17.167 75.167 -24.5 114.5c-6.66699 -38 -14.667 -75.833 -24 -113.5s-20.333 -75.5 -33 -113.5l-144 -449h406zM27 0v152h133l401 1179h-168v144h666v-144h-168l403 -1179h129v-152h-505v152h176l-117 360
h-506l-115 -360h174v-152h-503zM588 1620l209 348h178l-281 -348h-106z" />
    <glyph glyph-name="Acircumflex" unicode="&#xc2;" horiz-adv-x="1464" 
d="M928 655l-150 453c-11.333 35.333 -21.5 71.5 -30.5 108.5s-17.167 75.167 -24.5 114.5c-6.66699 -38 -14.667 -75.833 -24 -113.5s-20.333 -75.5 -33 -113.5l-144 -449h406zM27 0v152h133l401 1179h-168v144h666v-144h-168l403 -1179h129v-152h-505v152h176l-117 360
h-506l-115 -360h174v-152h-503zM438 1620l197 348h178l197 -348h-107l-178 244l-180 -244h-107z" />
    <glyph glyph-name="Atilde" unicode="&#xc3;" horiz-adv-x="1464" 
d="M928 655l-150 453c-11.333 35.333 -21.5 71.5 -30.5 108.5s-17.167 75.167 -24.5 114.5c-6.66699 -38 -14.667 -75.833 -24 -113.5s-20.333 -75.5 -33 -113.5l-144 -449h406zM27 0v152h133l401 1179h-168v144h666v-144h-168l403 -1179h129v-152h-505v152h176l-117 360
h-506l-115 -360h174v-152h-503zM1016 1888c-16 -62 -41.1729 -109.5 -75.5059 -142.5s-75.5 -49.5 -123.5 -49.5c-11.333 0 -22.166 0.833008 -32.499 2.5s-21.166 4.16699 -32.499 7.5l-80 27c-8 2.66699 -16.5 4.66699 -25.5 6s-18.167 2 -27.5 2
c-23.333 0 -42.833 -5.16699 -58.5 -15.5s-28.5 -26.5 -38.5 -48.5h-88c14.667 61.333 38.834 107.833 72.501 139.5s75.834 47.5 126.501 47.5c11.333 0 22 -0.666992 32 -2s19 -3.33301 27 -6l78 -29c10.667 -3.33301 21.334 -5.83301 32.001 -7.5
s20.334 -2.5 29.001 -2.5c24 0 44 6 60 18s28.333 29.667 37 53h88z" />
    <glyph glyph-name="Adieresis" unicode="&#xc4;" horiz-adv-x="1464" 
d="M928 655l-150 453c-11.333 35.333 -21.5 71.5 -30.5 108.5s-17.167 75.167 -24.5 114.5c-6.66699 -38 -14.667 -75.833 -24 -113.5s-20.333 -75.5 -33 -113.5l-144 -449h406zM27 0v152h133l401 1179h-168v144h666v-144h-168l403 -1179h129v-152h-505v152h176l-117 360
h-506l-115 -360h174v-152h-503zM805 1684v188h160v-188h-160zM485 1684v188h160v-188h-160z" />
    <glyph glyph-name="Aring" unicode="&#xc5;" horiz-adv-x="1464" 
d="M606 1755c0 -33.333 11.667 -61.833 35 -85.5s51.333 -35.5 84 -35.5c34 0 62.667 11.667 86 35s35 52 35 86c0 32.667 -12 60.667 -36 84s-52.333 35 -85 35s-60.667 -11.667 -84 -35s-35 -51.333 -35 -84zM508 1755c0 61.333 20.832 112.833 62.499 154.5
s93.167 62.5 154.5 62.5c62 0 114 -20.833 156 -62.5s63 -93.167 63 -154.5s-21.167 -113.166 -63.5 -155.499s-94.166 -63.5 -155.499 -63.5c-60.667 0 -112 21.167 -154 63.5s-63 94.166 -63 155.499zM927.999 655l-150 453c-11.333 35.333 -21.5 71.5 -30.5 108.5
s-17.167 75.167 -24.5 114.5c-6.66699 -38 -14.667 -75.833 -24 -113.5s-20.333 -75.5 -33 -113.5l-144 -449h406zM26.999 0v152h133l401 1179h-168v144h666v-144h-168l403 -1179h129v-152h-505v152h176l-117 360h-506l-115 -360h174v-152h-503z" />
    <glyph glyph-name="AE" unicode="&#xc6;" horiz-adv-x="2009" 
d="M979 649v682h-68l-383 -682h451zM1937 1475v-375h-178v231h-592v-461h252v179h172v-545h-172v209h-252v-561h592v258h178v-410h-1159v152h201v348h-530l-197 -348h170v-152h-488v152h125l670 1179h-180v144h1388z" />
    <glyph glyph-name="Ccedilla" unicode="&#xc7;" horiz-adv-x="1575" 
d="M1296 475h183.001c-47.333 -162.667 -127.5 -287.667 -240.5 -375s-251.5 -131 -415.5 -131c-84 0 -161 10.333 -231 31s-134.333 52 -193 94c-104 74.667 -182.5 165.5 -235.5 272.5s-79.5 229.167 -79.5 366.5c0 93.333 11.5 178.833 34.5 256.5
s57.833 148.5 104.5 212.5c74 101.333 160.5 178.166 259.5 230.499s207.833 78.5 326.5 78.5c85.333 0 165.666 -13.5 240.999 -40.5s144.333 -67.167 207 -120.5v125h164v-459h-161v129c-63.333 64.667 -130.833 112.834 -202.5 144.501s-149.167 47.5 -232.5 47.5
c-163.333 0 -294.833 -53.5 -394.5 -160.5s-149.5 -248.5 -149.5 -424.5c0 -181.333 51 -327.5 153 -438.5s235.333 -166.5 400 -166.5c104.667 0 198.167 29 280.5 87s142.833 138.333 181.5 241zM573.001 -422l-0.000976562 85.999c50 -11.333 95.833 -20 137.5 -26
s77.834 -9 108.501 -9c40.667 0 71 6.83301 91 20.5s30 34.167 30 61.5c0 34.667 -10.833 59.834 -32.5 75.501s-56.5 23.5 -104.5 23.5c-13.333 0 -23.5 -0.166992 -30.5 -0.5s-13.833 -0.833008 -20.5 -1.5v192h71v-106h23c74 0 130 -15 168 -45s57 -74 57 -132
c0 -59.333 -21 -104.5 -63 -135.5s-104.333 -46.5 -187 -46.5c-28 0 -61.667 3.33301 -101 10s-88.333 17.667 -147 33z" />
    <glyph glyph-name="Egrave" unicode="&#xc8;" horiz-adv-x="1255" 
d="M49 0v152h172v1179h-172v144h1135v-375h-176v231h-592v-461h252v179h172v-545h-172v209h-252v-561h592v258h176v-410h-1135zM786 1620h-106l-281 348h178z" />
    <glyph glyph-name="Eacute" unicode="&#xc9;" horiz-adv-x="1255" 
d="M49 0v152h172v1179h-172v144h1135v-375h-176v231h-592v-461h252v179h172v-545h-172v209h-252v-561h592v258h176v-410h-1135zM512 1620l209 348h178l-281 -348h-106z" />
    <glyph glyph-name="Ecircumflex" unicode="&#xca;" horiz-adv-x="1255" 
d="M49 0v152h172v1179h-172v144h1135v-375h-176v231h-592v-461h252v179h172v-545h-172v209h-252v-561h592v258h176v-410h-1135zM362 1620l197 348h178l197 -348h-107l-178 244l-180 -244h-107z" />
    <glyph glyph-name="Edieresis" unicode="&#xcb;" horiz-adv-x="1255" 
d="M49 0v152h172v1179h-172v144h1135v-375h-176v231h-592v-461h252v179h172v-545h-172v209h-252v-561h592v258h176v-410h-1135zM729 1684v188h160v-188h-160zM409 1684v188h160v-188h-160z" />
    <glyph glyph-name="Igrave" unicode="&#xcc;" horiz-adv-x="645" 
d="M49 0v152h172v1179h-172v144h547v-144h-180v-1179h180v-152h-547zM485 1620h-106l-281 348h178z" />
    <glyph glyph-name="Iacute" unicode="&#xcd;" horiz-adv-x="645" 
d="M49 0v152h172v1179h-172v144h547v-144h-180v-1179h180v-152h-547zM211 1620l209 348h178l-281 -348h-106z" />
    <glyph glyph-name="Icircumflex" unicode="&#xce;" horiz-adv-x="645" 
d="M49 0v152h172v1179h-172v144h547v-144h-180v-1179h180v-152h-547zM61 1620l197 348h178l197 -348h-107l-178 244l-180 -244h-107z" />
    <glyph glyph-name="Idieresis" unicode="&#xcf;" horiz-adv-x="645" 
d="M49 0v152h172v1179h-172v144h547v-144h-180v-1179h180v-152h-547zM428 1684v188h160v-188h-160zM108 1684v188h160v-188h-160z" />
    <glyph glyph-name="Eth" unicode="&#xd0;" horiz-adv-x="1470" 
d="M416 147h173.999c182 0 327.167 55.333 435.5 166s162.5 259 162.5 445c0 183.333 -54.667 324.333 -164 423s-265.666 148 -468.999 148h-139v-485h366v-123h-366v-574zM48.999 0l0.00195312 152.001h172v569h-221v123h221v485h-172v146h549
c111.333 0 198.166 -7.33301 260.499 -22s122.166 -38.334 179.499 -71.001c110 -62 196 -149.167 258 -261.5s93 -237.5 93 -375.5s-31.5 -263.167 -94.5 -375.5s-152.5 -202.833 -268.5 -271.5c-57.333 -34.667 -121.833 -59.667 -193.5 -75s-162.167 -23 -271.5 -23h-512
z" />
    <glyph glyph-name="Ntilde" unicode="&#xd1;" horiz-adv-x="1454" 
d="M49 0v152h172v1179h-172v144h393l545 -971c14.667 -26 28.667 -53.333 42 -82s26 -58.667 38 -90c-5.33301 30 -9.33301 63.5 -12 100.5s-4 80.5 -4 130.5v768h-166v144h530v-144h-174v-1364h-160l-608 1088c-14 25.333 -27.667 52.333 -41 81s-26.333 59 -39 91
c6 -30 10.333 -63.667 13 -101s4 -81 4 -131v-843h186v-152h-547zM1045 1888c-16 -62 -41.1729 -109.5 -75.5059 -142.5s-75.5 -49.5 -123.5 -49.5c-11.333 0 -22.166 0.833008 -32.499 2.5s-21.166 4.16699 -32.499 7.5l-80 27c-8 2.66699 -16.5 4.66699 -25.5 6
s-18.167 2 -27.5 2c-23.333 0 -42.833 -5.16699 -58.5 -15.5s-28.5 -26.5 -38.5 -48.5h-88c14.667 61.333 38.834 107.833 72.501 139.5s75.834 47.5 126.501 47.5c11.333 0 22 -0.666992 32 -2s19 -3.33301 27 -6l78 -29c10.667 -3.33301 21.334 -5.83301 32.001 -7.5
s20.334 -2.5 29.001 -2.5c24 0 44 6 60 18s28.333 29.667 37 53h88z" />
    <glyph glyph-name="Ograve" unicode="&#xd2;" horiz-adv-x="1690" 
d="M285 735c0 -78.667 14.335 -153.666 43.002 -224.999s69.667 -133.333 123 -186c53.333 -54.667 114 -96.334 182 -125.001s139.667 -43 215 -43c158 0 290.333 55.833 397 167.5s160 250.834 160 417.501c0 83.333 -11.5 156.666 -34.5 219.999
s-59.833 123.333 -110.5 180c-56.667 62.667 -118.834 109.667 -186.501 141s-140.834 47 -219.501 47c-74 0 -146 -15 -216 -45s-131.667 -72.333 -185 -127c-56 -56 -98 -119.167 -126 -189.5s-42 -147.833 -42 -232.5zM82.002 737.001
c0 110 19.668 213.003 59.001 309.003s96 180 170 252c71.333 69.333 153.166 121.833 245.499 157.5s192.166 53.5 299.499 53.5c105.333 0 204.5 -19.333 297.5 -58s175.5 -95 247.5 -169c70 -72 122.333 -152.833 157 -242.5s52 -189.834 52 -300.501
c0 -104 -18.167 -201.833 -54.5 -293.5s-89.166 -173.834 -158.499 -246.501c-74.667 -78 -158 -136.167 -250 -174.5s-193.667 -57.5 -305 -57.5c-107.333 0 -205.166 17.667 -293.499 53s-168.833 88.666 -241.5 159.999c-72.667 72 -128.334 155.833 -167.001 251.5
s-58 197.5 -58 305.5zM1007 1620h-106l-281 348h178z" />
    <glyph glyph-name="Oacute" unicode="&#xd3;" horiz-adv-x="1690" 
d="M285 735c0 -78.667 14.335 -153.666 43.002 -224.999s69.667 -133.333 123 -186c53.333 -54.667 114 -96.334 182 -125.001s139.667 -43 215 -43c158 0 290.333 55.833 397 167.5s160 250.834 160 417.501c0 83.333 -11.5 156.666 -34.5 219.999
s-59.833 123.333 -110.5 180c-56.667 62.667 -118.834 109.667 -186.501 141s-140.834 47 -219.501 47c-74 0 -146 -15 -216 -45s-131.667 -72.333 -185 -127c-56 -56 -98 -119.167 -126 -189.5s-42 -147.833 -42 -232.5zM82.002 737.001
c0 110 19.668 213.003 59.001 309.003s96 180 170 252c71.333 69.333 153.166 121.833 245.499 157.5s192.166 53.5 299.499 53.5c105.333 0 204.5 -19.333 297.5 -58s175.5 -95 247.5 -169c70 -72 122.333 -152.833 157 -242.5s52 -189.834 52 -300.501
c0 -104 -18.167 -201.833 -54.5 -293.5s-89.166 -173.834 -158.499 -246.501c-74.667 -78 -158 -136.167 -250 -174.5s-193.667 -57.5 -305 -57.5c-107.333 0 -205.166 17.667 -293.499 53s-168.833 88.666 -241.5 159.999c-72.667 72 -128.334 155.833 -167.001 251.5
s-58 197.5 -58 305.5zM733.003 1620l209 348h178l-281 -348h-106z" />
    <glyph glyph-name="Ocircumflex" unicode="&#xd4;" horiz-adv-x="1690" 
d="M285 735c0 -78.667 14.335 -153.666 43.002 -224.999s69.667 -133.333 123 -186c53.333 -54.667 114 -96.334 182 -125.001s139.667 -43 215 -43c158 0 290.333 55.833 397 167.5s160 250.834 160 417.501c0 83.333 -11.5 156.666 -34.5 219.999
s-59.833 123.333 -110.5 180c-56.667 62.667 -118.834 109.667 -186.501 141s-140.834 47 -219.501 47c-74 0 -146 -15 -216 -45s-131.667 -72.333 -185 -127c-56 -56 -98 -119.167 -126 -189.5s-42 -147.833 -42 -232.5zM82.002 737.001
c0 110 19.668 213.003 59.001 309.003s96 180 170 252c71.333 69.333 153.166 121.833 245.499 157.5s192.166 53.5 299.499 53.5c105.333 0 204.5 -19.333 297.5 -58s175.5 -95 247.5 -169c70 -72 122.333 -152.833 157 -242.5s52 -189.834 52 -300.501
c0 -104 -18.167 -201.833 -54.5 -293.5s-89.166 -173.834 -158.499 -246.501c-74.667 -78 -158 -136.167 -250 -174.5s-193.667 -57.5 -305 -57.5c-107.333 0 -205.166 17.667 -293.499 53s-168.833 88.666 -241.5 159.999c-72.667 72 -128.334 155.833 -167.001 251.5
s-58 197.5 -58 305.5zM583.003 1620l197 348h178l197 -348h-107l-178 244l-180 -244h-107z" />
    <glyph glyph-name="Otilde" unicode="&#xd5;" horiz-adv-x="1690" 
d="M285 735c0 -78.667 14.335 -153.666 43.002 -224.999s69.667 -133.333 123 -186c53.333 -54.667 114 -96.334 182 -125.001s139.667 -43 215 -43c158 0 290.333 55.833 397 167.5s160 250.834 160 417.501c0 83.333 -11.5 156.666 -34.5 219.999
s-59.833 123.333 -110.5 180c-56.667 62.667 -118.834 109.667 -186.501 141s-140.834 47 -219.501 47c-74 0 -146 -15 -216 -45s-131.667 -72.333 -185 -127c-56 -56 -98 -119.167 -126 -189.5s-42 -147.833 -42 -232.5zM82.002 737.001
c0 110 19.668 213.003 59.001 309.003s96 180 170 252c71.333 69.333 153.166 121.833 245.499 157.5s192.166 53.5 299.499 53.5c105.333 0 204.5 -19.333 297.5 -58s175.5 -95 247.5 -169c70 -72 122.333 -152.833 157 -242.5s52 -189.834 52 -300.501
c0 -104 -18.167 -201.833 -54.5 -293.5s-89.166 -173.834 -158.499 -246.501c-74.667 -78 -158 -136.167 -250 -174.5s-193.667 -57.5 -305 -57.5c-107.333 0 -205.166 17.667 -293.499 53s-168.833 88.666 -241.5 159.999c-72.667 72 -128.334 155.833 -167.001 251.5
s-58 197.5 -58 305.5zM1161 1888c-16 -62 -41.1729 -109.5 -75.5059 -142.5s-75.5 -49.5 -123.5 -49.5c-11.333 0 -22.166 0.833008 -32.499 2.5s-21.166 4.16699 -32.499 7.5l-80 27c-8 2.66699 -16.5 4.66699 -25.5 6s-18.167 2 -27.5 2
c-23.333 0 -42.833 -5.16699 -58.5 -15.5s-28.5 -26.5 -38.5 -48.5h-88c14.667 61.333 38.834 107.833 72.501 139.5s75.834 47.5 126.501 47.5c11.333 0 22 -0.666992 32 -2s19 -3.33301 27 -6l78 -29c10.667 -3.33301 21.334 -5.83301 32.001 -7.5
s20.334 -2.5 29.001 -2.5c24 0 44 6 60 18s28.333 29.667 37 53h88z" />
    <glyph glyph-name="Odieresis" unicode="&#xd6;" horiz-adv-x="1690" 
d="M285 735c0 -78.667 14.335 -153.666 43.002 -224.999s69.667 -133.333 123 -186c53.333 -54.667 114 -96.334 182 -125.001s139.667 -43 215 -43c158 0 290.333 55.833 397 167.5s160 250.834 160 417.501c0 83.333 -11.5 156.666 -34.5 219.999
s-59.833 123.333 -110.5 180c-56.667 62.667 -118.834 109.667 -186.501 141s-140.834 47 -219.501 47c-74 0 -146 -15 -216 -45s-131.667 -72.333 -185 -127c-56 -56 -98 -119.167 -126 -189.5s-42 -147.833 -42 -232.5zM82.002 737.001
c0 110 19.668 213.003 59.001 309.003s96 180 170 252c71.333 69.333 153.166 121.833 245.499 157.5s192.166 53.5 299.499 53.5c105.333 0 204.5 -19.333 297.5 -58s175.5 -95 247.5 -169c70 -72 122.333 -152.833 157 -242.5s52 -189.834 52 -300.501
c0 -104 -18.167 -201.833 -54.5 -293.5s-89.166 -173.834 -158.499 -246.501c-74.667 -78 -158 -136.167 -250 -174.5s-193.667 -57.5 -305 -57.5c-107.333 0 -205.166 17.667 -293.499 53s-168.833 88.666 -241.5 159.999c-72.667 72 -128.334 155.833 -167.001 251.5
s-58 197.5 -58 305.5zM950.003 1684v188h160v-188h-160zM630.003 1684v188h160v-188h-160z" />
    <glyph glyph-name="multiply" unicode="&#xd7;" horiz-adv-x="1706" 
d="M858 692l475 477l82 -82l-475 -477l475 -475l-82 -82l-475 475l-477 -475l-80 82l475 475l-475 477l80 82z" />
    <glyph glyph-name="Oslash" unicode="&#xd8;" horiz-adv-x="1690" 
d="M72 -92l227.002 279.999c-71.333 74 -125.333 157.333 -162 250s-55 192.334 -55 299.001c0 110 19.667 213 59 309s96 180 170 252c71.333 69.333 153.166 121.833 245.499 157.5s192.166 53.5 299.499 53.5c76 0 148.833 -10 218.5 -30s134.167 -49.333 193.5 -88
l145 172h170l-209 -256c80.667 -75.333 140.167 -159.166 178.5 -251.499s57.5 -197.833 57.5 -316.5c0 -104 -18.167 -201.833 -54.5 -293.5s-89.166 -173.834 -158.499 -246.501c-75.333 -78.667 -158.833 -136.667 -250.5 -174s-195.834 -56 -312.501 -56
c-81.333 0 -157.5 10.833 -228.5 32.5s-140.5 55.167 -208.5 100.5l-153 -194h-172zM524.002 259.999c51.333 -35.333 104.167 -61.499 158.5 -78.499s112.833 -25.5 175.5 -25.5c76 0 148.5 15.667 217.5 47s129.5 76.333 181.5 135
c48.667 53.333 85.5 114.166 110.5 182.499s37.5 141.833 37.5 220.5c0 87.333 -12.5 164.5 -37.5 231.5s-63.833 127.167 -116.5 180.5zM426.003 350l724.998 890.999c-44 30 -90 52.5 -138 67.5s-98.333 22.5 -151 22.5c-56 0 -111.167 -8.5 -165.5 -25.5
s-106.166 -41.833 -155.499 -74.5c-83.333 -55.333 -146.833 -125.5 -190.5 -210.5s-65.5 -180.167 -65.5 -285.5c0 -72.667 11.833 -141.667 35.5 -207s58.834 -124.666 105.501 -177.999z" />
    <glyph glyph-name="Ugrave" unicode="&#xd9;" horiz-adv-x="1456" 
d="M596 1475l-0.000976562 -143.999h-178v-835c0 -118.667 26.167 -206.834 78.5 -264.501s131.833 -86.5 238.5 -86.5c102.667 0 179.834 28 231.501 84s77.5 138.667 77.5 248v854h-178v144h547v-144h-172v-827c0 -174 -44.5 -306.667 -133.5 -398
s-218.5 -137 -388.5 -137c-160 0 -282.667 46.833 -368 140.5s-128 228.5 -128 404.5v817h-176v144h549zM890.999 1620h-106l-281 348h178z" />
    <glyph glyph-name="Uacute" unicode="&#xda;" horiz-adv-x="1456" 
d="M596 1475l-0.000976562 -143.999h-178v-835c0 -118.667 26.167 -206.834 78.5 -264.501s131.833 -86.5 238.5 -86.5c102.667 0 179.834 28 231.501 84s77.5 138.667 77.5 248v854h-178v144h547v-144h-172v-827c0 -174 -44.5 -306.667 -133.5 -398
s-218.5 -137 -388.5 -137c-160 0 -282.667 46.833 -368 140.5s-128 228.5 -128 404.5v817h-176v144h549zM616.999 1620l209 348h178l-281 -348h-106z" />
    <glyph glyph-name="Ucircumflex" unicode="&#xdb;" horiz-adv-x="1456" 
d="M596 1475l-0.000976562 -143.999h-178v-835c0 -118.667 26.167 -206.834 78.5 -264.501s131.833 -86.5 238.5 -86.5c102.667 0 179.834 28 231.501 84s77.5 138.667 77.5 248v854h-178v144h547v-144h-172v-827c0 -174 -44.5 -306.667 -133.5 -398
s-218.5 -137 -388.5 -137c-160 0 -282.667 46.833 -368 140.5s-128 228.5 -128 404.5v817h-176v144h549zM466.999 1620l197 348h178l197 -348h-107l-178 244l-180 -244h-107z" />
    <glyph glyph-name="Udieresis" unicode="&#xdc;" horiz-adv-x="1456" 
d="M596 1475l-0.000976562 -143.999h-178v-835c0 -118.667 26.167 -206.834 78.5 -264.501s131.833 -86.5 238.5 -86.5c102.667 0 179.834 28 231.501 84s77.5 138.667 77.5 248v854h-178v144h547v-144h-172v-827c0 -174 -44.5 -306.667 -133.5 -398
s-218.5 -137 -388.5 -137c-160 0 -282.667 46.833 -368 140.5s-128 228.5 -128 404.5v817h-176v144h549zM833.999 1684v188h160v-188h-160zM513.999 1684v188h160v-188h-160z" />
    <glyph glyph-name="Yacute" unicode="&#xdd;" horiz-adv-x="1352" 
d="M403 0v152h170v526l-362 653h-170v144h534v-144h-172l273 -489l270 489h-170v144h531v-144h-174l-365 -653v-526h172v-152h-537zM565 1620l209 348h178l-281 -348h-106z" />
    <glyph glyph-name="Thorn" unicode="&#xde;" horiz-adv-x="1255" 
d="M416 1077v-603.999h266c96 0 169.167 26.167 219.5 78.5s75.5 128.5 75.5 228.5c0 101.333 -31.833 176.166 -95.5 224.499s-162.167 72.5 -295.5 72.5h-170zM49 0.000976562l0.000976562 152h172v1179h-172v144h539v-152h-172v-100h239
c165.333 0 293.5 -38.667 384.5 -116s136.5 -186.333 136.5 -327c0 -73.333 -14.667 -141 -44 -203s-71.333 -115 -126 -159c-40 -32 -87.333 -55 -142 -69s-124.334 -21 -209.001 -21h-239v-176h184v-152h-551z" />
    <glyph glyph-name="germandbls" unicode="&#xdf;" horiz-adv-x="1204" 
d="M41 0l-0.00195312 141.002h149v938c0 122.667 35 217.5 105 284.5s168.333 100.5 295 100.5c117.333 0 212.5 -31.333 285.5 -94s109.5 -143.334 109.5 -242.001c0 -68 -14.5 -126.167 -43.5 -174.5s-73.833 -88.166 -134.5 -119.499v-19
c96.667 -18.667 171 -63.167 223 -133.5s78 -161.5 78 -273.5c0 -143.333 -41.5 -252 -124.5 -326s-204.833 -111 -365.5 -111c-20 0 -35.167 0.166992 -45.5 0.5s-20.166 1.16602 -29.499 2.49902v145c7.33301 -0.666992 15.5 -1.16699 24.5 -1.5s21.833 -0.5 38.5 -0.5
c112 0 194.667 23.833 248 71.5s80 122.167 80 223.5c0 105.333 -29.833 186.166 -89.5 242.499s-145.167 84.5 -256.5 84.5c-13.333 0 -23.666 -0.166992 -30.999 -0.5s-14 -0.833008 -20 -1.5v133c88.667 3.33301 157.167 25.833 205.5 67.5s72.5 99.167 72.5 172.5
c0 68 -20.5 122.167 -61.5 162.5s-96.167 60.5 -165.5 60.5c-75.333 0 -132.5 -22.167 -171.5 -66.5s-58.5 -109.5 -58.5 -195.5v-1071h-317z" />
    <glyph glyph-name="agrave" unicode="&#xe0;" horiz-adv-x="1118" 
d="M498 510c-74 0 -132.832 -18.001 -176.499 -54.001s-65.5 -84.333 -65.5 -145c0 -59.333 22.333 -107.166 67 -143.499s103.667 -54.5 177 -54.5s132.166 18.333 176.499 55s66.5 85 66.5 145c0 58.667 -22.333 106.167 -67 142.5s-104 54.5 -178 54.5zM201.001 886.999
c48 23.333 99.5029 41 154.503 53s111.833 18 170.5 18c135.333 0 234 -30.333 296 -91s93 -158 93 -292v-434h150v-141h-311v84c-44.667 -37.333 -91.834 -65.5 -141.501 -84.5s-100.834 -28.5 -153.501 -28.5c-114.667 0 -206.834 31.5 -276.501 94.5
s-104.5 145.5 -104.5 247.5c0 101.333 34.667 184 104 248s159 96 269 96c48.667 0 97 -8.33301 145 -25s97 -43 147 -79v92c0 57.333 -18.833 100.333 -56.5 129s-94.5 43 -170.5 43c-44 0 -86.833 -5.16699 -128.5 -15.5s-81.5 -25.5 -119.5 -45.5zM676.004 1069h-106
l-281 348h178z" />
    <glyph glyph-name="aacute" unicode="&#xe1;" horiz-adv-x="1118" 
d="M498 510c-74 0 -132.832 -18.001 -176.499 -54.001s-65.5 -84.333 -65.5 -145c0 -59.333 22.333 -107.166 67 -143.499s103.667 -54.5 177 -54.5s132.166 18.333 176.499 55s66.5 85 66.5 145c0 58.667 -22.333 106.167 -67 142.5s-104 54.5 -178 54.5zM201.001 886.999
c48 23.333 99.5029 41 154.503 53s111.833 18 170.5 18c135.333 0 234 -30.333 296 -91s93 -158 93 -292v-434h150v-141h-311v84c-44.667 -37.333 -91.834 -65.5 -141.501 -84.5s-100.834 -28.5 -153.501 -28.5c-114.667 0 -206.834 31.5 -276.501 94.5
s-104.5 145.5 -104.5 247.5c0 101.333 34.667 184 104 248s159 96 269 96c48.667 0 97 -8.33301 145 -25s97 -43 147 -79v92c0 57.333 -18.833 100.333 -56.5 129s-94.5 43 -170.5 43c-44 0 -86.833 -5.16699 -128.5 -15.5s-81.5 -25.5 -119.5 -45.5zM402.004 1069l209 348
h178l-281 -348h-106z" />
    <glyph glyph-name="acircumflex" unicode="&#xe2;" horiz-adv-x="1118" 
d="M498 510c-74 0 -132.832 -18.001 -176.499 -54.001s-65.5 -84.333 -65.5 -145c0 -59.333 22.333 -107.166 67 -143.499s103.667 -54.5 177 -54.5s132.166 18.333 176.499 55s66.5 85 66.5 145c0 58.667 -22.333 106.167 -67 142.5s-104 54.5 -178 54.5zM201.001 886.999
c48 23.333 99.5029 41 154.503 53s111.833 18 170.5 18c135.333 0 234 -30.333 296 -91s93 -158 93 -292v-434h150v-141h-311v84c-44.667 -37.333 -91.834 -65.5 -141.501 -84.5s-100.834 -28.5 -153.501 -28.5c-114.667 0 -206.834 31.5 -276.501 94.5
s-104.5 145.5 -104.5 247.5c0 101.333 34.667 184 104 248s159 96 269 96c48.667 0 97 -8.33301 145 -25s97 -43 147 -79v92c0 57.333 -18.833 100.333 -56.5 129s-94.5 43 -170.5 43c-44 0 -86.833 -5.16699 -128.5 -15.5s-81.5 -25.5 -119.5 -45.5zM252.004 1069l197 348
h178l197 -348h-107l-178 244l-180 -244h-107z" />
    <glyph glyph-name="atilde" unicode="&#xe3;" horiz-adv-x="1118" 
d="M498 510c-74 0 -132.832 -18.001 -176.499 -54.001s-65.5 -84.333 -65.5 -145c0 -59.333 22.333 -107.166 67 -143.499s103.667 -54.5 177 -54.5s132.166 18.333 176.499 55s66.5 85 66.5 145c0 58.667 -22.333 106.167 -67 142.5s-104 54.5 -178 54.5zM201.001 886.999
c48 23.333 99.5029 41 154.503 53s111.833 18 170.5 18c135.333 0 234 -30.333 296 -91s93 -158 93 -292v-434h150v-141h-311v84c-44.667 -37.333 -91.834 -65.5 -141.501 -84.5s-100.834 -28.5 -153.501 -28.5c-114.667 0 -206.834 31.5 -276.501 94.5
s-104.5 145.5 -104.5 247.5c0 101.333 34.667 184 104 248s159 96 269 96c48.667 0 97 -8.33301 145 -25s97 -43 147 -79v92c0 57.333 -18.833 100.333 -56.5 129s-94.5 43 -170.5 43c-44 0 -86.833 -5.16699 -128.5 -15.5s-81.5 -25.5 -119.5 -45.5zM830.004 1337
c-16 -62 -41.1729 -109.5 -75.5059 -142.5s-75.5 -49.5 -123.5 -49.5c-11.333 0 -22.166 0.833008 -32.499 2.5s-21.166 4.16699 -32.499 7.5l-80 27c-8 2.66699 -16.5 4.66699 -25.5 6s-18.167 2 -27.5 2c-23.333 0 -42.833 -5.16699 -58.5 -15.5s-28.5 -26.5 -38.5 -48.5
h-88c14.667 61.333 38.834 107.833 72.501 139.5s75.834 47.5 126.501 47.5c11.333 0 22 -0.666992 32 -2s19 -3.33301 27 -6l78 -29c10.667 -3.33301 21.334 -5.83301 32.001 -7.5s20.334 -2.5 29.001 -2.5c24 0 44 6 60 18s28.333 29.667 37 53h88z" />
    <glyph glyph-name="adieresis" unicode="&#xe4;" horiz-adv-x="1118" 
d="M498 510c-74 0 -132.832 -18.001 -176.499 -54.001s-65.5 -84.333 -65.5 -145c0 -59.333 22.333 -107.166 67 -143.499s103.667 -54.5 177 -54.5s132.166 18.333 176.499 55s66.5 85 66.5 145c0 58.667 -22.333 106.167 -67 142.5s-104 54.5 -178 54.5zM201.001 886.999
c48 23.333 99.5029 41 154.503 53s111.833 18 170.5 18c135.333 0 234 -30.333 296 -91s93 -158 93 -292v-434h150v-141h-311v84c-44.667 -37.333 -91.834 -65.5 -141.501 -84.5s-100.834 -28.5 -153.501 -28.5c-114.667 0 -206.834 31.5 -276.501 94.5
s-104.5 145.5 -104.5 247.5c0 101.333 34.667 184 104 248s159 96 269 96c48.667 0 97 -8.33301 145 -25s97 -43 147 -79v92c0 57.333 -18.833 100.333 -56.5 129s-94.5 43 -170.5 43c-44 0 -86.833 -5.16699 -128.5 -15.5s-81.5 -25.5 -119.5 -45.5zM619.004 1133v188h160
v-188h-160zM299.004 1133v188h160v-188h-160z" />
    <glyph glyph-name="aring" unicode="&#xe5;" horiz-adv-x="1118" 
d="M436 1241c0 -33.333 11.833 -61.833 35.5 -85.5s52.167 -35.5 85.5 -35.5s61.5 11.667 84.5 35s34.5 52 34.5 86c0 32.667 -11.667 60.667 -35 84s-51.333 35 -84 35s-61 -11.667 -85 -35s-36 -51.333 -36 -84zM338 1241c0 61.333 20.832 112.833 62.499 154.5
s93.167 62.5 154.5 62.5c62 0 114 -20.833 156 -62.5s63 -93.167 63 -154.5s-21.167 -113.166 -63.5 -155.499s-94.166 -63.5 -155.499 -63.5c-60.667 0 -112 21.167 -154 63.5s-63 94.166 -63 155.499zM200.999 887c48 23.333 99.5029 41 154.503 53s111.833 18 170.5 18
c135.333 0 234 -30.333 296 -91s93 -158 93 -292v-434h150v-141h-311v84c-44.667 -37.333 -91.834 -65.5 -141.501 -84.5s-100.834 -28.5 -153.501 -28.5c-114.667 0 -206.834 31.5 -276.501 94.5s-104.5 145.5 -104.5 247.5c0 101.333 34.667 184 104 248s159 96 269 96
c48.667 0 97 -8.33301 145 -25s97 -43 147 -79v92c0 57.333 -18.833 100.333 -56.5 129s-94.5 43 -170.5 43c-44 0 -86.833 -5.16699 -128.5 -15.5s-81.5 -25.5 -119.5 -45.5zM498.002 510c-74 0 -132.832 -18.001 -176.499 -54.001s-65.5 -84.333 -65.5 -145
c0 -59.333 22.333 -107.166 67 -143.499s103.667 -54.5 177 -54.5s132.166 18.333 176.499 55s66.5 85 66.5 145c0 58.667 -22.333 106.167 -67 142.5s-104 54.5 -178 54.5z" />
    <glyph glyph-name="ae" unicode="&#xe6;" horiz-adv-x="1776" 
d="M1520 274l124.997 -67.0029c-52.667 -78.667 -114.667 -137.667 -186 -177s-153 -59 -245 -59c-78.667 0 -149.5 14.5 -212.5 43.5s-118.833 72.5 -167.5 130.5c-33.333 -57.333 -80.5 -100.666 -141.5 -129.999s-135.5 -44 -223.5 -44c-120 0 -215.167 31 -285.5 93
s-105.5 145 -105.5 249c0 102 34.833 184.833 104.5 248.5s160.5 95.5 272.5 95.5c50.667 0 99.334 -8.33301 146.001 -25s94 -43 142 -79v92c0 57.333 -18.833 100.333 -56.5 129s-93.834 43 -168.501 43c-47.333 0 -91.833 -5.16699 -133.5 -15.5
s-80.5 -25.5 -116.5 -45.5l-67 131c48 22.667 98.333 39.834 151 51.501s106.667 17.5 162 17.5c90 0 162.833 -11.167 218.5 -33.5s100.834 -58.833 135.501 -109.5c47.333 47.333 100.333 83 159 107s122 36 190 36c144 0 259.833 -47.5 347.5 -142.5
s131.5 -221.5 131.5 -379.5v-20h-789c10 -92.667 43.5 -165.667 100.5 -219s129.5 -80 217.5 -80c60.667 0 114.834 12.833 162.501 38.5s91.834 65.834 132.501 120.501zM906.997 546.997h617.001c-14.667 83.333 -49.334 149.166 -104.001 197.499
s-121.667 72.5 -201 72.5c-80.667 0 -148.167 -23.667 -202.5 -71s-90.833 -113.666 -109.5 -198.999zM497.998 509.997c-74.667 0 -133.667 -18.001 -177 -54.001s-65 -84.333 -65 -145c0 -60 21 -107.667 63 -143s98.667 -53 170 -53c79.333 0 141.166 17.667 185.499 53
s66.5 84.333 66.5 147c0 60.667 -21.667 108.334 -65 143.001s-102.666 52 -177.999 52z" />
    <glyph glyph-name="ccedilla" unicode="&#xe7;" horiz-adv-x="1020" 
d="M866 287l103.001 -94c-64 -74.667 -131.333 -130.667 -202 -168s-144.667 -56 -222 -56c-137.333 0 -250.166 46 -338.499 138s-132.5 209.333 -132.5 352c0 143.333 43.5 262.333 130.5 357s194.167 142 321.5 142c53.333 0 103.166 -7.83301 149.499 -23.5
s90.166 -39.834 131.499 -72.501v68h127v-316h-127v84c-32 38.667 -69.5 68.167 -112.5 88.5s-88.833 30.5 -137.5 30.5c-88.667 0 -161.667 -33.167 -219 -99.5s-86 -151.166 -86 -254.499c0 -100 29.167 -182 87.5 -246s132.833 -96 223.5 -96c50 0 99 13 147 39
s100 68.333 156 127zM305.001 -422l-0.000976562 85.999c50 -11.333 95.833 -20 137.5 -26s77.834 -9 108.501 -9c40.667 0 71 6.83301 91 20.5s30 34.167 30 61.5c0 34.667 -10.833 59.834 -32.5 75.501s-56.5 23.5 -104.5 23.5c-13.333 0 -23.5 -0.166992 -30.5 -0.5
s-13.833 -0.833008 -20.5 -1.5v192h71v-106h23c74 0 130 -15 168 -45s57 -74 57 -132c0 -59.333 -21 -104.5 -63 -135.5s-104.333 -46.5 -187 -46.5c-28 0 -61.667 3.33301 -101 10s-88.333 17.667 -147 33z" />
    <glyph glyph-name="egrave" unicode="&#xe8;" horiz-adv-x="1114" 
d="M254 547h614.002c-15.333 84 -49.833 150 -103.5 198s-119.5 72 -197.5 72c-80.667 0 -148.334 -23.5 -203.001 -70.5s-91.334 -113.5 -110.001 -199.5zM864.002 274l127.001 -67c-52 -78.667 -113.833 -137.667 -185.5 -177s-153.167 -59 -244.5 -59
c-140.667 0 -257.334 46.333 -350.001 139s-139 209 -139 349c0 140.667 46.667 258.667 140 354s208.333 143 345 143c146 0 263.333 -47.5 352 -142.5s133 -221.5 133 -379.5v-20h-790c10 -92 43.667 -164.833 101 -218.5s130 -80.5 218 -80.5c60 0 114 13 162 39
s91.667 66 131 120zM700.003 1069h-106l-281 348h178z" />
    <glyph glyph-name="eacute" unicode="&#xe9;" horiz-adv-x="1114" 
d="M254 547h614.002c-15.333 84 -49.833 150 -103.5 198s-119.5 72 -197.5 72c-80.667 0 -148.334 -23.5 -203.001 -70.5s-91.334 -113.5 -110.001 -199.5zM864.002 274l127.001 -67c-52 -78.667 -113.833 -137.667 -185.5 -177s-153.167 -59 -244.5 -59
c-140.667 0 -257.334 46.333 -350.001 139s-139 209 -139 349c0 140.667 46.667 258.667 140 354s208.333 143 345 143c146 0 263.333 -47.5 352 -142.5s133 -221.5 133 -379.5v-20h-790c10 -92 43.667 -164.833 101 -218.5s130 -80.5 218 -80.5c60 0 114 13 162 39
s91.667 66 131 120zM426.003 1069l209 348h178l-281 -348h-106z" />
    <glyph glyph-name="ecircumflex" unicode="&#xea;" horiz-adv-x="1114" 
d="M254 547h614.002c-15.333 84 -49.833 150 -103.5 198s-119.5 72 -197.5 72c-80.667 0 -148.334 -23.5 -203.001 -70.5s-91.334 -113.5 -110.001 -199.5zM864.002 274l127.001 -67c-52 -78.667 -113.833 -137.667 -185.5 -177s-153.167 -59 -244.5 -59
c-140.667 0 -257.334 46.333 -350.001 139s-139 209 -139 349c0 140.667 46.667 258.667 140 354s208.333 143 345 143c146 0 263.333 -47.5 352 -142.5s133 -221.5 133 -379.5v-20h-790c10 -92 43.667 -164.833 101 -218.5s130 -80.5 218 -80.5c60 0 114 13 162 39
s91.667 66 131 120zM276.003 1069l197 348h178l197 -348h-107l-178 244l-180 -244h-107z" />
    <glyph glyph-name="edieresis" unicode="&#xeb;" horiz-adv-x="1114" 
d="M254 547h614.002c-15.333 84 -49.833 150 -103.5 198s-119.5 72 -197.5 72c-80.667 0 -148.334 -23.5 -203.001 -70.5s-91.334 -113.5 -110.001 -199.5zM864.002 274l127.001 -67c-52 -78.667 -113.833 -137.667 -185.5 -177s-153.167 -59 -244.5 -59
c-140.667 0 -257.334 46.333 -350.001 139s-139 209 -139 349c0 140.667 46.667 258.667 140 354s208.333 143 345 143c146 0 263.333 -47.5 352 -142.5s133 -221.5 133 -379.5v-20h-790c10 -92 43.667 -164.833 101 -218.5s130 -80.5 218 -80.5c60 0 114 13 162 39
s91.667 66 131 120zM643.003 1133v188h160v-188h-160zM323.003 1133v188h160v-188h-160z" />
    <glyph glyph-name="igrave" unicode="&#xec;" horiz-adv-x="614" 
d="M571 0h-495v141h155v650h-155v139h330v-789h165v-141zM444 1069h-106l-281 348h178z" />
    <glyph glyph-name="iacute" unicode="&#xed;" horiz-adv-x="614" 
d="M571 0h-495v141h155v650h-155v139h330v-789h165v-141zM170 1069l209 348h178l-281 -348h-106z" />
    <glyph glyph-name="icircumflex" unicode="&#xee;" horiz-adv-x="614" 
d="M571 0h-495v141h155v650h-155v139h330v-789h165v-141zM20 1069l197 348h178l197 -348h-107l-178 244l-180 -244h-107z" />
    <glyph glyph-name="idieresis" unicode="&#xef;" horiz-adv-x="614" 
d="M571 0h-495v141h155v650h-155v139h330v-789h165v-141zM387 1133v188h160v-188h-160zM67 1133v188h160v-188h-160z" />
    <glyph glyph-name="eth" unicode="&#xf0;" horiz-adv-x="1128" 
d="M778 895c-30.667 51.333 -62.998 98.668 -96.998 142.001s-70 82.666 -108 117.999l-202 -137l-74 98l190 127c-23.333 23.333 -46.833 45.5 -70.5 66.5s-47.834 41.167 -72.501 60.5l98 94l37 -31l123 -106l203 135l72 -96l-185 -125
c124.667 -132 216.667 -258.833 276 -380.5s89 -244.5 89 -368.5c0 -150 -47.167 -274.333 -141.5 -373s-211.833 -148 -352.5 -148c-64 0 -126 12.667 -186 38s-113.333 61.333 -160 108c-46 46 -81.667 99.333 -107 160s-38 123.334 -38 188.001s12.667 127.167 38 187.5
s61 113.166 107 158.499c45.333 47.333 97.666 83.333 156.999 108s122.333 37 189 37c36 0 71.833 -5 107.5 -15s71.5 -25.333 107.5 -46zM563.002 813.002c-86.667 0 -160.834 -34.001 -222.501 -102.001s-92.5 -150 -92.5 -246c0 -95.333 31 -176.833 93 -244.5
s136 -101.5 222 -101.5c86.667 0 161.334 33.833 224.001 101.5s94 149.167 94 244.5c0 96.667 -31 178.834 -93 246.501s-137 101.5 -225 101.5z" />
    <glyph glyph-name="ntilde" unicode="&#xf1;" horiz-adv-x="1241" 
d="M571 0l-496.998 -0.000976562v141h157v652h-157v137h325v-135c56.667 56 113.167 97.167 169.5 123.5s116.166 39.5 179.499 39.5c102 0 176.167 -31.167 222.5 -93.5s69.5 -162.833 69.5 -301.5v-422h148v-141h-475v141h153v473c0 69.333 -13.167 120.5 -39.5 153.5
s-66.833 49.5 -121.5 49.5c-47.333 0 -96.333 -14.167 -147 -42.5s-102.334 -70.166 -155.001 -125.499v-508h168v-141zM912.002 1337c-16 -62 -41.1729 -109.5 -75.5059 -142.5s-75.5 -49.5 -123.5 -49.5c-11.333 0 -22.166 0.833008 -32.499 2.5
s-21.166 4.16699 -32.499 7.5l-80 27c-8 2.66699 -16.5 4.66699 -25.5 6s-18.167 2 -27.5 2c-23.333 0 -42.833 -5.16699 -58.5 -15.5s-28.5 -26.5 -38.5 -48.5h-88c14.667 61.333 38.834 107.833 72.501 139.5s75.834 47.5 126.501 47.5c11.333 0 22 -0.666992 32 -2
s19 -3.33301 27 -6l78 -29c10.667 -3.33301 21.334 -5.83301 32.001 -7.5s20.334 -2.5 29.001 -2.5c24 0 44 6 60 18s28.333 29.667 37 53h88z" />
    <glyph glyph-name="ograve" unicode="&#xf2;" horiz-adv-x="1128" 
d="M248 465c0 -95.333 31 -176.834 93 -244.501s136 -101.5 222 -101.5c86.667 0 161.334 33.833 224.001 101.5s94 149.167 94 244.5c0 96.667 -31 178.834 -93 246.501s-137 101.5 -225 101.5c-86.667 0 -160.834 -34 -222.501 -102s-92.5 -150 -92.5 -246zM72 464.999
c0 64.667 12.6641 127.166 37.9971 187.499s61 113.166 107 158.499c46.667 47.333 99.334 83.333 158.001 108s121.334 37 188.001 37c67.333 0 131 -12.333 191 -37s113 -60.667 159 -108c46.667 -45.333 82.334 -97.666 107.001 -156.999s37 -122.333 37 -189
c0 -66 -12.5 -129 -37.5 -189s-60.5 -113 -106.5 -159c-46 -46.667 -99.5 -82.667 -160.5 -108s-124.167 -38 -189.5 -38c-63.333 0 -124.833 12.667 -184.5 38s-113.5 61.333 -161.5 108c-46 46 -81.667 99.333 -107 160s-38 123.334 -38 188.001zM701.997 1069h-106
l-281 348h178z" />
    <glyph glyph-name="oacute" unicode="&#xf3;" horiz-adv-x="1128" 
d="M248 465c0 -95.333 31 -176.834 93 -244.501s136 -101.5 222 -101.5c86.667 0 161.334 33.833 224.001 101.5s94 149.167 94 244.5c0 96.667 -31 178.834 -93 246.501s-137 101.5 -225 101.5c-86.667 0 -160.834 -34 -222.501 -102s-92.5 -150 -92.5 -246zM72 464.999
c0 64.667 12.6641 127.166 37.9971 187.499s61 113.166 107 158.499c46.667 47.333 99.334 83.333 158.001 108s121.334 37 188.001 37c67.333 0 131 -12.333 191 -37s113 -60.667 159 -108c46.667 -45.333 82.334 -97.666 107.001 -156.999s37 -122.333 37 -189
c0 -66 -12.5 -129 -37.5 -189s-60.5 -113 -106.5 -159c-46 -46.667 -99.5 -82.667 -160.5 -108s-124.167 -38 -189.5 -38c-63.333 0 -124.833 12.667 -184.5 38s-113.5 61.333 -161.5 108c-46 46 -81.667 99.333 -107 160s-38 123.334 -38 188.001zM427.997 1069l209 348
h178l-281 -348h-106z" />
    <glyph glyph-name="ocircumflex" unicode="&#xf4;" horiz-adv-x="1128" 
d="M248 465c0 -95.333 31 -176.834 93 -244.501s136 -101.5 222 -101.5c86.667 0 161.334 33.833 224.001 101.5s94 149.167 94 244.5c0 96.667 -31 178.834 -93 246.501s-137 101.5 -225 101.5c-86.667 0 -160.834 -34 -222.501 -102s-92.5 -150 -92.5 -246zM72 464.999
c0 64.667 12.6641 127.166 37.9971 187.499s61 113.166 107 158.499c46.667 47.333 99.334 83.333 158.001 108s121.334 37 188.001 37c67.333 0 131 -12.333 191 -37s113 -60.667 159 -108c46.667 -45.333 82.334 -97.666 107.001 -156.999s37 -122.333 37 -189
c0 -66 -12.5 -129 -37.5 -189s-60.5 -113 -106.5 -159c-46 -46.667 -99.5 -82.667 -160.5 -108s-124.167 -38 -189.5 -38c-63.333 0 -124.833 12.667 -184.5 38s-113.5 61.333 -161.5 108c-46 46 -81.667 99.333 -107 160s-38 123.334 -38 188.001zM277.997 1069l197 348
h178l197 -348h-107l-178 244l-180 -244h-107z" />
    <glyph glyph-name="otilde" unicode="&#xf5;" horiz-adv-x="1128" 
d="M248 465c0 -95.333 31 -176.834 93 -244.501s136 -101.5 222 -101.5c86.667 0 161.334 33.833 224.001 101.5s94 149.167 94 244.5c0 96.667 -31 178.834 -93 246.501s-137 101.5 -225 101.5c-86.667 0 -160.834 -34 -222.501 -102s-92.5 -150 -92.5 -246zM72 464.999
c0 64.667 12.6641 127.166 37.9971 187.499s61 113.166 107 158.499c46.667 47.333 99.334 83.333 158.001 108s121.334 37 188.001 37c67.333 0 131 -12.333 191 -37s113 -60.667 159 -108c46.667 -45.333 82.334 -97.666 107.001 -156.999s37 -122.333 37 -189
c0 -66 -12.5 -129 -37.5 -189s-60.5 -113 -106.5 -159c-46 -46.667 -99.5 -82.667 -160.5 -108s-124.167 -38 -189.5 -38c-63.333 0 -124.833 12.667 -184.5 38s-113.5 61.333 -161.5 108c-46 46 -81.667 99.333 -107 160s-38 123.334 -38 188.001zM855.997 1337
c-16 -62 -41.1729 -109.5 -75.5059 -142.5s-75.5 -49.5 -123.5 -49.5c-11.333 0 -22.166 0.833008 -32.499 2.5s-21.166 4.16699 -32.499 7.5l-80 27c-8 2.66699 -16.5 4.66699 -25.5 6s-18.167 2 -27.5 2c-23.333 0 -42.833 -5.16699 -58.5 -15.5s-28.5 -26.5 -38.5 -48.5
h-88c14.667 61.333 38.834 107.833 72.501 139.5s75.834 47.5 126.501 47.5c11.333 0 22 -0.666992 32 -2s19 -3.33301 27 -6l78 -29c10.667 -3.33301 21.334 -5.83301 32.001 -7.5s20.334 -2.5 29.001 -2.5c24 0 44 6 60 18s28.333 29.667 37 53h88z" />
    <glyph glyph-name="odieresis" unicode="&#xf6;" horiz-adv-x="1128" 
d="M248 465c0 -95.333 31 -176.834 93 -244.501s136 -101.5 222 -101.5c86.667 0 161.334 33.833 224.001 101.5s94 149.167 94 244.5c0 96.667 -31 178.834 -93 246.501s-137 101.5 -225 101.5c-86.667 0 -160.834 -34 -222.501 -102s-92.5 -150 -92.5 -246zM72 464.999
c0 64.667 12.6641 127.166 37.9971 187.499s61 113.166 107 158.499c46.667 47.333 99.334 83.333 158.001 108s121.334 37 188.001 37c67.333 0 131 -12.333 191 -37s113 -60.667 159 -108c46.667 -45.333 82.334 -97.666 107.001 -156.999s37 -122.333 37 -189
c0 -66 -12.5 -129 -37.5 -189s-60.5 -113 -106.5 -159c-46 -46.667 -99.5 -82.667 -160.5 -108s-124.167 -38 -189.5 -38c-63.333 0 -124.833 12.667 -184.5 38s-113.5 61.333 -161.5 108c-46 46 -81.667 99.333 -107 160s-38 123.334 -38 188.001zM644.997 1133v188h160
v-188h-160zM324.997 1133v188h160v-188h-160z" />
    <glyph glyph-name="divide" unicode="&#xf7;" horiz-adv-x="1706" 
d="M854 365c31.333 0 58.333 -11.333 81 -34s34 -49.667 34 -81s-11.167 -58.333 -33.5 -81s-49.5 -34 -81.5 -34s-59.167 11.167 -81.5 33.5s-33.5 49.5 -33.5 81.5s11.333 59.167 34 81.5s49.667 33.5 81 33.5zM1452 670v-117h-1198v117h1198zM854 1085
c32 0 59.167 -11.167 81.5 -33.5s33.5 -49.166 33.5 -80.499c0 -32 -11.167 -59.167 -33.5 -81.5s-49.5 -33.5 -81.5 -33.5c-32.667 0 -60 11.167 -82 33.5s-33 49.5 -33 81.5c0 31.333 11.333 58.166 34 80.499s49.667 33.5 81 33.5z" />
    <glyph glyph-name="oslash" unicode="&#xf8;" horiz-adv-x="1128" 
d="M147 -158l-138.999 0.00195312l209 275c-46.667 45.333 -82.5 98.166 -107.5 158.499s-37.5 123.5 -37.5 189.5c0 136 48.167 252.167 144.5 348.5s213.166 144.5 350.499 144.5c42.667 0 84.667 -5.66699 126 -17s82 -28.666 122 -51.999l158 209h139l-211 -275
c52 -48.667 91 -102.834 117 -162.501s39 -124.834 39 -195.501c0 -136.667 -48.167 -253.167 -144.5 -349.5s-213.5 -144.5 -351.5 -144.5c-42 0 -83.833 6 -125.5 18s-85.167 30.667 -130.5 56zM319.001 248.002l399.999 520.002c-25.333 15.333 -51 26.666 -77 33.999
s-53 11 -81 11c-85.333 0 -159.166 -34 -221.499 -102s-93.5 -149.333 -93.5 -244c0 -36.667 6.16699 -73.334 18.5 -110.001s30.5 -73 54.5 -109zM803 694.004l-404.001 -526c29.333 -16.667 57.5 -29 84.5 -37s53.5 -12 79.5 -12c86.667 0 161.334 33.833 224.001 101.5
s94 149.167 94 244.5c0 40 -6.5 78.667 -19.5 116s-32.5 75 -58.5 113z" />
    <glyph glyph-name="ugrave" unicode="&#xf9;" horiz-adv-x="1229" 
d="M668 930h341.999v-789h157v-141h-327v137c-56.667 -57.333 -112.667 -99.333 -168 -126s-114.666 -40 -177.999 -40c-102 0 -176.333 31.333 -223 94s-70 163.334 -70 302.001v426h-148v137h320v-615c0 -68.667 13.5 -119.834 40.5 -153.501s68.167 -50.5 123.5 -50.5
c46 0 94 14 144 42s101.667 70 155 126v514h-168v137zM742.999 1069h-106l-281 348h178z" />
    <glyph glyph-name="uacute" unicode="&#xfa;" horiz-adv-x="1229" 
d="M668 930h341.999v-789h157v-141h-327v137c-56.667 -57.333 -112.667 -99.333 -168 -126s-114.666 -40 -177.999 -40c-102 0 -176.333 31.333 -223 94s-70 163.334 -70 302.001v426h-148v137h320v-615c0 -68.667 13.5 -119.834 40.5 -153.501s68.167 -50.5 123.5 -50.5
c46 0 94 14 144 42s101.667 70 155 126v514h-168v137zM468.999 1069l209 348h178l-281 -348h-106z" />
    <glyph glyph-name="ucircumflex" unicode="&#xfb;" horiz-adv-x="1229" 
d="M668 930h341.999v-789h157v-141h-327v137c-56.667 -57.333 -112.667 -99.333 -168 -126s-114.666 -40 -177.999 -40c-102 0 -176.333 31.333 -223 94s-70 163.334 -70 302.001v426h-148v137h320v-615c0 -68.667 13.5 -119.834 40.5 -153.501s68.167 -50.5 123.5 -50.5
c46 0 94 14 144 42s101.667 70 155 126v514h-168v137zM318.999 1069l197 348h178l197 -348h-107l-178 244l-180 -244h-107z" />
    <glyph glyph-name="udieresis" unicode="&#xfc;" horiz-adv-x="1229" 
d="M668 930h341.999v-789h157v-141h-327v137c-56.667 -57.333 -112.667 -99.333 -168 -126s-114.666 -40 -177.999 -40c-102 0 -176.333 31.333 -223 94s-70 163.334 -70 302.001v426h-148v137h320v-615c0 -68.667 13.5 -119.834 40.5 -153.501s68.167 -50.5 123.5 -50.5
c46 0 94 14 144 42s101.667 70 155 126v514h-168v137zM685.999 1133v188h160v-188h-160zM365.999 1133v188h160v-188h-160z" />
    <glyph glyph-name="yacute" unicode="&#xfd;" horiz-adv-x="1100" 
d="M496 -256h174v-137h-504v137h170l115 258l-314 791h-112v137h446v-137h-158l179 -449c7.33301 -17.333 15.5 -40.5 24.5 -69.5s18.5 -62.5 28.5 -100.5c10.667 38.667 21 73.5 31 104.5s18.667 54.833 26 71.5l195 443h-148v137h428v-137h-119zM414 1069l209 348h178
l-281 -348h-106z" />
    <glyph glyph-name="thorn" unicode="&#xfe;" horiz-adv-x="1241" 
d="M61 -252h159.998v1579h-155v137h329v-657c40.667 48 88 84.833 142 110.5s112 38.5 174 38.5c130.667 0 238.334 -46.333 323.001 -139s127 -210.667 127 -354c0 -142 -42.667 -259.5 -128 -352.5s-192.666 -139.5 -321.999 -139.5c-62 0 -119.667 12.5 -173 37.5
s-102.333 62.5 -147 112.5v-373h160v-141h-490v141zM683.998 809c-88 0 -160.501 -32.167 -217.501 -96.5s-85.5 -146.833 -85.5 -247.5c0 -101.333 28.5 -184.333 85.5 -249s129.5 -97 217.5 -97c88.667 0 161.334 32.167 218.001 96.5s85 147.5 85 249.5
c0 100.667 -28.5 183.167 -85.5 247.5s-129.5 96.5 -217.5 96.5z" />
    <glyph glyph-name="ydieresis" unicode="&#xff;" horiz-adv-x="1100" 
d="M496 -256h174v-137h-504v137h170l115 258l-314 791h-112v137h446v-137h-158l179 -449c7.33301 -17.333 15.5 -40.5 24.5 -69.5s18.5 -62.5 28.5 -100.5c10.667 38.667 21 73.5 31 104.5s18.667 54.833 26 71.5l195 443h-148v137h428v-137h-119zM631 1133v188h160v-188
h-160zM311 1133v188h160v-188h-160z" />
    <glyph glyph-name="Cacute" unicode="&#x106;" horiz-adv-x="1575" 
d="M1296 475h183.001c-47.333 -162.667 -127.5 -287.667 -240.5 -375s-251.5 -131 -415.5 -131c-84 0 -161 10.333 -231 31s-134.333 52 -193 94c-104 74.667 -182.5 165.5 -235.5 272.5s-79.5 229.167 -79.5 366.5c0 93.333 11.5 178.833 34.5 256.5
s57.833 148.5 104.5 212.5c74 101.333 160.5 178.166 259.5 230.499s207.833 78.5 326.5 78.5c85.333 0 165.666 -13.5 240.999 -40.5s144.333 -67.167 207 -120.5v125h164v-459h-161v129c-63.333 64.667 -130.833 112.834 -202.5 144.501s-149.167 47.5 -232.5 47.5
c-163.333 0 -294.833 -53.5 -394.5 -160.5s-149.5 -248.5 -149.5 -424.5c0 -181.333 51 -327.5 153 -438.5s235.333 -166.5 400 -166.5c104.667 0 198.167 29 280.5 87s142.833 138.333 181.5 241zM676.001 1620l209 348h178l-281 -348h-106z" />
    <glyph glyph-name="cacute" unicode="&#x107;" horiz-adv-x="1020" 
d="M866 287l103.001 -94c-64 -74.667 -131.333 -130.667 -202 -168s-144.667 -56 -222 -56c-137.333 0 -250.166 46 -338.499 138s-132.5 209.333 -132.5 352c0 143.333 43.5 262.333 130.5 357s194.167 142 321.5 142c53.333 0 103.166 -7.83301 149.499 -23.5
s90.166 -39.834 131.499 -72.501v68h127v-316h-127v84c-32 38.667 -69.5 68.167 -112.5 88.5s-88.833 30.5 -137.5 30.5c-88.667 0 -161.667 -33.167 -219 -99.5s-86 -151.166 -86 -254.499c0 -100 29.167 -182 87.5 -246s132.833 -96 223.5 -96c50 0 99 13 147 39
s100 68.333 156 127zM430.001 1069l209 348h178l-281 -348h-106z" />
    <glyph glyph-name="Ccaron" unicode="&#x10c;" horiz-adv-x="1575" 
d="M1296 475h183.001c-47.333 -162.667 -127.5 -287.667 -240.5 -375s-251.5 -131 -415.5 -131c-84 0 -161 10.333 -231 31s-134.333 52 -193 94c-104 74.667 -182.5 165.5 -235.5 272.5s-79.5 229.167 -79.5 366.5c0 93.333 11.5 178.833 34.5 256.5
s57.833 148.5 104.5 212.5c74 101.333 160.5 178.166 259.5 230.499s207.833 78.5 326.5 78.5c85.333 0 165.666 -13.5 240.999 -40.5s144.333 -67.167 207 -120.5v125h164v-459h-161v129c-63.333 64.667 -130.833 112.834 -202.5 144.501s-149.167 47.5 -232.5 47.5
c-163.333 0 -294.833 -53.5 -394.5 -160.5s-149.5 -248.5 -149.5 -424.5c0 -181.333 51 -327.5 153 -438.5s235.333 -166.5 400 -166.5c104.667 0 198.167 29 280.5 87s142.833 138.333 181.5 241zM526.001 1968h107l180 -243l178 243h107l-197 -348h-178z" />
    <glyph glyph-name="ccaron" unicode="&#x10d;" horiz-adv-x="1020" 
d="M866 287l103.001 -94c-64 -74.667 -131.333 -130.667 -202 -168s-144.667 -56 -222 -56c-137.333 0 -250.166 46 -338.499 138s-132.5 209.333 -132.5 352c0 143.333 43.5 262.333 130.5 357s194.167 142 321.5 142c53.333 0 103.166 -7.83301 149.499 -23.5
s90.166 -39.834 131.499 -72.501v68h127v-316h-127v84c-32 38.667 -69.5 68.167 -112.5 88.5s-88.833 30.5 -137.5 30.5c-88.667 0 -161.667 -33.167 -219 -99.5s-86 -151.166 -86 -254.499c0 -100 29.167 -182 87.5 -246s132.833 -96 223.5 -96c50 0 99 13 147 39
s100 68.333 156 127zM280.001 1417h107l180 -243l178 243h107l-197 -348h-178z" />
    <glyph glyph-name="dcroat" unicode="&#x111;" horiz-adv-x="1239" 
d="M858 465c0 100.667 -28.333 183.5 -85 248.5s-128.667 97.5 -216 97.5c-88.667 0 -161.334 -32.167 -218.001 -96.5s-85 -147.5 -85 -249.5s28.333 -184.833 85 -248.5s129.334 -95.5 218.001 -95.5c87.333 0 159.333 32.167 216 96.5s85 146.833 85 247.5zM688 1464
h330.001v-264h221v-117h-221v-946h160v-137h-316v139c-48.667 -56 -100.667 -98 -156 -126s-114 -42 -176 -42c-130.667 0 -238.667 46.5 -324 139.5s-128 211.167 -128 354.5c0 141.333 43.333 258.833 130 352.5s194 140.5 322 140.5
c61.333 0 118.166 -12.5 170.499 -37.5s101.5 -62.833 147.5 -113.5v276h-291v117h291v127h-160v137z" />
    <glyph glyph-name="Gbreve" unicode="&#x11e;" horiz-adv-x="1690" 
d="M1307 514l-383.003 0.000976562v158h708v-158h-164v-514h-161v180c-62 -72.667 -131.333 -126 -208 -160s-166.667 -51 -270 -51c-88 0 -167.5 10.167 -238.5 30.5s-134.833 51.166 -191.5 92.499c-104 75.333 -182.5 167 -235.5 275s-79.5 230 -79.5 366
c0 94 11.333 179.833 34 257.5s57 148.167 103 211.5c74 101.333 160.833 178.166 260.5 230.499s208.834 78.5 327.501 78.5c92 0 175.5 -13.167 250.5 -39.5s145.167 -66.833 210.5 -121.5v125h166v-455h-166v125c-65.333 64.667 -134.166 112.834 -206.499 144.501
s-150.5 47.5 -234.5 47.5c-164.667 0 -297.167 -53.5 -397.5 -160.5s-150.5 -248.5 -150.5 -424.5c0 -181.333 51 -327.5 153 -438.5s235.333 -166.5 400 -166.5c112.667 0 211.834 33.167 297.501 99.5s144.167 155.5 175.5 267.5zM587.997 1929l89.002 -0.00195312
c4.66699 -50.667 22.167 -87.5 52.5 -110.5s77.166 -34.5 140.499 -34.5s110.166 11.5 140.499 34.5s47.833 59.833 52.5 110.5h90c-7.33301 -93.333 -33.666 -161.666 -78.999 -204.999s-113.333 -65 -204 -65s-158.834 21.833 -204.501 65.5s-71.5 111.834 -77.5 204.501z
" />
    <glyph glyph-name="gbreve" unicode="&#x11f;" horiz-adv-x="1237" 
d="M252 465c0 -101.333 28.5 -184.333 85.5 -249s129.5 -97 217.5 -97s160.5 32.333 217.5 97s85.5 147.667 85.5 249c0 100.667 -28.5 183.167 -85.5 247.5s-129.5 96.5 -217.5 96.5s-160.5 -32.167 -217.5 -96.5s-85.5 -146.833 -85.5 -247.5zM346 -217
c35.333 -8 68.499 -13.833 99.499 -17.5s61.5 -5.5 91.5 -5.5c111.333 0 191.333 22.333 240 67s73 118 73 220c0 18.667 -0.166992 33 -0.5 43s-0.833008 20 -1.5 30c-44.667 -49.333 -93.667 -86.5 -147 -111.5s-111 -37.5 -173 -37.5
c-129.333 0 -236.666 46.5 -321.999 139.5s-128 210.5 -128 352.5c0 143.333 42.333 261.333 127 354s192.334 139 323.001 139c62.667 0 122 -13.667 178 -41s108 -68 156 -122v137h316v-139h-160v-730c0 -78.667 -3.66699 -136.5 -11 -173.5s-19.333 -69.833 -36 -98.5
c-34.667 -60 -88.5 -105.333 -161.5 -136s-163.833 -46 -272.5 -46c-34.667 0 -70.334 2.33301 -107.001 7s-75 11.667 -115 21zM335.999 1378l89.002 -0.00195312c4.66699 -50.667 22.167 -87.5 52.5 -110.5s77.166 -34.5 140.499 -34.5s110.166 11.5 140.499 34.5
s47.833 59.833 52.5 110.5h90c-7.33301 -93.333 -33.666 -161.666 -78.999 -204.999s-113.333 -65 -204 -65s-158.834 21.833 -204.501 65.5s-71.5 111.834 -77.5 204.501z" />
    <glyph glyph-name="Idotaccent" unicode="&#x130;" horiz-adv-x="645" 
d="M49 0v152h172v1179h-172v144h547v-144h-180v-1179h180v-152h-547zM264 1677v199h168v-199h-168z" />
    <glyph glyph-name="dotlessi" unicode="&#x131;" horiz-adv-x="614" 
d="M571 0h-495v141h155v650h-155v139h330v-789h165v-141z" />
    <glyph glyph-name="Lslash" unicode="&#x141;" horiz-adv-x="1135" 
d="M57 0v152h172v454l-219 -147v147l219 148v577h-172v144h549v-144h-180v-461l244 164v-147l-244 -164v-571h471v292h172v-444h-1012z" />
    <glyph glyph-name="lslash" unicode="&#x142;" horiz-adv-x="633" 
d="M575 0h-495v141h156v477l-228 -153v139l228 152v571h-156v137h330v-604l213 144v-140l-213 -143v-580h165v-141z" />
    <glyph glyph-name="OE" unicode="&#x152;" horiz-adv-x="2105" 
d="M1071 152l0.000976562 1181c-22.667 2.66699 -46.167 4.66699 -70.5 6s-49.833 2 -76.5 2c-204 0 -362.167 -52.333 -474.5 -157s-168.5 -252.334 -168.5 -443.001c0 -189.333 56 -336.666 168 -441.999s269 -158 471 -158c20.667 0 43.167 0.833008 67.5 2.5
s52.166 4.5 83.499 8.5zM1292 0c-32 0 -96 -3.00098 -192 -9.00098s-176 -9 -240 -9c-89.333 0 -171.333 9.5 -246 28.5s-142 47.5 -202 85.5c-105.333 67.333 -187 157 -245 269s-87 236 -87 372c0 109.333 19 211.333 57 306s93.333 177.667 166 249
c67.333 66.667 147.333 116.834 240 150.501s197 50.5 313 50.5c60.667 0 139.5 -3 236.5 -9s163.5 -9 199.5 -9h738v-375h-179v231h-591v-461h251v179h172v-545h-172v209h-251v-561h591v258h179v-410h-738z" />
    <glyph glyph-name="oe" unicode="&#x153;" horiz-adv-x="1909" 
d="M1049 547h615.999c-14 84 -47.667 149.333 -101 196s-120.666 70 -201.999 70s-149.333 -23.167 -204 -69.5s-91 -111.833 -109 -196.5zM1661 274l136.998 -67c-52.667 -79.333 -115.334 -138.5 -188.001 -177.5s-156.667 -58.5 -252 -58.5c-86 0 -162 16.5 -228 49.5
s-122.333 82.833 -169 149.5c-51.333 -64 -111.166 -113.167 -179.499 -147.5s-141.166 -51.5 -218.499 -51.5c-64 0 -126 12.667 -186 38s-113.333 61.333 -160 108c-46 46 -81.667 99.333 -107 160s-38 123.334 -38 188.001s12.667 127.167 38 187.5
s61 113.166 107 158.499c46.667 47.333 99.334 83.333 158.001 108s121.334 37 188.001 37c80.667 0 155.5 -17.5 224.5 -52.5s127.5 -84.833 175.5 -149.5c44.667 64.667 101 114.5 169 149.5s142 52.5 222 52.5c145.333 0 262.166 -47.5 350.499 -142.5
s132.5 -221.5 132.5 -379.5v-20h-788c10 -92 43.5 -164.167 100.5 -216.5s129.833 -78.5 218.5 -78.5c62 0 116.333 12.5 163 37.5s90 64.167 130 117.5zM247.997 465c0 -95.333 31 -176.834 93 -244.501s136 -101.5 222 -101.5c86.667 0 161.334 33.833 224.001 101.5
s94 149.167 94 244.5c0 96.667 -31 178.834 -93 246.501s-137 101.5 -225 101.5c-86.667 0 -160.834 -34 -222.501 -102s-92.5 -150 -92.5 -246z" />
    <glyph glyph-name="Scedilla" unicode="&#x15e;" horiz-adv-x="1237" 
d="M90 0l0.000976562 512.004h160v-190c65.333 -58.667 131 -102.5 197 -131.5s133.333 -43.5 202 -43.5c94 0 169.5 23.167 226.5 69.5s85.5 107.166 85.5 182.499c0 64 -22.667 117.167 -68 159.5s-115 75.166 -209 98.499l-207 54
c-122.667 31.333 -217.5 82.5 -284.5 153.5s-100.5 155.5 -100.5 253.5c0 116 42.833 210.167 128.5 282.5s197.834 108.5 336.501 108.5c65.333 0 127.5 -11.5 186.5 -34.5s114.167 -57.167 165.5 -102.5v103h154v-428h-154v114c-46.667 59.333 -100 104.166 -160 134.499
s-125.333 45.5 -196 45.5c-80 0 -144.333 -19.333 -193 -58s-73 -89.667 -73 -153c0 -58.667 20.167 -105.334 60.5 -140.001s117.166 -67 230.499 -97l184 -49c126 -34.667 222.667 -89 290 -163s101 -163 101 -267c0 -132.667 -46 -240.667 -138 -324
s-211.333 -125 -358 -125c-75.333 0 -146.333 12.5 -213 37.5s-131.334 63.167 -194.001 114.5v-117h-160zM405.001 -421.996l-0.000976562 85.999c50 -11.333 95.833 -20 137.5 -26s77.834 -9 108.501 -9c40.667 0 71 6.83301 91 20.5s30 34.167 30 61.5
c0 34.667 -10.833 59.834 -32.5 75.501s-56.5 23.5 -104.5 23.5c-13.333 0 -23.5 -0.166992 -30.5 -0.5s-13.833 -0.833008 -20.5 -1.5v192h71v-106h23c74 0 130 -15 168 -45s57 -74 57 -132c0 -59.333 -21 -104.5 -63 -135.5s-104.333 -46.5 -187 -46.5
c-28 0 -61.667 3.33301 -101 10s-88.333 17.667 -147 33z" />
    <glyph glyph-name="scedilla" unicode="&#x15f;" horiz-adv-x="1012" 
d="M242 82l-0.000976562 -82.001h-136v317h136v-81c44.667 -40 93.5 -69.833 146.5 -89.5s109.833 -29.5 170.5 -29.5c59.333 0 106.333 12 141 36s52 56.333 52 97c0 69.333 -87.333 116.333 -262 141h-1c-138.667 19.333 -236 50 -292 92s-84 103 -84 183
c0 86.667 31 157 93 211s143.667 81 245 81c50.667 0 97.834 -6.5 141.501 -19.5s85.167 -32.833 124.5 -59.5v51h133v-287h-133v80c-44 33.333 -87.333 58.333 -130 75s-84.667 25 -126 25c-60.667 0 -108 -11.333 -142 -34s-51 -54.334 -51 -95.001
c0 -39.333 16.333 -68.833 49 -88.5s106 -37.167 220 -52.5c135.333 -19.333 231.166 -50.666 287.499 -93.999s84.5 -105.666 84.5 -186.999c0 -90 -32 -162.333 -96 -217s-149.333 -82 -256 -82c-57.333 0 -112.166 9 -164.499 27s-102.5 45.333 -150.5 82z
M267.999 -422.001l-0.000976562 85.999c50 -11.333 95.833 -20 137.5 -26s77.834 -9 108.501 -9c40.667 0 71 6.83301 91 20.5s30 34.167 30 61.5c0 34.667 -10.833 59.834 -32.5 75.501s-56.5 23.5 -104.5 23.5c-13.333 0 -23.5 -0.166992 -30.5 -0.5
s-13.833 -0.833008 -20.5 -1.5v192h71v-106h23c74 0 130 -15 168 -45s57 -74 57 -132c0 -59.333 -21 -104.5 -63 -135.5s-104.333 -46.5 -187 -46.5c-28 0 -61.667 3.33301 -101 10s-88.333 17.667 -147 33z" />
    <glyph glyph-name="Scaron" unicode="&#x160;" horiz-adv-x="1237" 
d="M90 0l0.000976562 512.004h160v-190c65.333 -58.667 131 -102.5 197 -131.5s133.333 -43.5 202 -43.5c94 0 169.5 23.167 226.5 69.5s85.5 107.166 85.5 182.499c0 64 -22.667 117.167 -68 159.5s-115 75.166 -209 98.499l-207 54
c-122.667 31.333 -217.5 82.5 -284.5 153.5s-100.5 155.5 -100.5 253.5c0 116 42.833 210.167 128.5 282.5s197.834 108.5 336.501 108.5c65.333 0 127.5 -11.5 186.5 -34.5s114.167 -57.167 165.5 -102.5v103h154v-428h-154v114c-46.667 59.333 -100 104.166 -160 134.499
s-125.333 45.5 -196 45.5c-80 0 -144.333 -19.333 -193 -58s-73 -89.667 -73 -153c0 -58.667 20.167 -105.334 60.5 -140.001s117.166 -67 230.499 -97l184 -49c126 -34.667 222.667 -89 290 -163s101 -163 101 -267c0 -132.667 -46 -240.667 -138 -324
s-211.333 -125 -358 -125c-75.333 0 -146.333 12.5 -213 37.5s-131.334 63.167 -194.001 114.5v-117h-160zM358.001 1968h107l180 -243l178 243h107l-197 -348h-178z" />
    <glyph glyph-name="scaron" unicode="&#x161;" horiz-adv-x="1012" 
d="M242 82l-0.000976562 -82.001h-136v317h136v-81c44.667 -40 93.5 -69.833 146.5 -89.5s109.833 -29.5 170.5 -29.5c59.333 0 106.333 12 141 36s52 56.333 52 97c0 69.333 -87.333 116.333 -262 141h-1c-138.667 19.333 -236 50 -292 92s-84 103 -84 183
c0 86.667 31 157 93 211s143.667 81 245 81c50.667 0 97.834 -6.5 141.501 -19.5s85.167 -32.833 124.5 -59.5v51h133v-287h-133v80c-44 33.333 -87.333 58.333 -130 75s-84.667 25 -126 25c-60.667 0 -108 -11.333 -142 -34s-51 -54.334 -51 -95.001
c0 -39.333 16.333 -68.833 49 -88.5s106 -37.167 220 -52.5c135.333 -19.333 231.166 -50.666 287.499 -93.999s84.5 -105.666 84.5 -186.999c0 -90 -32 -162.333 -96 -217s-149.333 -82 -256 -82c-57.333 0 -112.166 9 -164.499 27s-102.5 45.333 -150.5 82zM218.999 1417
h107l180 -243l178 243h107l-197 -348h-178z" />
    <glyph glyph-name="Ydieresis" unicode="&#x178;" horiz-adv-x="1352" 
d="M403 0v152h170v526l-362 653h-170v144h534v-144h-172l273 -489l270 489h-170v144h531v-144h-174l-365 -653v-526h172v-152h-537zM782 1684v188h160v-188h-160zM462 1684v188h160v-188h-160z" />
    <glyph glyph-name="Zcaron" unicode="&#x17d;" horiz-adv-x="1126" 
d="M1063 0h-1038v135l802 1198h-600v-252h-170v394h1004v-117l-805 -1206h629v309h178v-461zM303 1968h107l180 -243l178 243h107l-197 -348h-178z" />
    <glyph glyph-name="zcaron" unicode="&#x17e;" horiz-adv-x="909" 
d="M852 344v-344h-799v137l563 660h-387v-181h-155v314h757v-133l-563 -660h422v207h162zM168 1417h107l180 -243l178 243h107l-197 -348h-178z" />
    <glyph glyph-name="florin" unicode="&#x192;" horiz-adv-x="1124" 
d="M-23 -336l24.9961 139.002c22 -8 42.167 -14 60.5 -18s35.833 -6 52.5 -6c63.333 0 110.833 23.667 142.5 71s57.834 139.666 78.501 276.999l94 633h-244v125h263l18 133c23.333 153.333 65.833 268.5 127.5 345.5s142.167 115.5 241.5 115.5
c32.667 0 62.834 -3.5 90.501 -10.5s54.167 -17.167 79.5 -30.5l-29 -133c-31.333 11.333 -56.666 19.166 -75.999 23.499s-36.333 6.5 -51 6.5c-58.667 0 -103.667 -21.167 -135 -63.5s-54.666 -113.833 -69.999 -214.5l-27 -172h240v-125h-258l-100 -662
c-24 -158 -65.5 -274.667 -124.5 -350s-138.5 -113 -238.5 -113c-30 0 -58.167 2.5 -84.5 7.5s-51.5 12.167 -75.5 21.5z" />
    <glyph glyph-name="circumflex" unicode="&#x2c6;" 
d="M225 1069l197 348h178l197 -348h-107l-178 244l-180 -244h-107z" />
    <glyph glyph-name="caron" unicode="&#x2c7;" 
d="M225 1417h107l180 -243l178 243h107l-197 -348h-178z" />
    <glyph glyph-name="breve" unicode="&#x2d8;" 
d="M230 1378l89.002 -0.00195312c4.66699 -50.667 22.167 -87.5 52.5 -110.5s77.166 -34.5 140.499 -34.5s110.166 11.5 140.499 34.5s47.833 59.833 52.5 110.5h90c-7.33301 -93.333 -33.666 -161.666 -78.999 -204.999s-113.333 -65 -204 -65
s-158.834 21.833 -204.501 65.5s-71.5 111.834 -77.5 204.501z" />
    <glyph glyph-name="dotaccent" unicode="&#x2d9;" 
d="M428 1126v199h168v-199h-168z" />
    <glyph glyph-name="ring" unicode="&#x2da;" 
d="M371 1296c0 -40 13.501 -73.832 40.501 -101.499s60.5 -41.5 100.5 -41.5s73.833 13.833 101.5 41.5s41.5 61.5 41.5 101.5s-13.833 74 -41.5 102s-61.5 42 -101.5 42c-40.667 0 -74.334 -13.833 -101.001 -41.5s-40 -61.834 -40 -102.501zM264.001 1298
c0 69.333 23.833 127.666 71.5 174.999s106.5 71 176.5 71s128.833 -23.667 176.5 -71s71.5 -105.666 71.5 -174.999s-24 -128.166 -72 -176.499s-106.667 -72.5 -176 -72.5s-128 24.167 -176 72.5s-72 107.166 -72 176.499z" />
    <glyph glyph-name="ogonek" unicode="&#x2db;" 
d="M639 0c-46 -42 -80.001 -81.167 -102.001 -117.5s-33 -71.5 -33 -105.5c0 -30 7.33301 -51.167 22 -63.5s39.334 -18.5 74.001 -18.5h80v-129h-78c-76 0 -132.167 13.333 -168.5 40s-54.5 68 -54.5 124c0 43.333 13.667 85 41 125s76.333 88.333 147 145h72z" />
    <glyph glyph-name="tilde" unicode="&#x2dc;" 
d="M803 1337c-16 -62 -41.1729 -109.5 -75.5059 -142.5s-75.5 -49.5 -123.5 -49.5c-11.333 0 -22.166 0.833008 -32.499 2.5s-21.166 4.16699 -32.499 7.5l-80 27c-8 2.66699 -16.5 4.66699 -25.5 6s-18.167 2 -27.5 2c-23.333 0 -42.833 -5.16699 -58.5 -15.5
s-28.5 -26.5 -38.5 -48.5h-88c14.667 61.333 38.834 107.833 72.501 139.5s75.834 47.5 126.501 47.5c11.333 0 22 -0.666992 32 -2s19 -3.33301 27 -6l78 -29c10.667 -3.33301 21.334 -5.83301 32.001 -7.5s20.334 -2.5 29.001 -2.5c24 0 44 6 60 18s28.333 29.667 37 53
h88z" />
    <glyph glyph-name="hungarumlaut" unicode="&#x2dd;" 
d="M580 1069l168 348h155l-239 -348h-84zM322 1069l147 348h158l-221 -348h-84z" />
    <glyph glyph-name="Omega" unicode="&#x3a9;" horiz-adv-x="1573" 
d="M1473 156l-0.00390625 -155.999h-590v150c128.667 74 227.334 167 296.001 279s103 236.667 103 374c0 167.333 -45.667 302.333 -137 405s-211 154 -359 154c-147.333 0 -267 -51.667 -359 -155s-138 -238 -138 -404c0 -136.667 34.333 -261.167 103 -373.5
s168 -205.5 298 -279.5v-150h-590v156h332c-109.333 88.667 -190.166 183.667 -242.499 285s-78.5 213 -78.5 335c0 219.333 62.833 397 188.5 533s287.834 204 486.501 204c199.333 0 361.833 -67.5 487.5 -202.5s188.5 -311.833 188.5 -530.5
c0 -124 -26.167 -236.833 -78.5 -338.5s-133.166 -196.834 -242.499 -285.501h332z" />
    <glyph glyph-name="pi" unicode="&#x3c0;" horiz-adv-x="1186" 
d="M1139 930l-184.997 -0.00195312l-110 -516c-9.33301 -44 -16.5 -82.167 -21.5 -114.5s-7.5 -57.166 -7.5 -74.499c0 -38 8 -65.167 24 -81.5s43 -24.5 81 -24.5c14 0 29.333 0.833008 46 2.5s34 4.16699 52 7.5l-29 -129l-5 -1c-42.667 -10 -75.667 -15 -99 -15
c-73.333 0 -129.333 17.167 -168 51.5s-58 84.5 -58 150.5c0 32 3.83301 72.333 11.5 121s22.5 125.334 44.5 230.001l84 393h-348l-197 -930h-158l197 930h-39c-36.667 0 -64.834 -10.333 -84.501 -31s-33.167 -54 -40.5 -100h-145c17.333 102 48.666 172.5 93.999 211.5
s119.666 58.5 222.999 58.5h866z" />
    <glyph glyph-name="endash" unicode="&#x2013;" 
d="M0 403v125h1024v-125h-1024z" />
    <glyph glyph-name="emdash" unicode="&#x2014;" horiz-adv-x="2048" 
d="M0 528h2048v-125h-2048v125z" />
    <glyph glyph-name="quoteleft" unicode="&#x2018;" horiz-adv-x="498" 
d="M406 1475l-123 -441h-197l150 441h170z" />
    <glyph glyph-name="quoteright" unicode="&#x2019;" horiz-adv-x="498" 
d="M76 1034l125 441h194l-147 -441h-172z" />
    <glyph glyph-name="quotesinglbase" unicode="&#x201a;" horiz-adv-x="498" 
d="M113 -184l123 440h196l-149 -440h-170z" />
    <glyph glyph-name="quotedblleft" unicode="&#x201c;" horiz-adv-x="805" 
d="M733 1475l-125 -441h-194l149 441h170zM379 1475l-123 -441h-197l150 441h170z" />
    <glyph glyph-name="quotedblright" unicode="&#x201d;" horiz-adv-x="805" 
d="M414 1034l123 441h196l-149 -441h-170zM59 1034l123 441h197l-150 -441h-170z" />
    <glyph glyph-name="quotedblbase" unicode="&#x201e;" horiz-adv-x="805" 
d="M414 -182l123 438h196l-149 -438h-170zM59 -182l123 438h197l-150 -438h-170z" />
    <glyph glyph-name="dagger" unicode="&#x2020;" 
d="M582 836v-1033h-142v1033h-243v-111h-125v354h125v-118h243v389h-135v125h412v-125h-135v-389h245v118h125v-354h-125v111h-245z" />
    <glyph glyph-name="daggerdbl" unicode="&#x2021;" 
d="M582 918v-558h245v113h125v-358h-125v121h-243v-310h133v-123h-412v123h135v310h-243v-119h-125v356h125v-113h245v558h-245v-111h-125v354h125v-119h243v310h-135v123h412v-123h-133v-310h243v119h125v-354h-125v111h-245z" />
    <glyph glyph-name="bullet" unicode="&#x2022;" horiz-adv-x="1208" 
d="M307 762c0 82 28.999 151.666 86.999 208.999s128 86 210 86c81.333 0 150.833 -28.833 208.5 -86.5s86.5 -127.167 86.5 -208.5s-29.167 -151.166 -87.5 -209.499s-128.166 -87.5 -209.499 -87.5c-82 0 -151.667 29 -209 87s-86 128 -86 210z" />
    <glyph glyph-name="ellipsis" unicode="&#x2026;" horiz-adv-x="2048" 
d="M241 0v264h201v-264h-201zM923 0v264h201v-264h-201zM1607 0v264h201v-264h-201z" />
    <glyph glyph-name="perthousand" unicode="&#x2030;" horiz-adv-x="2439" 
d="M1833 326c0 -58 20 -107.333 60 -148s88.333 -61 145 -61c57.333 0 106.5 20.333 147.5 61s61.5 90 61.5 148c0 56.667 -20.5 105.167 -61.5 145.5s-90.167 60.5 -147.5 60.5s-105.833 -20 -145.5 -60s-59.5 -88.667 -59.5 -146zM1694 326
c0 45.333 8.50195 88.833 25.502 130.5s41.833 78.5 74.5 110.5c33.333 33.333 70.666 58.833 111.999 76.5s84.666 26.5 129.999 26.5c46 0 90.167 -8.83301 132.5 -26.5s80.833 -43.167 115.5 -76.5c32 -32 56.667 -68.833 74 -110.5s26 -85.167 26 -130.5
c0 -46 -8.5 -89.667 -25.5 -131s-41.833 -79 -74.5 -113c-34 -34.667 -72.167 -61.167 -114.5 -79.5s-86.833 -27.5 -133.5 -27.5c-45.333 0 -88.5 9.16699 -129.5 27.5s-78.5 44.833 -112.5 79.5c-32.667 34 -57.5 71.667 -74.5 113s-25.5 85 -25.5 131zM993.002 326
c0 -58 20 -107.333 60 -148s88.333 -61 145 -61c58 0 107.333 20.333 148 61s61 90 61 148c0 56.667 -20.333 105.167 -61 145.5s-90 60.5 -148 60.5c-57.333 0 -105.833 -20 -145.5 -60s-59.5 -88.667 -59.5 -146zM852.002 326c0 45.333 8.66602 88.834 25.999 130.501
s42 78.5 74 110.5c33.333 33.333 70.666 58.833 111.999 76.5s84.666 26.5 129.999 26.5c46 0 89.833 -8.66699 131.5 -26s79.834 -43 114.501 -77c32.667 -32.667 57.834 -69.834 75.501 -111.501s26.5 -84.834 26.5 -129.501c0 -46.667 -8.66699 -90.667 -26 -132
s-42.666 -78.666 -75.999 -111.999c-34 -34.667 -72 -61.167 -114 -79.5s-86 -27.5 -132 -27.5c-45.333 0 -88.5 9.16699 -129.5 27.5s-78.5 44.833 -112.5 79.5c-32.667 34 -57.5 71.667 -74.5 113s-25.5 85 -25.5 131zM174.001 1135c0 -58.667 20 -108.502 60 -149.502
s88.333 -61.5 145 -61.5c57.333 0 106.5 20.5 147.5 61.5s61.5 90.833 61.5 149.5c0 56.667 -20.333 104.834 -61 144.501s-90 59.5 -148 59.5c-57.333 0 -105.833 -19.667 -145.5 -59s-59.5 -87.666 -59.5 -144.999zM33.001 1135c0 45.333 8.66504 88.835 25.998 130.502
s42 78.5 74 110.5c32.667 32.667 69.667 57.667 111 75s85 26 131 26c46.667 0 90.667 -8.5 132 -25.5s79.333 -42.167 114 -75.5c32.667 -32.667 57.834 -69.834 75.501 -111.501s26.5 -84.834 26.5 -129.501c0 -46.667 -8.66699 -91 -26 -133
s-42.666 -79.667 -75.999 -113c-34 -34.667 -72 -61.167 -114 -79.5s-86 -27.5 -132 -27.5c-45.333 0 -88.5 9.16699 -129.5 27.5s-78.5 44.833 -112.5 79.5c-32.667 33.333 -57.5 71 -74.5 113s-25.5 86.333 -25.5 133zM372.999 -24.999h-123l944 1502h125z" />
    <glyph glyph-name="guilsinglleft" unicode="&#x2039;" horiz-adv-x="584" 
d="M449 819l-177 -348l177 -348l-123 -51l-191 399l191 399z" />
    <glyph glyph-name="guilsinglright" unicode="&#x203a;" horiz-adv-x="584" 
d="M135 819l121 51l193 -399l-193 -399l-121 51l174 348z" />
    <glyph glyph-name="franc" unicode="&#x20a3;" horiz-adv-x="1917" 
d="M49 0v152h172v1179h-172v144h1053v-375h-180v231h-504v-459h203v177h167v-549h-167v215h-203v-563h178v-152h-547zM1730 0h-498.999v141h159v650h-159v139h327v-119c46 46.667 95.167 82.167 147.5 106.5s109.166 37.833 170.499 40.5l-1 -143
c-59.333 -0.666992 -114.5 -13.667 -165.5 -39s-99.167 -64.333 -144.5 -117v-518h165v-141z" />
    <glyph glyph-name="trademark" unicode="&#x2122;" horiz-adv-x="1706" 
d="M948 1456l160 -405l149 405h132v-534h-82v458l-172 -458h-54l-180 458v-458h-82v534h129zM694 1456v-67h-172v-467h-94v467h-174v67h440z" />
    <glyph glyph-name="partialdiff" unicode="&#x2202;" horiz-adv-x="1044" 
d="M754 604c8.66699 54 15.1699 107.833 19.5029 161.5s6.5 106.5 6.5 158.5c0 93.333 -13.167 165.5 -39.5 216.5s-63.5 76.5 -111.5 76.5c-35.333 0 -74.333 -21.167 -117 -63.5s-79 -63.5 -109 -63.5c-19.333 0 -36.333 7.16699 -51 21.5s-22 31.5 -22 51.5
c0 39.333 22.667 74.5 68 105.5s99.666 46.5 162.999 46.5c114 0 205 -50.833 273 -152.5s102 -239.167 102 -412.5c0 -223.333 -46.333 -408.333 -139 -555s-207.334 -220 -344.001 -220c-98 0 -178.5 35.5 -241.5 106.5s-94.5 161.833 -94.5 272.5
c0 126 36.167 231.333 108.5 316s161.166 127 266.499 127c66 0 120.167 -15.667 162.5 -47s75.5 -80 99.5 -146zM709.003 483c0 78 -15 138.168 -45 180.501s-72.333 63.5 -127 63.5c-75.333 0 -136.833 -42.5 -184.5 -127.5s-71.5 -196.167 -71.5 -333.5
c0 -78 14.667 -137.333 44 -178s72 -61 128 -61c74 0 135.167 42.667 183.5 128s72.5 194.666 72.5 327.999z" />
    <glyph glyph-name="Delta" unicode="&#x2206;" horiz-adv-x="1356" 
d="M1122 158l-444 1138l-445 -1138h889zM780 1473l586 -1473h-1374l586 1473h202z" />
    <glyph glyph-name="product" unicode="&#x220f;" horiz-adv-x="1528" 
d="M160 1473h1208v-1866h-201v1693h-809v-1693h-198v1866z" />
    <glyph glyph-name="summation" unicode="&#x2211;" horiz-adv-x="1346" 
d="M51 1473h1239v-166h-989l690 -744l-719 -792h1035v-164h-1289v139l738 813l-705 758v156z" />
    <glyph glyph-name="minus" unicode="&#x2212;" horiz-adv-x="1706" 
d="M1452 670v-119h-1198v119h1198z" />
    <glyph glyph-name="fraction" unicode="&#x2215;" horiz-adv-x="342" 
d="M-223 -25h-119l907 1504h119z" />
    <glyph glyph-name="periodcentered" unicode="&#x2219;" horiz-adv-x="561" 
d="M150 729c0 36 12.833 66.5 38.5 91.5s56.5 37.5 92.5 37.5c36.667 0 67.667 -12.5 93 -37.5s38 -55.5 38 -91.5c0 -36.667 -12.833 -68 -38.5 -94s-56.5 -39 -92.5 -39c-35.333 0 -66 13.167 -92 39.5s-39 57.5 -39 93.5z" />
    <glyph glyph-name="radical" unicode="&#x221a;" horiz-adv-x="1288" 
d="M1288 1647v-82h-119l-594 -1606h-53l-323 893l-119 -43l-23 68l262 92l265 -729l522 1407h182z" />
    <glyph glyph-name="infinity" unicode="&#x221e;" horiz-adv-x="1706" 
d="M905 559c34 -63.333 73.6689 -110.5 119.002 -141.5s97.333 -46.5 156 -46.5c68 0 124.167 23.667 168.5 71s66.5 107.666 66.5 180.999c0 72 -20.333 131.833 -61 179.5s-91.334 71.5 -152.001 71.5c-56.667 0 -107.834 -24.167 -153.501 -72.5
s-93.5 -129.166 -143.5 -242.499zM803.002 666c-34 63.333 -73.6699 110.833 -119.003 142.5s-96.666 47.5 -153.999 47.5c-70 0 -127 -23.667 -171 -71s-66 -108.333 -66 -183c0 -72 20.333 -131.667 61 -179s91.334 -71 152.001 -71c56.667 0 107.334 23 152.001 69
s93 127.667 145 245zM839.999 727c44.667 92 93.333 159.998 146 203.998s111 66 175 66c89.333 0 164.666 -36.167 225.999 -108.5s92 -163.166 92 -272.499c0 -114 -27.333 -206.333 -82 -277s-125.667 -106 -213 -106c-64 0 -120.333 20 -169 60
s-98.334 107 -149.001 201c-47.333 -92 -96.666 -159.167 -147.999 -201.5s-109 -63.5 -173 -63.5c-89.333 0 -164.666 36.333 -225.999 109s-92 163.334 -92 272.001c0 114.667 27.5 207.167 82.5 277.5s126.5 105.5 214.5 105.5c64.667 0 122 -21 172 -63
s98 -109.667 144 -203z" />
    <glyph glyph-name="integral" unicode="&#x222b;" horiz-adv-x="1020" 
d="M301 -268c68.667 0 107.33 221.335 115.997 664.002c2 94 3.66699 166 5 216c8 335.333 42 575.166 102 719.499s153.667 216.5 281 216.5c50.667 0 91.334 -13 122.001 -39s46 -60.667 46 -104c0 -32 -10.333 -57.833 -31 -77.5s-48 -29.5 -82 -29.5
c-35.333 0 -63.666 11.667 -84.999 35s-32 54 -32 92c0 5.33301 -2 10.5 -6 15.5s-8.66699 7.5 -14 7.5c-70 0 -109.667 -211.333 -119 -634c-2 -104.667 -4 -186.334 -6 -245.001c-6.66699 -205.333 -17.167 -359 -31.5 -461s-35.166 -184.333 -62.499 -247
c-32.667 -76 -73.667 -133.667 -123 -173s-105.333 -59 -168 -59c-48.667 0 -88.5 12.667 -119.5 38s-46.5 57.666 -46.5 96.999c0 35.333 10.5 63.333 31.5 84s48.833 31 83.5 31c31.333 0 57.833 -9.66699 79.5 -29s32.5 -41.666 32.5 -66.999c0 -16 2.5 -28.5 7.5 -37.5
s11.5 -13.5 19.5 -13.5z" />
    <glyph glyph-name="approxequal" unicode="&#x2248;" horiz-adv-x="1706" 
d="M1530 453c-71.333 -50 -138.668 -86.832 -202.001 -110.499s-125.666 -35.5 -186.999 -35.5c-65.333 0 -161.333 23.167 -288 69.5s-223.334 69.5 -290.001 69.5c-54.667 0 -111.167 -11.833 -169.5 -35.5s-130.166 -64.834 -215.499 -123.501v131
c70.667 48.667 138 85 202 109s125.667 36 185 36c74 0 174.5 -22.833 301.5 -68.5s219.167 -68.5 276.5 -68.5c56.667 0 114.5 11.833 173.5 35.5s130.167 64.5 213.5 122.5v-131zM1530 803.001c-69.333 -48.667 -135.999 -84.832 -199.999 -108.499
s-126.333 -35.5 -187 -35.5c-66.667 0 -163.334 23 -290.001 69s-223.334 69 -290.001 69c-55.333 0 -112.5 -12 -171.5 -36s-130.167 -64.667 -213.5 -122v131c70.667 48.667 138 85 202 109s125.667 36 185 36c74 0 174.167 -22.833 300.5 -68.5
s218.833 -68.5 277.5 -68.5c58 0 116.333 11.667 175 35s129.334 63.666 212.001 120.999v-131z" />
    <glyph glyph-name="notequal" unicode="&#x2260;" horiz-adv-x="1706" 
d="M1298 1110l-196 -250h350v-115h-424l-211 -270h635v-115h-709l-251 -319l-89 70l197 249h-346v115h420l211 270h-631v115h704l252 320z" />
    <glyph glyph-name="lessequal" unicode="&#x2264;" horiz-adv-x="1706" 
d="M1444 150v-117h-1182v117h1182zM1444 1067l-977 -324l977 -323v-125l-1182 399v101l1182 397v-125z" />
    <glyph glyph-name="greaterequal" unicode="&#x2265;" horiz-adv-x="1706" 
d="M1444 150v-117h-1182v117h1182zM1444 795v-101l-1182 -399v125l979 323l-979 324v125z" />
    <glyph glyph-name="lozenge" unicode="&#x25ca;" horiz-adv-x="1012" 
d="M506 1409l-385 -817l385 -825l385 825zM506 1653l500 -1061l-500 -1069l-500 1069z" />
    <glyph glyph-name="apple" unicode="&#xf000;" horiz-adv-x="1618" 
d="M836 1216c-0.666992 4 -1.16699 8.66895 -1.5 14.002s-0.5 13 -0.5 23c0 82.667 31.667 159.167 95 229.5s142 114.166 236 131.499c0.666992 -6.66699 1.16699 -14.334 1.5 -23.001s0.5 -21.667 0.5 -39c0 -87.333 -34.5 -165.5 -103.5 -234.5
s-136.833 -103.5 -203.5 -103.5h-8c-2 0 -4.5 0.333008 -7.5 1s-5.83301 1 -8.5 1zM1505 403.002c-76 -164.667 -144.336 -278.834 -205.003 -342.501s-128.667 -95.5 -204 -95.5c-33.333 0 -77.166 11 -131.499 33s-95.166 33 -122.499 33c-30 0 -73.667 -11 -131 -33
s-99.666 -33 -126.999 -33c-42.667 0 -85.5 14.667 -128.5 44s-86.167 73.333 -129.5 132c-68 93.333 -120.5 191.833 -157.5 295.5s-55.5 203.834 -55.5 300.501c0 146 41.667 264.833 125 356.5s191 137.5 323 137.5c45.333 0 97 -11.333 155 -34s99.333 -34 124 -34
c22.667 0 63.167 11.667 121.5 35s109.166 35 152.499 35c73.333 0 139.333 -13.333 198 -40s112.334 -68 161.001 -124c-68 -43.333 -118.5 -91.833 -151.5 -145.5s-49.5 -114.5 -49.5 -182.5c0 -75.333 20 -142 60 -200s97.667 -104 173 -138z" />
    <glyph glyph-name="fi" unicode="&#xf001;" horiz-adv-x="1247" 
d="M76 0l-0.000976562 140.999h157v652h-157v137h157v200c0 120.667 23.167 206.834 69.5 258.501s122.833 77.5 229.5 77.5c14.667 0 25.834 -0.166992 33.501 -0.5s14.5 -0.833008 20.5 -1.5v-137h-23c-59.333 0 -100 -12.5 -122 -37.5s-33 -73.833 -33 -146.5v-213h165
v-137h-165v-652h165v-141h-497zM1204 -0.000976562h-493v141h153v650h-153v139h327v-789h166v-141zM1038 1139h-178v241h178v-241z" />
    <glyph glyph-name="fl" unicode="&#xf002;" horiz-adv-x="1247" 
d="M76 0v141h157v652h-157v137h157v200c0 120.667 23 206.5 69 257.5s122.667 76.5 230 76.5h54v-137h-23c-59.333 0 -100 -12.5 -122 -37.5s-33 -73.833 -33 -146.5v-213h165v-137h-165v-652h165v-141h-497zM1204 0h-493v141h153v1186h-153v137h327v-1323h166v-141z" />
    <glyph glyph-name=".null" horiz-adv-x="0" 
 />
    <glyph glyph-name="nonmarkingreturn" horiz-adv-x="561" 
 />
    </font>
</defs>
</svg>
